<?xml version="1.0" encoding="utf-8"?>
<!-- Generator: Adobe Illustrator 16.0.0, SVG Export Plug-In . SVG Version: 6.00 Build 0)  -->
<!DOCTYPE svg PUBLIC "-//W3C//DTD SVG 1.1//EN" "http://www.w3.org/Graphics/SVG/1.1/DTD/svg11.dtd">
<svg version="1.1" id="Capa_1" xmlns="http://www.w3.org/2000/svg" xmlns:xlink="http://www.w3.org/1999/xlink" x="0px" y="0px"
	 width="114.314px" height="66.094px" viewBox="0 0 114.314 66.094" enable-background="new 0 0 114.314 66.094"
	 xml:space="preserve">
<g id="plantilla" display="none">
</g>
<g id="Capa_1_1_">
	<g>
		<path id="path2998_1_" fill="#FFFFFF" d="M28.182,27.558H14.879v3.947h9.436c-0.466,5.536-5.073,7.896-9.42,7.896
			c-5.562,0-10.415-4.375-10.415-10.51c0-5.975,4.626-10.577,10.427-10.577c4.477,0,7.114,2.853,7.114,2.853l2.764-2.861
			c0,0-3.548-3.949-10.018-3.949c-8.24,0-14.614,6.953-14.614,14.464c0,7.361,5.997,14.538,14.824,14.538
			c7.764,0,13.447-5.32,13.447-13.185C28.424,28.518,28.182,27.557,28.182,27.558L28.182,27.558z"/>
		<path id="path3000_1_" fill="#FFFFFF" d="M39.08,24.699c-5.458,0-9.371,4.269-9.371,9.244c0,5.052,3.794,9.4,9.436,9.4
			c5.105,0,9.288-3.904,9.288-9.29C48.434,27.877,43.567,24.699,39.08,24.699L39.08,24.699z M39.135,28.361
			c2.684,0,5.228,2.169,5.228,5.667c0,3.423-2.533,5.654-5.241,5.654C36.147,39.682,33.8,37.3,33.8,34
			C33.801,30.771,36.118,28.361,39.135,28.361L39.135,28.361z"/>
		<path id="path3005_1_" fill="#FFFFFF" d="M59.459,24.699c-5.458,0-9.37,4.269-9.37,9.244c0,5.052,3.795,9.4,9.436,9.4
			c5.106,0,9.288-3.904,9.288-9.29C68.814,27.877,63.948,24.699,59.459,24.699L59.459,24.699z M59.516,28.361
			c2.683,0,5.228,2.169,5.228,5.667c0,3.423-2.533,5.654-5.241,5.654c-2.975,0-5.322-2.382-5.322-5.682
			C54.181,30.771,56.498,28.361,59.516,28.361L59.516,28.361z"/>
		<path id="path3007_1_" fill="#FFFFFF" d="M79.451,24.709c-5.01,0-8.95,4.389-8.95,9.315c0,5.609,4.565,9.33,8.862,9.33
			c2.657,0,4.07-1.055,5.114-2.265v1.84c0,3.215-1.954,5.14-4.9,5.14c-2.849,0-4.276-2.116-4.772-3.317l-3.581,1.497
			c1.271,2.688,3.829,5.488,8.383,5.488c4.983,0,8.779-3.137,8.779-9.719V25.271h-3.908v1.578
			C83.274,25.554,81.631,24.709,79.451,24.709L79.451,24.709z M79.813,28.363c2.457,0,4.979,2.097,4.979,5.679
			c0,3.642-2.517,5.648-5.033,5.648c-2.673,0-5.157-2.169-5.157-5.612C74.604,30.499,77.184,28.363,79.813,28.363L79.813,28.363z"/>
		<path id="path3011_1_" fill="#FFFFFF" d="M105.76,24.687c-4.724,0-8.693,3.761-8.693,9.309c0,5.872,4.424,9.354,9.148,9.354
			c3.944,0,6.366-2.158,7.809-4.091l-3.22-2.145c-0.836,1.297-2.234,2.565-4.567,2.565c-2.62,0-3.827-1.436-4.571-2.824
			l12.497-5.187l-0.649-1.52C112.306,27.173,109.49,24.688,105.76,24.687L105.76,24.687z M105.924,28.271
			c1.704,0,2.93,0.906,3.45,1.991l-8.348,3.491C100.667,31.05,103.228,28.271,105.924,28.271z"/>
		<path id="path3015_1_" fill="#FFFFFF" d="M91.11,42.796h4.104V15.321H91.11V42.796z"/>
	</g>
</g>
</svg>
