<?xml version="1.0" encoding="utf-8"?>
<!-- Generator: Adobe Illustrator 16.0.0, SVG Export Plug-In . SVG Version: 6.00 Build 0)  -->
<!DOCTYPE svg PUBLIC "-//W3C//DTD SVG 1.1//EN" "http://www.w3.org/Graphics/SVG/1.1/DTD/svg11.dtd">
<svg version="1.1" xmlns="http://www.w3.org/2000/svg" xmlns:xlink="http://www.w3.org/1999/xlink" x="0px" y="0px"
	 width="24.645px" height="22.042px" viewBox="0 0 24.645 22.042" enable-background="new 0 0 24.645 22.042" xml:space="preserve">
<g id="plantilla" display="none">
</g>
<g id="Capa_1">
	<path fill="#4D4D4D" d="M24.285,5.822l-5.46-5.462C18.594,0.129,18.281,0,17.956,0l0,0c-0.052,0-0.103,0.003-0.153,0.01
		C17.752,0.003,17.7,0,17.648,0H16.13c-0.417,0-0.805,0.211-1.03,0.561c-0.483,0.747-1.573,1.229-2.777,1.229
		c-1.203,0-2.293-0.482-2.775-1.229C9.32,0.211,8.932,0,8.516,0H6.998C6.945,0,6.894,0.003,6.843,0.01
		C6.473-0.037,6.088,0.092,5.82,0.36L0.359,5.822c-0.479,0.48-0.479,1.256,0,1.736l2.987,2.989c0.23,0.23,0.543,0.36,0.868,0.36
		c0.326,0,0.639-0.129,0.868-0.36L5.77,9.861v10.953c0,0.678,0.551,1.228,1.229,1.228h10.648c0.679,0,1.229-0.549,1.229-1.228V9.86
		l0.688,0.688c0.23,0.23,0.543,0.359,0.867,0.359c0,0,0,0,0.001,0c0.325,0,0.638-0.129,0.868-0.36l2.986-2.989
		C24.764,7.078,24.764,6.301,24.285,5.822z"/>
</g>
</svg>
