<?xml version="1.0" encoding="utf-8"?>
<!-- Generator: Adobe Illustrator 16.0.0, SVG Export Plug-In . SVG Version: 6.00 Build 0)  -->
<!DOCTYPE svg PUBLIC "-//W3C//DTD SVG 1.1//EN" "http://www.w3.org/Graphics/SVG/1.1/DTD/svg11.dtd">
<svg version="1.1" xmlns="http://www.w3.org/2000/svg" xmlns:xlink="http://www.w3.org/1999/xlink" x="0px" y="0px"
	 width="689.03px" height="617.721px" viewBox="0 0 689.03 617.721" enable-background="new 0 0 689.03 617.721"
	 xml:space="preserve">
<g id="plantilla">
</g>
<g id="Capa_1">
	<g>
		<g>
			<path fill="#66BB6A" d="M148.655,364.45c-1.584-6.401-9.283-10.073-21.118-10.073c-1.965,0-4.021,0.142-6.105,0.348
				c1.471,2.141,2.025,4.896,1.594,7.492c1.54-0.131,3.062-0.224,4.512-0.224c8.228,0,13.214,2.208,13.73,4.288
				c0.311,1.267-0.846,3.884-5.145,7.088c-4.664,3.477-11.372,6.418-18.885,8.28c-5.056,1.253-10.141,1.916-14.701,1.916
				c-8.224,0-13.21-2.206-13.729-4.284c-0.747-3.026,5.865-9.27,17.679-13.458c-1.393-2.227-1.806-5.042-1.251-7.636
				c-17.925,5.832-25.635,15.59-23.814,22.927c1.584,6.397,9.279,10.068,21.115,10.068c5.172,0,10.886-0.739,16.534-2.139
				c8.472-2.1,16.145-5.5,21.604-9.567C147.049,374.727,149.881,369.387,148.655,364.45z"/>
		</g>
		<g>
			<g>
				<path fill="#FF5252" d="M336.628,326.871l-36.989-26.201c-1.529-0.883-2.98-1.918-4.312-3.082
					c-5.938-5.18-9.346-12.663-9.346-20.521c0-15.012,12.212-27.227,27.229-27.227c9.947,0,18.669,5.363,23.418,13.351
					c4.752-7.988,13.468-13.351,23.418-13.351c15.014,0,27.225,12.214,27.225,27.227c0,7.862-3.403,15.342-9.342,20.521
					c-1.337,1.165-2.786,2.198-4.312,3.082L336.628,326.871z M313.21,257.457c-10.815,0-19.613,8.796-19.613,19.61
					c0,5.66,2.453,11.048,6.734,14.781c0.998,0.87,2.085,1.643,3.236,2.292l0.323,0.206l32.737,23.19l33.059-23.396
					c1.147-0.65,2.236-1.421,3.238-2.294c4.277-3.73,6.732-9.118,6.732-14.779c0-10.814-8.798-19.61-19.611-19.61
					c-10.812,0-19.609,8.796-19.609,19.61h-7.617C332.819,266.252,324.021,257.457,313.21,257.457z"/>
			</g>
			<g>
				<path fill="#42A5F5" d="M412.017,336.661h-149.54V232.705h149.54V336.661z M270.093,329.044H404.4v-88.725H270.093V329.044z"/>
			</g>
			<g>
				<path fill="#42A5F5" d="M418.493,349.989H255.512c-4.198,0-7.615-3.418-7.615-7.618V225.851c0-4.2,3.417-7.617,7.615-7.617
					h162.981c4.198,0,7.614,3.417,7.614,7.617v45.162h-7.614v-45.162H255.512v116.521h162.981V285.45h7.614v56.921
					C426.107,346.571,422.691,349.989,418.493,349.989z"/>
			</g>
			<g>
				<path fill="#42A5F5" d="M453.391,408.251H295.054v-7.618h155.29v-11.873l-32.618-38.772H260.332l-32.617,38.772v11.873h14.376
					v7.618h-17.425c-2.52,0-4.57-2.049-4.57-4.569v-15.548c0-1.304,0.547-2.792,1.381-3.793l33.68-40.03
					c0.984-1.178,2.621-1.94,4.164-1.94h159.418c1.543,0,3.177,0.763,4.167,1.944l33.67,40.023c0.843,1.005,1.383,2.493,1.383,3.796
					v15.548C457.958,406.203,455.91,408.251,453.391,408.251z"/>
			</g>
			<g>
				<g>
					<g>
						<path fill="#42A5F5" d="M239.665,386.277l2.685-3.144c3.899-4.563,5.946-6.804,9.047-10.192l1.455-1.597l15.01-0.058
							l0.017,3.809l-13.339,0.052l-0.332,0.363c-2.341,2.56-4,4.374-6.246,6.949l10.606-0.01l0.003,3.808L239.665,386.277z"/>
					</g>
					<g>
						<path fill="#42A5F5" d="M306.928,386.225l-0.005-3.808l7.561-0.013c0.751-3.121,1.288-5.111,2.002-7.509l-10.311,0.045
							l-0.019-3.809l15.469-0.065l-0.752,2.472c-1.233,4.044-1.853,6.192-3.034,11.204l-0.343,1.467L306.928,386.225z"/>
					</g>
					<g>
						<path fill="#42A5F5" d="M327.84,386.201l0.132-2.034c0.351-5.184,0.581-7.366,1.059-11.457l0.194-1.676l16.154-0.068
							l0.157,1.739c0.368,4.032,0.579,6.126,1.177,11.36l0.24,2.118L327.84,386.201z M332.619,374.828
							c-0.289,2.534-0.479,4.481-0.703,7.561l10.772-0.008c-0.349-3.115-0.552-5.098-0.782-7.591L332.619,374.828z"/>
					</g>
					<g>
						<path fill="#42A5F5" d="M357.256,386.175l-0.388-1.396c-0.933-3.373-1.521-5.467-2.116-7.59l-1.751-6.256l16.601-0.07
							l0.653,1.392c1.823,3.892,2.827,6.033,5.115,11.241l1.171,2.667L357.256,386.175z M358.015,374.719l0.403,1.438
							c0.51,1.817,1.012,3.618,1.732,6.207l10.553-0.007c-1.367-3.076-2.262-4.999-3.517-7.678L358.015,374.719z"/>
					</g>
					<g>
						<path fill="#42A5F5" d="M386.378,386.151l-0.55-0.958c-3.076-5.373-4.43-7.535-6.881-11.464l-1.812-2.897l17.731-0.072
							l0.577,0.754c3.099,4.074,4.762,6.259,8.471,11.641l2.059,2.981L386.378,386.151z M383.98,374.61
							c1.401,2.267,2.648,4.335,4.603,7.732l10.121-0.008c-2.174-3.078-3.638-5.02-5.718-7.763L383.98,374.61z"/>
					</g>
					<g>
						<path fill="#42A5F5" d="M415.186,386.128l-0.573-0.744c-4.179-5.429-6.023-7.599-9.37-11.537l-2.652-3.121l19.127-0.075
							l1.041,1.166c3.309,3.693,5.305,5.923,9.607,11.186l2.543,3.105L415.186,386.128z M410.787,374.502
							c1.885,2.246,3.59,4.35,6.27,7.816l9.797-0.009c-2.606-3.118-4.35-5.07-6.834-7.844L410.787,374.502z"/>
					</g>
					<g>
						<path fill="#42A5F5" d="M256.762,367.11l2.804-3.174c3.308-3.745,4.7-5.381,7.38-9.035l0.571-0.779l18.423-0.001l-2.197,3.022
							c-2.771,3.819-4.283,5.601-7.426,9.262l-0.569,0.661L256.762,367.11z M269.443,357.93c-1.568,2.115-2.763,3.606-4.257,5.355
							l8.811-0.023c1.792-2.09,3.034-3.563,4.405-5.332H269.443z"/>
					</g>
					<g>
						<path fill="#42A5F5" d="M283.045,367.048l2.428-3.09c2.751-3.5,4.133-5.258,6.637-8.992l0.568-0.845l15.532-0.001
							l-1.611,2.843c-2.112,3.726-3.276,5.481-5.589,8.98l-0.705,1.064L283.045,367.048z M294.702,357.93
							c-1.44,2.118-2.534,3.615-3.823,5.289l7.379-0.015c1.354-2.047,2.303-3.499,3.369-5.273H294.702z"/>
					</g>
					<g>
						<path fill="#42A5F5" d="M307.098,366.987l1.671-3.258c1.69-3.298,2.54-4.954,4.083-8.472l0.5-1.138l13.521-0.002l-0.669,2.415
							c-0.971,3.485-1.529,5.198-2.541,8.3l-0.691,2.111L307.098,366.987z M315.834,357.928c-0.917,2.049-1.635,3.523-2.504,5.236
							l6.876-0.019c0.642-1.968,1.101-3.387,1.636-5.219L315.834,357.928z"/>
					</g>
					<g>
						<path fill="#42A5F5" d="M329.757,366.925l0.524-3.837c0.351-2.523,0.58-4.196,0.932-7.281l0.191-1.688h12.752l0.277,4.04
							c0.153,2.313,0.264,3.934,0.464,6.688l0.148,2.037L329.757,366.925z M334.8,357.924c-0.231,1.955-0.425,3.377-0.678,5.181
							l6.829-0.018c-0.117-1.662-0.204-2.982-0.318-4.674l-0.036-0.489H334.8z"/>
					</g>
					<g>
						<path fill="#42A5F5" d="M351.893,366.864l-0.377-1.418c-0.924-3.47-1.355-5.141-2.253-8.994l-0.544-2.334h13.463l0.476,1.204
							c1.447,3.662,2.152,5.236,3.794,8.809l1.236,2.691L351.893,366.864z M353.521,357.924c0.45,1.874,0.809,3.269,1.298,5.124
							l6.945-0.019c-0.76-1.69-1.367-3.11-2.168-5.105H353.521z"/>
					</g>
					<g>
						<path fill="#42A5F5" d="M374.6,366.802l-0.559-0.908c-2.171-3.519-3.215-5.231-5.189-8.99l-1.46-2.787h15.454l0.555,0.888
							c2.328,3.69,3.48,5.244,6.088,8.714l2.288,3.04L374.6,366.802z M373.728,357.922c0.948,1.716,1.776,3.089,2.993,5.066
							l7.461-0.018c-1.157-1.585-2.134-3.009-3.437-5.048H373.728z"/>
					</g>
					<g>
						<path fill="#42A5F5" d="M399.187,366.74l-0.575-0.682c-2.902-3.48-4.297-5.176-6.897-8.96l-2.05-2.98l18.34-0.003l0.565,0.817
							c2.486,3.573,3.775,5.12,6.82,8.625l2.726,3.143L399.187,366.74z M396.967,357.922c1.235,1.668,2.348,3.028,3.997,5.006
							l8.86-0.021c-1.328-1.595-2.393-2.979-3.806-4.985H396.967z"/>
					</g>
				</g>
			</g>
		</g>
		<g>
			<g>
				<path fill="#4D4D4D" d="M485.799,270.668l-3.242-6.889c11.308-5.324,28.512-12.061,46.263-13.918l0.794,7.574
					C512.922,259.184,496.574,265.597,485.799,270.668z"/>
			</g>
			<g>
				
					<rect x="459.078" y="305.204" transform="matrix(0.4532 0.8914 -0.8914 0.4532 545.2903 -270.9509)" fill="#4D4D4D" width="68.858" height="7.614"/>
			</g>
			<g>
				<path fill="#E0E0E0" d="M65.296,132.177c-1.942-2.167-6.71-7.78-9.042-13.103l-0.747-1.706l0.886-1.635
					c0.241-0.448,6.047-11.02,15.847-16.53l3.73,6.639c-5.817,3.271-10.061,9.072-11.888,11.894
					c2.176,3.969,5.729,8.068,6.883,9.356L65.296,132.177z"/>
			</g>
			<g>
				<path fill="#FFCCBC" d="M222.401,82.177c-5.275-9.268-11.061-19.943-17.534-31.929l6.703-3.619
					c6.449,11.944,12.213,22.58,17.453,31.78L222.401,82.177z"/>
			</g>
			<g>
				<path fill="#FFCCBC" d="M187.013,102.775c-4.297-6.713-6.891-11.231-8.258-13.742l-13.092,1.368l-0.792-7.574l18.314-1.916
					l1.164,2.406c0.021,0.046,2.453,5.002,9.079,15.353L187.013,102.775z"/>
			</g>
			<g>
				<path fill="#E0E0E0" d="M73.767,112.526c-7.751-11.427-2.693-16.795-2.091-17.37c0.678-0.614,61.023-54.797,121.964-77.247
					l3.144-1.158l6.979,13.376l-6.755,3.523l-3.864-7.413C136.912,47.972,81.881,96.266,77.177,100.45
					c-0.262,0.767-0.169,3.288,2.893,7.804L73.767,112.526z"/>
			</g>
			<g>
				<path fill="#FF5252" d="M97.241,127.655c-7.367,0-17.471-2.706-23.744-15.598l-1.344-2.766l2.419-1.899
					c3.068-2.404,75.728-59.156,124.371-79.028l3.275-1.338l11.1,22.304l-3.711,1.587c-0.305,0.131-28.249,12.126-40.713,20.184
					c2.794,5.157,4.062,13.697-3.332,23.459l-0.479,0.633l-48.178,27.05C116.592,122.428,107.571,127.655,97.241,127.655z
					 M81.828,111.41c3.646,5.8,8.712,8.629,15.413,8.629c8.285,0,15.799-4.357,15.874-4.399l46.832-26.298
					c6.999-9.772,1.58-15.768,0.928-16.433l-3.004-3.052l3.346-2.661c8.867-6.898,32.496-17.614,41.699-21.67l-4.348-8.74
					C155.992,55.24,94.994,101.296,81.828,111.41z"/>
			</g>
			<g>
				<path fill="#FFCCBC" d="M454.153,23.367c-2.734-1.032-5.521-2.03-8.278-2.968l2.455-7.21c2.834,0.964,5.695,1.991,8.512,3.05
					L454.153,23.367z"/>
			</g>
			<g>
				<g>
					
						<rect x="502.301" y="286.386" transform="matrix(0.9792 0.2031 -0.2031 0.9792 69.5802 -97.6311)" fill="#FFCCBC" width="16.336" height="7.616"/>
				</g>
				<g>
					
						<rect x="504.528" y="274.649" transform="matrix(0.9792 0.203 -0.203 0.9792 67.2052 -98.2835)" fill="#FFCCBC" width="16.336" height="7.615"/>
				</g>
				<g>
					<path fill="#FFCCBC" d="M502.202,292.217c-5.288-1.014-8.77-6.144-7.761-11.437c1.018-5.292,6.141-8.78,11.438-7.762
						l-1.431,7.48c-1.155-0.221-2.301,0.545-2.528,1.713c-0.219,1.167,0.548,2.3,1.719,2.526L502.202,292.217z"/>
				</g>
			</g>
			<g>
				<path fill="#4D4D4D" d="M553.49,299.472c-0.504-4.808,1.082-8.917,3.539-9.176c2.457-0.257,4.857,3.435,5.361,8.246
					c0.502,4.811-1.08,8.92-3.539,9.176C556.395,307.976,553.994,304.283,553.49,299.472z"/>
			</g>
			<g>
				<path fill="#4D4D4D" d="M511.416,309.235c-0.5-4.813,1.083-8.921,3.541-9.176c2.455-0.258,4.856,3.433,5.359,8.246
					c0.502,4.808-1.08,8.918-3.538,9.175C514.321,317.735,511.92,314.044,511.416,309.235z"/>
			</g>
			<g>
				<path fill="#FFCCBC" d="M423.871,163.326c-3.092-1.727-5.989-3.05-8.167-3.731c-1.821-0.571-4.301-1.138-7.172-1.795
					c-2.21-0.505-4.633-1.062-7.192-1.714l1.889-7.38c2.489,0.638,4.851,1.177,7.005,1.669c3.026,0.693,5.646,1.292,7.749,1.954
					c2.693,0.841,6.017,2.346,9.602,4.346L423.871,163.326z"/>
			</g>
			<g>
				<path fill="#FF5252" d="M479.335,214.558c-7.659-7.08-12.9-12.354-15.579-15.675c-3.544-4.397-7.244-8.595-10.994-12.468
					l5.474-5.296c3.907,4.038,7.761,8.406,11.452,12.985c2.408,2.99,7.532,8.129,14.819,14.86L479.335,214.558z"/>
			</g>
			<g>
				<path fill="#FFCCBC" d="M418.455,190.636c-10.196-5.738-20.622-10.544-31.876-14.697c-8.785-3.242-19.119-4.645-32.756-6.274
					l0.904-7.562c14.159,1.692,24.923,3.163,34.487,6.692c11.639,4.293,22.425,9.267,32.975,15.205L418.455,190.636z"/>
			</g>
			<g>
				<path fill="#FF5252" d="M490.74,232.776c0.156-0.215,0.275-0.453,0.456-0.652c-4.891-2.401-9.92-5.442-15.026-9.298
					c-3.484-2.63-7.128-5.556-10.988-8.652c-1.479-1.185-2.986-2.397-4.533-3.629l-4.746,5.958c1.541,1.226,3.043,2.431,4.511,3.61
					c3.905,3.134,7.595,6.093,11.165,8.791c5.062,3.823,10.041,6.88,14.906,9.384C487.115,235.986,488.528,233.955,490.74,232.776z"
					/>
				<path fill="#FF5252" d="M567.279,85.671c-6.362-6.882-22.068-20.251-41.508-33.34l-4.253,6.319
					c21.8,14.676,35.808,27.476,40.167,32.192c11.72,12.674,36.097,39.048,37.549,86.408c0.571,18.622-7.188,33.856-23.058,45.281
					c-12.143,8.739-24.706,11.883-24.831,11.913l-0.446,0.107l-0.41,0.213c-0.248,0.131-18.55,9.314-43.501,3.154
					c0.183,2.667-0.594,5.4-2.369,7.364c7.07,1.82,13.679,2.524,19.609,2.524c15.952,0,27.047-4.952,29.371-6.083
					c5.314-1.458,54.728-16.352,53.247-64.707C605.305,126.811,579.622,99.025,567.279,85.671z"/>
			</g>
			<g>
				<path fill="#FFCCBC" d="M521.519,58.65c-21.826-14.693-45.12-26.896-67.365-35.285l2.688-7.126
					c23.113,8.717,46.304,20.861,68.93,36.092L521.519,58.65z"/>
			</g>
			<g>
				<path fill="#FFCCBC" d="M507.513,345.136c-2.026-3.9-3.728-8.001-5.049-12.187c-1.551-4.914-2.608-10.014-3.15-15.176
					c-1.052-10.056-0.144-20.034,2.703-29.656l7.303,2.16c-2.562,8.66-3.378,17.646-2.431,26.705
					c0.485,4.649,1.441,9.25,2.835,13.673c1.192,3.766,2.72,7.457,4.545,10.966L507.513,345.136z"/>
			</g>
			<g>
				<path fill="#FFCCBC" d="M513.484,279.583l-6.842-3.346c11.683-23.88,34.426-39.788,60.832-42.549
					c5.022-0.524,10.08-0.558,15.036-0.101l-0.696,7.584c-4.464-0.411-9.021-0.38-13.552,0.091
					C544.484,243.749,524.007,258.076,513.484,279.583z"/>
			</g>
			<g>
				<path fill="#FFCCBC" d="M176.635,123.499c-2.74-3.817-5.552-7.789-8.454-11.921l-14.942,1.562l-0.795-7.573l19.399-2.03
					l1.288,1.835c3.343,4.771,6.565,9.33,9.695,13.688L176.635,123.499z"/>
			</g>
			<g>
				<path fill="#FF5252" d="M95.549,146.23c-11.573,0-24.481-5.351-32.675-17.211l-1.811-2.62l13.174-13.1l5.372,5.4l-8.553,8.502
					c10.295,12.218,26.671,13.334,35.224,9.132c10.001-4.918,29.249-16.139,39.833-22.392c9.095-5.369,5.112-15.342,4.935-15.765
					l7.04-2.903c2.348,5.685,3.671,18.273-8.103,25.227c-10.676,6.305-30.113,17.638-40.347,22.667
					C105.559,145.176,100.683,146.23,95.549,146.23z"/>
			</g>
			<g>
				<path fill="#42A5F5" d="M285.867,205.336c-0.128,0-0.251,0-0.377,0c-43.357-0.243-67.599-24.325-108.855-81.837l-2.331-3.25
					l16.97-10.952c-1.486-2.234-2.907-4.409-4.261-6.522l-2.152-3.363l37.429-21.542c1.863-1.072,4.419-2.543,6.444,0.108
					l0.29,0.431c20.58,36.141,31.439,46.635,48.424,46.781c0.032,0,0.064,0,0.099,0c9.309,0,19.7-11.354,29.276-31.991
					c7.738-16.674,12.283-33.574,12.327-33.743c0.16-0.643,18.307-69.302,95.366-55.167c11.029,2.026,22.405,5.018,33.814,8.898
					l1.957,0.666l0.503,2.006c12.025,47.518-1.132,82.766-14.281,103.963c-12.259,19.754-26.503,31.099-30.712,34.2l-4.457,2.061
					l0,0c-7.227-1.851-17.396-4.947-26.144-11.055c-3.673,5.611-11.648,16.899-23.105,28.281
					C331,194.269,308.107,205.336,285.867,205.336z M185.16,122.307c38.243,52.952,61.149,75.192,100.371,75.414
					c0.114,0,0.229,0,0.338,0c25.427,0,47.047-16.125,60.728-29.688c15.163-15.027,24.221-30.336,24.312-30.49l2.283-3.885
					l3.45,2.896c7.419,6.226,17.029,9.558,24.333,11.555c3.17-2.32,17.361-13.333,29.232-32.579
					c17.521-28.408,22.127-60.628,13.698-95.791c-10.392-3.44-20.731-6.115-30.763-7.957c-29.49-5.407-53.005,1.285-69.906,19.893
					c-12.659,13.94-16.675,29.533-16.717,29.688c-1.964,7.372-19.879,71.438-48.971,71.443c-0.057,0-0.109-0.001-0.167-0.001
					c-21.609-0.186-34.65-15.423-53.073-47.311c-6.707,3.859-21.863,12.582-28.711,16.523c7.267,11.106,16.34,23.826,27.011,37.871
					c30.398,39.998,55.117,42.178,85.147,32.719c32.088-10.103,72.841-77.507,73.249-78.187l6.528,3.918
					c-1.723,2.877-42.675,70.571-77.492,81.534c-38.672,12.179-64.888,2.262-93.494-35.377
					c-7.887-10.375-14.912-20.044-20.999-28.894L185.16,122.307z"/>
			</g>
			<g>
				<path fill="#42A5F5" d="M426.992,130.66c-1.28-0.038-31.578-1.199-51.108-22.977l5.67-5.084
					c17.312,19.303,45.391,20.438,45.673,20.449L426.992,130.66z"/>
			</g>
			<g>
				<path fill="#42A5F5" d="M413.099,146.463c-2.506,0-26.007-0.674-46.716-25.077l5.809-4.928
					c19.122,22.533,40.799,22.399,40.946,22.39l0.146,7.613C413.248,146.463,413.187,146.463,413.099,146.463z"/>
			</g>
			<g>
				<path fill="#FF5252" d="M541.477,240.719c-12.518,0-20.571-3.678-21.548-9.836c-0.487-3.083,0.606-7.705,8.605-12.229
					c5.142-2.909,12.153-5.175,19.747-6.376c3.817-0.605,7.573-0.912,11.162-0.912c12.518,0,20.576,3.676,21.549,9.835
					c1.5,9.458-13.646,16.275-28.352,18.606C548.822,240.411,545.067,240.719,541.477,240.719z M559.443,218.98
					c-3.191,0-6.547,0.276-9.973,0.819c-6.614,1.049-12.881,3.047-17.186,5.484c-4.195,2.373-4.875,4.154-4.838,4.405
					c0.117,0.723,3.916,3.414,14.029,3.414c3.193,0,6.549-0.275,9.974-0.818c15.098-2.393,22.276-8.285,22.022-9.891
					C573.359,221.671,569.559,218.98,559.443,218.98z"/>
			</g>
			<g>
				
					<rect x="548.129" y="227.397" transform="matrix(0.2183 0.9759 -0.9759 0.2183 660.504 -362.1464)" fill="#FFCCBC" width="16.339" height="7.614"/>
			</g>
			<g>
				
					<rect x="536.52" y="230.206" transform="matrix(0.2184 0.9759 -0.9759 0.2184 654.1208 -348.6287)" fill="#FFCCBC" width="16.338" height="7.616"/>
			</g>
			<g>
				<path fill="#FF5252" d="M567.391,123.956l-6.561-3.873c3.505-5.932,6.85-12.22,9.965-18.722l-7.413-8.397
					c-2.642,5.131-7.269,13.637-13.673,23.574l-6.402-4.127c10.001-15.519,15.666-27.694,15.718-27.814l2.451-5.298l18.339,20.773
					l-1.058,2.26C575.244,109.856,571.421,117.132,567.391,123.956z"/>
			</g>
			<g>
				<path fill="#FF5252" d="M466.416,201.972l-13.777-15.689l5.721-5.027l11.127,12.671c7.281-1.289,34.93-7.894,63.315-36.842
					l5.438,5.333c-35.006,35.699-68.477,39.239-69.887,39.372L466.416,201.972z"/>
			</g>
			<g>
				<path fill="#FF5252" d="M455.648,187.575l-0.3-7.61c0.763-0.029,1.515-0.072,2.271-0.132l0.588,7.593
					C457.357,187.493,456.505,187.542,455.648,187.575z"/>
			</g>
			<g>
				<path fill="#FF5252" d="M458.208,187.426l-0.588-7.593c18.453-1.425,37.153-11.375,55.579-29.571l5.353,5.417
					C498.809,175.177,478.508,185.859,458.208,187.426z"/>
			</g>
			<g>
				<path fill="#FF5252" d="M461.555,176.346l-2.508-7.189c8.613-3.009,17.783-9.361,27.246-18.883l5.401,5.369
					C481.41,165.99,471.268,172.956,461.555,176.346z"/>
			</g>
			<g>
				<path fill="#FF5252" d="M525.415,110.668l-6.521-3.933c9.608-15.936,16.53-30.234,19.248-36.078l-12.586-9.088
					c-6.363,17.785-14.185,34.167-23.284,48.763l-6.464-4.031c9.612-15.417,17.764-32.922,24.228-52.033l1.652-4.889l25.941,18.736
					l-1.237,2.817C546.311,71.116,538.184,89.497,525.415,110.668z"/>
			</g>
			<g>
				<path fill="#FFCCBC" d="M454.689,214.812c-6.409-17.89-2.969-37.916,3.897-46.213c38.475-46.488,97.679-1.036,98.274-0.571
					l-4.691,5.999c-0.137-0.107-13.908-10.752-31.715-15.969c-23.1-6.77-41.943-1.589-56.001,15.396
					c-4.704,5.687-8.335,22.771-2.595,38.79L454.689,214.812z"/>
			</g>
			<g>
				<path fill="#FF5252" d="M570.375,234.895l3.916-10.325c0.494-1.173,0.242-1.552,0.121-1.733
					c-1.584-2.381-9.663-3.854-16.241-3.854h-11.906l9.607-6.91l51.263-36.514l-0.4,7.861
					c-1.339,26.369-25.609,44.892-26.643,45.668L570.375,234.895z M568.639,212.328c4.728,0.919,9.609,2.701,12.002,6.125
					c5.441-5.316,13.709-14.923,17.055-26.82L568.639,212.328z"/>
			</g>
			<g>
				<path fill="#FF5252" d="M486.539,237.824c-0.013,0-0.025,0-0.039,0l0.025-7.615c1.027,0.024,2.389-0.298,3.63-2.672l6.75,3.527
					C494.625,235.424,490.944,237.824,486.539,237.824z"/>
			</g>
			<g>
				<g>
					<path fill="#4D4D4D" d="M405.394,293.971c-1.475,0-2.812-0.731-3.539-1.986c-0.861-1.483-0.661-3.342,0.503-4.731
						l14.139-16.814l5.832,4.901l-7.844,9.327l11.52-2.078l1.351,7.496l-21.146,3.812
						C405.936,293.947,405.662,293.971,405.394,293.971z"/>
				</g>
				<g>
					<path fill="none" stroke="#FFD54F" stroke-width="7.6159" stroke-miterlimit="10" d="M478.57,240.788"/>
				</g>
				<g>
					<path fill="#FFD54F" d="M425.473,290.146c-0.02,0-0.037,0-0.056,0c-3.633-0.019-6.96-2.017-8.681-5.218l-1.672-3.113
						c-1.252-2.33-1.521-5.008-0.758-7.539c0.761-2.534,2.465-4.616,4.793-5.871l18.067-9.701l3.602,6.709l-18.064,9.703
						c-0.537,0.29-0.929,0.771-1.108,1.354c-0.176,0.585-0.11,1.203,0.177,1.74l1.675,3.112c0.397,0.743,1.167,1.204,2.007,1.207
						c0.004,0,0.01,0,0.013,0c0.372,0,0.744-0.095,1.077-0.273l18.212-9.786l3.607,6.709l-18.219,9.787
						C428.707,289.738,427.093,290.146,425.473,290.146z"/>
				</g>
			</g>
			<g>
				<path fill="none" d="M498.875,225.435c-0.019,0.079-0.046,0.17-0.064,0.251c0.316-0.134,0.623-0.293,0.944-0.394
					C499.458,225.338,499.173,225.39,498.875,225.435z"/>
				<path fill="none" d="M490.157,227.534c1.339-2.562,1.584-5.723,1.584-5.756l0.225-3.118l3.105-0.397
					c44.992-5.575,64.081-32.86,64.268-33.135l0.829-1.217l1.432-0.342c11.975-2.858,20.998-10.549,26.824-22.864
					c3.697-7.817,4.902-15.164,5.216-17.562l-3.933-10.342l-6.795,4.807c-3.069,23.728-22.154,33.541-27.07,35.697
					c-20.851,28.139-57.326,38.604-69.353,41.387c0.611,5.18-1.274,8.988-3.696,11.518l6.007,4.761l3.912-2.098L490.157,227.534z"/>
				<path fill="#FFD54F" d="M498.811,225.687c-0.352,1.589-0.936,3.521-1.908,5.378l-4.19-2.193l-3.912,2.098l0.08,0.062
					l-7.364,3.851l-4.748,2.55l3.602,6.709l21.256-11.414c0.537-0.289,1.158-0.352,1.737-0.175c0.584,0.175,1.065,0.569,1.354,1.107
					l1.675,3.116c0.287,0.537,0.351,1.154,0.173,1.736c-0.177,0.586-0.57,1.066-1.104,1.355l-21.801,11.708l3.605,6.709
					l21.795-11.708c2.332-1.251,4.033-3.334,4.798-5.866c0.764-2.533,0.494-5.21-0.758-7.54l-1.671-3.114
					c-1.252-2.331-3.339-4.033-5.869-4.797c-1.074-0.323-2.171-0.421-3.259-0.377c-0.839,0.144-1.688,0.279-2.545,0.41
					C499.434,225.393,499.127,225.552,498.811,225.687z"/>
				<path fill="#FF5252" d="M502.3,224.883c-0.861,0.035-1.718,0.149-2.545,0.41C500.611,225.162,501.461,225.027,502.3,224.883z"/>
				<polygon fill="#FF5252" points="488.8,230.97 481.516,234.882 488.88,231.032 				"/>
				<path fill="#FFD54F" d="M498.811,225.687c-0.263,0.115-0.535,0.196-0.791,0.332l-5.308,2.854l4.19,2.193
					C497.875,229.208,498.459,227.276,498.811,225.687z"/>
			</g>
			<g>
				<path fill="#FF5252" d="M593.333,120.907l-11.086,7.842c0.792,0.584,1.554,1.164,2.276,1.735l-4.72,5.979
					c-0.924-0.731-2.315-1.784-4.121-3.043l-0.158,1.715c-2.152,23.193-22.593,31.164-23.452,31.488l-1.088,0.404l-0.678,0.941
					c-22.673,31.502-68.586,39.959-69.047,40.042l-4.36,0.773l1.414,4.195c2.245,6.647-1.934,8.972-3.228,9.509l-6.223,2.396
					l12.631,10.012l0.021-0.013l7.284-3.912l-6.007-4.761c2.422-2.53,4.308-6.338,3.696-11.518
					c12.026-2.783,48.502-13.248,69.353-41.387c4.916-2.156,24.001-11.969,27.07-35.697l6.795-4.807l3.933,10.342
					c-0.313,2.397-1.519,9.745-5.216,17.562c-5.826,12.315-14.85,20.006-26.824,22.864l-1.432,0.342l-0.829,1.217
					c-0.187,0.275-19.275,27.561-64.268,33.135l-3.105,0.397l-0.225,3.118c0,0.033-0.245,3.194-1.584,5.756l2.555,1.338l5.308-2.854
					c0.256-0.136,0.528-0.217,0.791-0.332c0.019-0.082,0.046-0.173,0.064-0.251c0.298-0.045,0.583-0.097,0.88-0.143
					c0.827-0.26,1.684-0.375,2.545-0.41c39.142-6.787,58.223-28.767,62.443-34.254c32.915-8.873,36.546-47.258,36.582-47.65
					l0.071-0.865L593.333,120.907z"/>
				<path fill="#FFCCBC" d="M582.247,128.749c-23.442-17.322-76.292-39.85-123.732-10.714
					c-21.744,13.356-35.214,30.991-40.036,52.414c-8.441,37.524,12.247,74.173,16.717,81.506
					c-2.502,17.52,7.392,27.175,14.701,30.761l0.456,6.738l0.138,0.794c0.366,1.273,1.521,2.858,3.674,3.481
					c0.576,0.166,1.226,0.281,2.002,0.281c3.658-0.001,10.002-2.589,23.418-14.513c6.654-5.911,10.049-12.71,10.096-20.208
					c0.09-14.056-11.88-25.127-12.391-25.592l-0.169-0.147c-7.118-5.753-12.254-12.922-15.261-21.308l-7.17,2.569
					c3.469,9.68,9.369,17.948,17.534,24.577c0.874,0.823,9.905,9.617,9.84,19.854c-0.03,5.249-2.567,10.147-7.536,14.563
					c-9.538,8.476-14.498,11.243-16.778,12.142l-0.581-8.627l-2.409-0.812c-0.63-0.213-15.271-5.396-11.827-24.691l0.264-1.484
					l-0.82-1.262c-0.249-0.386-25.012-39.091-16.454-76.994c4.358-19.323,16.669-35.322,36.581-47.551
					c19.428-11.935,42.58-15.659,66.969-10.77c21.886,4.389,38.209,14.085,46.212,19.664l0.003-0.029L582.247,128.749z"/>
				<path fill="#FF5252" d="M584.523,130.483c-0.723-0.571-1.484-1.151-2.276-1.735l-6.562,4.642l-0.003,0.029
					c1.806,1.259,3.197,2.312,4.121,3.043L584.523,130.483z"/>
			</g>
			<g>
				<path fill="#4D4D4D" d="M577.966,395.113L577.966,395.113c-50.991,0-77.432-43.096-78.532-44.931l-1.513-2.521l2.057-2.101
					c18.862-19.275,68.369-25.435,82.456-26.826l-4.585-91.359l4.024,0.02c52.517,0.273,93.318,32.708,95.028,34.088l1.419,1.142
					v1.822c0,96.394-55.596,120.209-57.963,121.178C605.948,391.91,591.658,395.113,577.966,395.113z M507.673,348.801
					c6.386,8.977,30.538,38.695,70.293,38.695c12.642,0,25.905-2.989,39.43-8.886c0.6-0.249,52.583-22.868,53.302-112.284
					c-7.343-5.447-42.144-29.559-84.836-31.225l4.547,90.621L586.705,326C586.11,326.045,529.318,330.501,507.673,348.801z"/>
			</g>
		</g>
		<g>
			<g>
				<path fill="#FFD54F" d="M159.959,461.33l-7.18-2.531l4.443-12.629c0.631-1.785,2.316-3.121,4.194-3.323l12.394-1.331
					l-9.905-7.564c-1.503-1.154-2.251-3.168-1.864-5.017l2.568-12.198l-10.254,7.078c-1.553,1.081-3.703,1.167-5.353,0.221
					l-10.802-6.208l3.563,11.944c0.539,1.811-0.04,3.883-1.442,5.154l-9.246,8.359l12.46,0.302c1.892,0.049,3.681,1.236,4.454,2.958
					l5.084,11.353l-6.952,3.112l-4.413-9.849l-19.596-0.476c-1.789-0.044-3.264-1.06-3.851-2.645
					c-0.591-1.588-0.132-3.317,1.192-4.516l14.542-13.149l-5.608-18.785c-0.511-1.707-0.003-3.425,1.327-4.476
					c1.332-1.054,3.12-1.153,4.669-0.261l16.995,9.762l16.13-11.134c1.469-1.015,3.261-1.064,4.668-0.125
					c1.414,0.938,2.062,2.603,1.695,4.352l-4.04,19.188l15.581,11.899c1.42,1.091,2.015,2.775,1.557,4.406
					c-0.458,1.629-1.841,2.759-3.613,2.95l-19.496,2.092L159.959,461.33z"/>
			</g>
			<g>
				<path fill="#E0E0E0" d="M576.206,543.565l-3.554-6.735c9.106-4.806,12.564-9.681,13.682-11.694
					c-2.833-7.979-7.525-13.693-13.965-16.995c-13.17-6.751-29.431-1.587-29.592-1.538l-2.355-7.241
					c0.787-0.257,19.468-6.18,35.422,2.002c8.671,4.446,14.796,12.124,18.205,22.821l0.356,1.123l-0.337,1.127
					C593.789,527.373,590.902,535.811,576.206,543.565z"/>
			</g>
			<g>
				<path fill="#FFCCBC" d="M431.623,584.095c-5.188-12.588-9.831-23.788-14.052-33.422l6.972-3.061
					c4.259,9.707,8.912,20.95,14.119,33.58L431.623,584.095z"/>
			</g>
			<g>
				<path fill="#FFCCBC" d="M481.833,552.953h-18.415l-0.908-2.516c-0.016-0.048-1.916-5.232-7.431-16.212l6.806-3.417
					c3.575,7.124,5.686,11.887,6.786,14.529h13.162V552.953z"/>
			</g>
			<g>
				<path fill="#E0E0E0" d="M443.221,615.347l-5.549-14.031l7.082-2.802l3.074,7.777c58.123-15.75,117.809-57.985,123.039-61.737
					c0.266-0.665,1.224-4.483-6.032-14.205c-9.231-12.388-33.472-2.334-33.714-2.23l-2.977-7.012
					c1.217-0.516,29.99-12.491,42.799,4.692c12.762,17.109,6.289,23.479,4.863,24.582c-0.736,0.541-66.395,48.153-129.338,64.141
					L443.221,615.347z"/>
			</g>
			<g>
				<path fill="#66BB6A" d="M438.883,604.56l-8.721-23.334l3.856-1.192c0.317-0.099,29.354-9.124,42.591-15.841
					c-2.242-5.418-2.617-14.045,5.751-22.981l0.545-0.58l50.726-21.891l3.484,6.751c-0.488,0.311-12.616,8.312-4.74,29.967
					l0.955,2.626l-2.217,1.696c-1.535,1.18-38.212,29.038-88.833,43.791L438.883,604.56z M440.112,586.091l3.419,9.156
					c40.805-12.542,72.397-33.922,80.764-39.91c-3.268-10.472-2.526-18.366-0.451-24.08l-36.439,15.728
					c-8.263,9.31-2.896,15.928-2.656,16.211l2.822,3.363l-3.727,2.318C474.303,574.814,449.687,583.013,440.112,586.091z"/>
			</g>
			<g>
				<path fill="#42A5F5" d="M254.521,609.586c-8.75,0-18.439-1.35-29.15-4.495c-13.405-3.938-27.147-9.416-40.854-16.284
					l3.418-6.809c13.295,6.665,26.611,11.978,39.583,15.785c68.224,20.031,90.401-37.831,91.312-40.305
					c2.724-7.138,27.364-69.178,56.3-65.939c21.474,2.432,32.861,18.944,47.864,52.577c7.066-3.14,23.049-10.242,30.271-13.452
					c-6.09-11.833-13.787-25.425-22.925-40.472c-26.073-42.944-50.417-47.679-81.282-41.4
					c-32.946,6.707-80.508,69.511-80.984,70.145l-6.086-4.577c2.014-2.683,49.785-65.75,85.551-73.033
					c39.729-8.087,64.78,4.502,89.312,44.912c10.168,16.748,18.59,31.741,25.033,44.568l1.715,3.412l-5.964,2.838
					c-3.813,1.695-11.613,5.16-18.887,8.392l-11.235,4.99c-6.809,3.028-6.802,3.021-8.535,1.896l-0.951-0.618l-0.456-1.044
					c-16.709-38.09-26.423-49.656-43.3-51.565c-9.259-1.061-20.801,9.138-32.494,28.684c-9.439,15.774-15.75,32.195-15.814,32.357
					C325.77,560.68,307.207,609.586,254.521,609.586z"/>
			</g>
			<g>
				<path fill="#66BB6A" d="M301.25,454.357c-12.63-2.867-23.539-6.178-33.339-10.125l2.842-7.065
					c9.425,3.792,19.951,6.987,32.187,9.763L301.25,454.357z"/>
			</g>
			<g>
				<path fill="#FFCCBC" d="M290.486,412.885l-5.227-5.536c2.596-2.452,5.303-4.381,7.691-6.085
					c6.172-4.395,10.247-7.3,10.414-16.188c0.154-8.149-9.331-10.967-9.43-10.996c-23.079-6.884-38.67,14.063-45.906,27.164
					l-6.665-3.681c19.438-35.195,42.62-34.4,54.711-30.791c5.225,1.5,15.114,7.301,14.905,18.449
					c-0.24,12.717-7.036,17.561-13.607,22.245C295.076,409.104,292.699,410.795,290.486,412.885z"/>
			</g>
			<g>
				<g>
					
						<rect x="151.505" y="306.955" transform="matrix(0.9527 0.3038 -0.3038 0.9527 101.9628 -33.8221)" fill="#FFCCBC" width="16.337" height="7.613"/>
				</g>
				<g>
					
						<rect x="148.07" y="318.397" transform="matrix(0.9527 0.3038 -0.3038 0.9527 105.2686 -32.2371)" fill="#FFCCBC" width="16.343" height="7.614"/>
				</g>
				<g>
					<path fill="#FFCCBC" d="M165.276,328.738c-0.934,0-1.886-0.134-2.824-0.419l2.206-7.29c1.133,0.345,2.345-0.304,2.688-1.441
						s-0.302-2.343-1.442-2.687l2.203-7.291c2.501,0.756,4.552,2.438,5.787,4.741c1.232,2.299,1.494,4.94,0.742,7.441
						C173.357,326.011,169.468,328.738,165.276,328.738z"/>
				</g>
			</g>
			<g>
				<path fill="#4D4D4D" d="M117.855,297.057c0,4.838-2.005,8.76-4.477,8.76c-2.47,0-4.477-3.921-4.477-8.76
					c0-4.835,2.007-8.757,4.477-8.757C115.851,288.3,117.855,292.222,117.855,297.057z"/>
			</g>
			<g>
				<ellipse fill="#4D4D4D" cx="156.241" cy="291.726" rx="4.475" ry="8.758"/>
			</g>
			<g>
				<path fill="#66BB6A" d="M217.762,441.218c-7.869-5.704-22.192-22.129-27.547-30.696c-4.825-7.722-21.578-25.639-21.748-25.82
					l5.559-5.205c0.712,0.758,17.432,18.646,22.646,26.989c4.802,7.678,18.577,23.501,25.562,28.562L217.762,441.218z"/>
			</g>
			<g>
				<path fill="#66BB6A" d="M152.788,506.119c-78.278,0.011-99.628-63.105-99.842-63.771l7.245-2.346
					c0.854,2.608,21.891,63.917,103.024,58.124c35.951-2.567,84.729-18.157,112.967-77.846c0.369-0.78,0.676-1.428,0.925-1.93
					c1.416-2.855,3.964-6.137,5.801-8.333c-3.84-3.996-14.412-11.812-35.689-7.278c-2.63,4.965-3.99,8.578-4.004,8.616
					c-0.217,0.563-20.92,52.745-79.219,52.745c-58.059,0-76.778-36.615-77.547-38.173l6.824-3.38
					c0.693,1.386,17.615,33.937,70.723,33.937c52.973,0,71.342-45.875,72.099-47.827c0.055-0.153,1.809-4.844,5.27-11.094
					l0.811-1.475l1.641-0.388c35.039-8.311,47.441,12.655,47.538,12.876l1.014,2.289l-1.699,1.838
					c-1.354,1.465-5.205,5.944-6.741,9.035c-0.232,0.467-0.521,1.072-0.859,1.797c-29.812,63.016-81.336,79.476-119.31,82.188
					C159.987,505.992,156.322,506.119,152.788,506.119z"/>
			</g>
			<g>
				<path fill="#FFCCBC" d="M167.865,313.708l-7.039-2.908c3.45-8.344,5.201-17.194,5.201-26.306c0-4.677-0.848-19.223-5.312-26.527
					l6.464-4.407c5.165,10.165,6.463,25.743,6.463,30.934C173.643,294.608,171.698,304.438,167.865,313.708z"/>
			</g>
			<g>
				<path fill="#FFCCBC" d="M496.555,531.627h-19.502l-1.088-1.958c-2.83-5.093-5.562-9.964-8.221-14.621l6.615-3.774
					c2.327,4.081,4.713,8.325,7.173,12.736h15.022V531.627z"/>
			</g>
			<g>
				<path fill="#66BB6A" d="M121.166,359.835c12.317-2.373,38.88-3.459,65.613,21.494c6.221,5.804,11.734,11.205,17.066,16.43
					c9.918,9.711,18.481,18.097,28.054,25.632l4.712-5.985c-9.247-7.28-17.676-15.533-27.433-25.089
					c-5.369-5.255-10.917-10.689-17.202-16.553c-27.988-26.124-56.078-26.114-70.594-23.688
					C122.293,354.559,122.208,357.416,121.166,359.835z"/>
				<path fill="#66BB6A" d="M279.199,477.873l-5.996-4.699c0.092-0.116,0.584-0.737,1.434-1.759
					c-7.695-1.69-16.712-9.001-19.755-11.908l-5.267,5.498c0.496,0.479,10.951,10.402,21.903,13.484
					c-4.168,14.773-23.41,69.943-85.32,102.631c-48.747-24.891-87.763-63.458-98.192-77.414
					c-10.336-13.824-31.842-42.588-28.36-89.847c1.372-18.58,10.673-32.921,27.644-42.637c7.508-4.297,14.949-6.708,19.926-7.989
					c-2.095-1.681-3.199-4.274-3.342-6.939c-15.834,4.447-48.971,18.323-51.822,57.009c-3.69,50.096,18.964,80.399,29.853,94.965
					c7.345,9.826,46.288,52.292,102.614,80.539l1.416,0.708l3.147-1.303c71.653-37.458,88.64-102.209,90.644-110.985
					C279.413,477.601,279.224,477.84,279.199,477.873z"/>
				<path fill="#42A5F5" d="M474.359,511.274c-35.049-61.492-56.654-87.964-99.749-92.714c-22.2-2.45-46.817,6.273-71.19,25.224
					c-14.742,11.462-25.125,23.253-28.783,27.631c0.646,0.144,1.287,0.259,1.911,0.315l4.232,0.385l-0.849,4.165
					c-0.027,0.144-0.104,0.492-0.207,0.945c5.119-6.236,47.755-56.191,94.049-51.094c38.987,4.297,59.456,28.801,91.985,85.443
					l-14.34,7.264l3.442,6.795l21.48-10.883L474.359,511.274z"/>
				<path fill="#66BB6A" d="M280.78,472.115l-4.232-0.385c-0.624-0.056-1.265-0.172-1.911-0.315
					c-0.85,1.022-1.342,1.644-1.434,1.759l5.996,4.699c0.024-0.033,0.214-0.271,0.525-0.647c0.104-0.453,0.18-0.801,0.207-0.945
					L280.78,472.115z"/>
			</g>
			<g>
				<path fill="#66BB6A" d="M489.869,541.276c-1.743-5.897-1.747-18.557,10.686-24.247c10.273-4.704,40.13-18.183,40.13-18.183
					c1.685-0.763,3.673-0.2,4.713,1.327c1.04,1.526,0.832,3.584-0.493,4.872c-0.125,0.125-13.048,12.894-12.533,24.817l-7.608,0.328
					c-0.281-6.533,2.247-12.937,5.296-18.188c-9.24,4.183-20.714,9.38-26.336,11.953c-9.331,4.271-6.857,14.08-6.547,15.184
					L489.869,541.276z"/>
			</g>
			<g>
				<polygon fill="#FFCCBC" points="105.123,373.22 103.231,355.39 110.795,356.107 112.689,372.337 				"/>
			</g>
			<g>
				<polygon fill="#FFCCBC" points="116.961,371.633 115.07,355.404 122.699,351.073 124.529,370.752 				"/>
			</g>
			<g>
				<path fill="#FFCCBC" d="M39.096,334.588c1.599-0.625,3.254-1.329,4.979-2.126l3.194,6.916c-0.867,0.398-1.698,0.74-2.538,1.1
					c13.765,12.888,32.24,20.554,52.37,20.554c26.552,0,50.822-13.456,64.93-35.991l-6.458-4.039
					c-12.704,20.297-34.562,32.414-58.472,32.414c-31.411,0-58.354-20.717-66.498-50.731c-2.41,1.281-4.683,2.554-6.813,3.82
					C26.941,317.099,32.217,326.6,39.096,334.588z"/>
				<path fill="#FF5252" d="M22.477,301.574c0.383,1.67,0.832,3.31,1.313,4.93c2.131-1.266,4.403-2.539,6.813-3.82
					c-0.254-0.926-0.484-1.86-0.703-2.804L22.477,301.574z"/>
				<path fill="#FFCCBC" d="M44.075,332.462c-1.726,0.798-3.381,1.501-4.979,2.126c1.777,2.063,3.654,4.035,5.636,5.889
					c0.84-0.36,1.671-0.702,2.538-1.1L44.075,332.462z"/>
				<g>
					<path fill="#4C4C4C" d="M26.49,313.405l-3.002-5.114c-12.194-20.836-15.684-38.2-10.369-51.61
						c4.356-10.992,13.37-15.94,17.501-17.698c4.887-26.023,20.271-39.216,45.755-39.216c13.43,0,27.408,3.555,38.638,6.411
						l3.702,0.936c2.703,0.677,5.479,1.02,8.248,1.02c0,0,0.002,0,0.003,0c21.104-0.002,37.373-19.542,37.533-19.739l2.798-3.411
						l2.721,3.472c10.391,13.269,12.92,35.625,5.883,52.002c-5.838,13.585-17.497,21.869-32.83,23.326
						c-4.26,0.404-8.615,0.61-12.942,0.61c-26.896,0-47.235-7.695-53.626-10.437c-15.48,13.777-9.465,46.58-9.399,46.92
						l1.974,10.386l-7.822-7.107c-5.022-4.564-9.957-6.877-14.661-6.877c-10.21,0-16.958,10.94-17.024,11.05L26.49,313.405z
						 M76.375,206.838c-22.773,0-35.207,11.22-39.131,35.309l-0.357,2.194l-2.131,0.628c-0.426,0.13-10.79,3.395-15.103,14.416
						c-4.043,10.335-1.571,24.011,7.341,40.7c3.787-4.245,10.523-9.877,19.599-9.877c4.18,0,8.366,1.207,12.511,3.597
						c-0.986-12.473-0.471-35.547,14.765-46.808l1.722-1.272l1.929,0.936c0.22,0.107,22.298,10.662,52.609,10.662
						c4.106,0,8.235-0.193,12.272-0.578c16.204-1.54,23.629-11.224,27.004-19.078c5.41-12.598,4.163-29.882-2.588-41.364
						c-6.234,6.274-21.104,18.899-39.851,18.901c-0.001,0-0.003,0-0.003,0c-3.348,0-6.701-0.413-9.966-1.229l-3.728-0.943
						C102.421,210.272,88.921,206.838,76.375,206.838z"/>
				</g>
			</g>
		</g>
	</g>
</g>
</svg>
