<?xml version="1.0" encoding="utf-8"?>
<!-- Generator: Adobe Illustrator 16.0.0, SVG Export Plug-In . SVG Version: 6.00 Build 0)  -->
<!DOCTYPE svg PUBLIC "-//W3C//DTD SVG 1.1//EN" "http://www.w3.org/Graphics/SVG/1.1/DTD/svg11.dtd">
<svg version="1.1" xmlns="http://www.w3.org/2000/svg" xmlns:xlink="http://www.w3.org/1999/xlink" x="0px" y="0px"
	 width="689.03px" height="617.721px" viewBox="0 0 689.03 617.721" enable-background="new 0 0 689.03 617.721"
	 xml:space="preserve">
<g id="plantilla">
</g>
<g id="Capa_1">
	<g>
		<g>
			<path fill="#66BB6A" d="M157.301,364.275c-1.579-6.381-9.253-10.04-21.053-10.04c-1.957,0-4.008,0.14-6.087,0.348
				c1.467,2.134,2.02,4.881,1.591,7.467c1.534-0.132,3.05-0.223,4.496-0.223c8.201,0,13.172,2.201,13.687,4.274
				c0.311,1.264-0.842,3.873-5.127,7.066c-4.65,3.467-11.336,6.398-18.826,8.255c-5.041,1.25-10.107,1.909-14.655,1.909
				c-8.199,0-13.17-2.201-13.684-4.272c-0.746-3.016,5.845-9.242,17.621-13.417c-1.387-2.22-1.802-5.025-1.247-7.612
				c-17.868,5.815-25.555,15.544-23.74,22.855c1.579,6.38,9.252,10.038,21.05,10.038c5.154,0,10.853-0.737,16.481-2.132
				c8.446-2.094,16.096-5.481,21.538-9.537C155.698,374.521,158.523,369.2,157.301,364.275z"/>
		</g>
		<g>
			<g>
				<path fill="#FF5252" d="M344.688,326.813l-36.873-26.12c-1.525-0.879-2.973-1.912-4.299-3.07
					c-5.922-5.166-9.318-12.623-9.318-20.459c0-14.965,12.176-27.141,27.145-27.141c9.918,0,18.61,5.347,23.346,13.309
					c4.736-7.962,13.427-13.309,23.346-13.309c14.967,0,27.142,12.176,27.142,27.141c0,7.838-3.394,15.295-9.313,20.459
					c-1.334,1.161-2.78,2.192-4.301,3.07L344.688,326.813z M321.343,257.615c-10.781,0-19.553,8.769-19.553,19.549
					c0,5.643,2.448,11.015,6.715,14.737c0.994,0.866,2.079,1.636,3.227,2.284l0.322,0.206l32.635,23.117l32.957-23.323
					c1.143-0.647,2.229-1.416,3.228-2.286c4.263-3.721,6.71-9.091,6.71-14.736c0-10.78-8.77-19.549-19.549-19.549
					s-19.55,8.769-19.55,19.549h-7.593C340.892,266.384,332.121,257.615,321.343,257.615z"/>
			</g>
			<g>
				<path fill="#42A5F5" d="M419.844,336.573H270.767V232.941h149.077V336.573z M278.358,328.981h133.893v-88.449H278.358V328.981z"
					/>
			</g>
			<g>
				<path fill="#42A5F5" d="M426.298,349.859H263.824c-4.186,0-7.592-3.406-7.592-7.592v-116.16c0-4.186,3.406-7.592,7.592-7.592
					h162.474c4.186,0,7.592,3.406,7.592,7.592v45.023h-7.592v-45.023H263.824v116.16h162.474v-56.746h7.592v56.746
					C433.89,346.453,430.483,349.859,426.298,349.859z"/>
			</g>
			<g>
				<path fill="#42A5F5" d="M461.088,407.941H303.243v-7.592h154.809v-11.837l-32.517-38.653H268.63l-32.517,38.653v11.837h14.334
					v7.592h-17.372c-2.512,0-4.555-2.043-4.555-4.555v-15.5c0-1.299,0.541-2.783,1.377-3.779l33.572-39.906
					c0.982-1.174,2.615-1.934,4.15-1.934h158.923c1.537,0,3.169,0.76,4.155,1.937l33.564,39.898c0.84,1.001,1.381,2.484,1.381,3.784
					v15.5C465.644,405.898,463.6,407.941,461.088,407.941z"/>
			</g>
			<g>
				<g>
					<g>
						<path fill="#42A5F5" d="M248.028,386.036l2.677-3.135c3.888-4.548,5.929-6.781,9.018-10.16l1.451-1.59l14.963-0.058
							l0.016,3.796l-13.297,0.052l-0.332,0.361c-2.333,2.552-3.986,4.361-6.226,6.929l10.573-0.01l0.004,3.796L248.028,386.036z"/>
					</g>
					<g>
						<path fill="#42A5F5" d="M315.081,385.983l-0.005-3.796l7.536-0.012c0.749-3.111,1.286-5.095,1.997-7.485l-10.28,0.044
							l-0.018-3.796l15.42-0.066l-0.748,2.463c-1.23,4.034-1.848,6.173-3.024,11.17l-0.342,1.462L315.081,385.983z"/>
					</g>
					<g>
						<path fill="#42A5F5" d="M335.927,385.96l0.134-2.027c0.349-5.166,0.578-7.342,1.054-11.422l0.195-1.67l16.104-0.068
							l0.157,1.735c0.366,4.02,0.575,6.106,1.17,11.325l0.24,2.111L335.927,385.96z M340.692,374.623
							c-0.287,2.525-0.478,4.467-0.701,7.537l10.739-0.009c-0.349-3.105-0.55-5.081-0.78-7.567L340.692,374.623z"/>
					</g>
					<g>
						<path fill="#42A5F5" d="M365.254,385.934l-0.387-1.392c-0.931-3.361-1.519-5.452-2.111-7.567l-1.744-6.236l16.548-0.071
							l0.652,1.39c1.817,3.877,2.819,6.013,5.098,11.203l1.17,2.66L365.254,385.934z M366.009,374.514l0.402,1.435
							c0.508,1.812,1.01,3.604,1.729,6.188l10.52-0.009c-1.363-3.064-2.256-4.982-3.507-7.653L366.009,374.514z"/>
					</g>
					<g>
						<path fill="#42A5F5" d="M394.284,385.911l-0.548-0.955c-3.067-5.357-4.415-7.514-6.859-11.429l-1.808-2.889l17.678-0.074
							l0.574,0.753c3.09,4.062,4.746,6.239,8.445,11.604l2.051,2.972L394.284,385.911z M391.896,374.405
							c1.396,2.259,2.639,4.321,4.588,7.708l10.089-0.009c-2.165-3.069-3.626-5.004-5.7-7.736L391.896,374.405z"/>
					</g>
					<g>
						<path fill="#42A5F5" d="M423.002,385.887l-0.571-0.741c-4.166-5.413-6.004-7.576-9.341-11.501l-2.644-3.111l19.067-0.072
							l1.038,1.16c3.297,3.683,5.287,5.905,9.578,11.151l2.535,3.097L423.002,385.887z M418.616,374.298
							c1.879,2.238,3.582,4.336,6.251,7.791l9.767-0.008c-2.598-3.107-4.336-5.053-6.812-7.818L418.616,374.298z"/>
					</g>
					<g>
						<path fill="#42A5F5" d="M265.071,366.928l2.793-3.164c3.299-3.734,4.688-5.366,7.357-9.008l0.569-0.776l18.366-0.001
							l-2.189,3.014c-2.764,3.807-4.269,5.581-7.403,9.231l-0.567,0.659L265.071,366.928z M277.712,357.777
							c-1.563,2.107-2.753,3.594-4.242,5.336l8.782-0.021c1.788-2.084,3.027-3.553,4.393-5.316L277.712,357.777z"/>
					</g>
					<g>
						<path fill="#42A5F5" d="M291.274,366.867l2.418-3.08c2.742-3.491,4.121-5.244,6.617-8.965l0.564-0.841l15.484-0.001
							l-1.606,2.834c-2.104,3.712-3.264,5.464-5.572,8.953l-0.7,1.058L291.274,366.867z M302.894,357.777
							c-1.436,2.113-2.525,3.602-3.811,5.275l7.354-0.018c1.348-2.041,2.296-3.487,3.36-5.258L302.894,357.777z"/>
					</g>
					<g>
						<path fill="#42A5F5" d="M315.251,366.808l1.665-3.249c1.685-3.289,2.532-4.939,4.071-8.445l0.498-1.134l13.478-0.002
							l-0.668,2.406c-0.966,3.477-1.523,5.181-2.533,8.276l-0.687,2.104L315.251,366.808z M323.96,357.775
							c-0.916,2.044-1.63,3.512-2.496,5.22l6.854-0.02c0.64-1.961,1.096-3.375,1.632-5.201L323.96,357.775z"/>
					</g>
					<g>
						<path fill="#42A5F5" d="M337.84,366.744l0.523-3.824c0.349-2.516,0.577-4.184,0.926-7.258l0.191-1.685h12.713l0.274,4.027
							c0.156,2.307,0.266,3.922,0.465,6.667l0.15,2.031L337.84,366.744z M342.866,357.772c-0.231,1.947-0.424,3.364-0.674,5.164
							l6.807-0.019c-0.117-1.656-0.204-2.973-0.318-4.659l-0.034-0.486H342.866z"/>
					</g>
					<g>
						<path fill="#42A5F5" d="M359.905,366.683l-0.376-1.414c-0.92-3.458-1.351-5.126-2.245-8.963l-0.542-2.329h13.42l0.476,1.2
							c1.442,3.649,2.145,5.22,3.781,8.781l1.232,2.684L359.905,366.683z M361.53,357.772c0.449,1.867,0.805,3.257,1.291,5.107
							l6.926-0.02c-0.758-1.686-1.364-3.102-2.162-5.087H361.53z"/>
					</g>
					<g>
						<path fill="#42A5F5" d="M382.543,366.622l-0.558-0.904c-2.164-3.507-3.205-5.215-5.172-8.962l-1.458-2.781h15.405l0.557,0.887
							c2.318,3.678,3.468,5.229,6.069,8.688l2.278,3.03L382.543,366.622z M381.671,357.771c0.947,1.708,1.773,3.077,2.986,5.048
							l7.438-0.018c-1.152-1.58-2.129-3-3.427-5.03H381.671z"/>
					</g>
					<g>
						<path fill="#42A5F5" d="M407.051,366.562l-0.57-0.683c-2.894-3.467-4.284-5.159-6.876-8.931l-2.045-2.974l18.283-0.001
							l0.565,0.814c2.478,3.563,3.763,5.104,6.796,8.598l2.719,3.134L407.051,366.562z M404.841,357.771
							c1.231,1.663,2.34,3.019,3.983,4.991l8.832-0.021c-1.322-1.591-2.383-2.972-3.793-4.972L404.841,357.771z"/>
					</g>
				</g>
			</g>
		</g>
		<g>
			<g>
				<path fill="#4D4D4D" d="M493.397,270.787l-3.234-6.869c11.273-5.306,28.424-12.021,46.12-13.874l0.79,7.55
					C520.435,259.337,504.139,265.73,493.397,270.787z"/>
			</g>
			<g>
				
					<rect x="466.759" y="305.215" transform="matrix(0.4532 0.8914 -0.8914 0.4532 549.4389 -277.702)" fill="#4D4D4D" width="68.644" height="7.591"/>
			</g>
			<g>
				<path fill="#CFD8DC" d="M74.2,132.726c-1.936-2.16-6.689-7.757-9.014-13.062l-0.746-1.701l0.885-1.63
					c0.24-0.446,6.026-10.985,15.797-16.479l3.72,6.618c-5.799,3.261-10.03,9.044-11.853,11.857c2.17,3.957,5.711,8.043,6.863,9.328
					L74.2,132.726z"/>
			</g>
			<g>
				<path fill="#FFCCBC" d="M230.819,82.882c-5.26-9.24-11.029-19.882-17.48-31.83l6.68-3.607
					c6.43,11.907,12.176,22.509,17.4,31.681L230.819,82.882z"/>
			</g>
			<g>
				<path fill="#FFCCBC" d="M195.539,103.415c-4.285-6.692-6.868-11.196-8.234-13.698l-13.049,1.363l-0.79-7.55l18.256-1.909
					l1.162,2.397c0.021,0.046,2.445,4.986,9.051,15.305L195.539,103.415z"/>
			</g>
			<g>
				<path fill="#CFD8DC" d="M82.645,113.137c-7.725-11.392-2.685-16.743-2.085-17.316c0.676-0.612,60.834-54.627,121.585-77.007
					l3.134-1.154l6.957,13.335l-6.732,3.513l-3.854-7.391C145.594,48.783,90.734,96.927,86.045,101.097
					c-0.261,0.765-0.17,3.278,2.884,7.779L82.645,113.137z"/>
			</g>
			<g>
				<path fill="#FF5252" d="M106.047,128.218c-7.347,0-17.415-2.698-23.67-15.55l-1.341-2.756l2.412-1.893
					c3.06-2.398,75.49-58.973,123.984-78.783l3.265-1.333l11.064,22.234l-3.698,1.583c-0.303,0.131-28.16,12.088-40.586,20.121
					c2.785,5.141,4.051,13.654-3.322,23.386l-0.479,0.63l-48.025,26.966C125.337,123.007,116.345,128.218,106.047,128.218z
					 M90.683,112.022c3.634,5.782,8.684,8.603,15.364,8.603c8.258,0,15.749-4.343,15.823-4.387l46.688-26.216
					c6.976-9.741,1.574-15.719,0.923-16.381l-2.994-3.042l3.334-2.653c8.841-6.876,32.397-17.56,41.572-21.602l-4.334-8.712
					C164.615,56.028,103.805,101.942,90.683,112.022z"/>
			</g>
			<g>
				<path fill="#FFCCBC" d="M461.85,24.253c-2.726-1.029-5.503-2.023-8.253-2.959l2.446-7.187c2.825,0.96,5.68,1.983,8.485,3.04
					L461.85,24.253z"/>
			</g>
			<g>
				<g>
					
						<rect x="509.846" y="286.455" transform="matrix(0.9792 0.2031 -0.2031 0.9792 69.7362 -99.1432)" fill="#FFCCBC" width="16.288" height="7.592"/>
				</g>
				<g>
					
						<rect x="512.066" y="274.754" transform="matrix(0.9792 0.203 -0.203 0.9792 67.3711 -99.7953)" fill="#FFCCBC" width="16.285" height="7.592"/>
				</g>
				<g>
					<path fill="#FFCCBC" d="M509.751,292.268c-5.275-1.011-8.745-6.125-7.738-11.399c1.012-5.278,6.122-8.754,11.4-7.739
						l-1.426,7.457c-1.151-0.22-2.295,0.542-2.52,1.708c-0.22,1.162,0.546,2.292,1.713,2.516L509.751,292.268z"/>
				</g>
			</g>
			<g>
				
					<ellipse transform="matrix(-0.9946 0.104 -0.104 -0.9946 1158.6718 537.6334)" fill="#4D4D4D" cx="565.313" cy="299.037" rx="4.461" ry="8.73"/>
			</g>
			<g>
				
					<ellipse transform="matrix(-0.9946 0.104 -0.104 -0.9946 1076.0115 561.4381)" fill="#4D4D4D" cx="523.37" cy="308.769" rx="4.461" ry="8.731"/>
			</g>
			<g>
				<path fill="#FFCCBC" d="M431.66,163.777c-3.08-1.72-5.971-3.04-8.141-3.718c-1.815-0.57-4.288-1.135-7.149-1.79
					c-2.204-0.504-4.621-1.058-7.17-1.709l1.883-7.356c2.48,0.635,4.835,1.174,6.982,1.664c3.018,0.691,5.626,1.288,7.724,1.947
					c2.687,0.84,5.998,2.339,9.57,4.333L431.66,163.777z"/>
			</g>
			<g>
				<path fill="#CFD8DC" d="M486.952,214.851c-7.635-7.058-12.861-12.315-15.529-15.626c-3.535-4.385-7.224-8.568-10.961-12.429
					l5.455-5.28c3.896,4.025,7.737,8.38,11.416,12.945c2.402,2.981,7.51,8.104,14.774,14.814L486.952,214.851z"/>
			</g>
			<g>
				<path fill="#FFCCBC" d="M426.262,191.003c-10.163-5.72-20.559-10.512-31.777-14.652c-8.757-3.23-19.059-4.63-32.655-6.254
					l0.902-7.539c14.117,1.687,24.845,3.153,34.381,6.671c11.602,4.28,22.354,9.238,32.873,15.157L426.262,191.003z"/>
			</g>
			<g>
				<path fill="#CFD8DC" d="M498.322,233.012c0.155-0.214,0.275-0.452,0.452-0.651c-4.874-2.393-9.887-5.424-14.976-9.268
					c-3.477-2.623-7.108-5.539-10.956-8.626c-1.472-1.181-2.977-2.389-4.518-3.617l-4.732,5.939
					c1.536,1.222,3.034,2.424,4.497,3.599c3.894,3.125,7.569,6.074,11.132,8.764c5.044,3.809,10.008,6.858,14.857,9.355
					C494.707,236.212,496.118,234.187,498.322,233.012z"/>
				<path fill="#CFD8DC" d="M574.623,86.365c-6.343-6.861-21.998-20.189-41.379-33.237l-4.24,6.299
					c21.732,14.63,35.696,27.39,40.042,32.092c11.683,12.635,35.986,38.926,37.433,86.139c0.569,18.564-7.165,33.751-22.985,45.14
					c-12.104,8.712-24.632,11.846-24.752,11.875l-0.447,0.108l-0.408,0.212c-0.249,0.13-18.493,9.286-43.367,3.144
					c0.183,2.658-0.592,5.382-2.362,7.34c7.05,1.815,13.638,2.517,19.55,2.517c15.904,0,26.963-4.937,29.28-6.063
					c5.299-1.453,54.557-16.301,53.082-64.505C612.532,127.376,586.929,99.677,574.623,86.365z"/>
			</g>
			<g>
				<path fill="#FFCCBC" d="M529.004,59.427c-21.756-14.647-44.979-26.812-67.154-35.175l2.679-7.104
					c23.041,8.689,46.16,20.796,68.716,35.98L529.004,59.427z"/>
			</g>
			<g>
				<path fill="#FFCCBC" d="M515.042,345.021c-2.02-3.887-3.716-7.974-5.033-12.148c-1.546-4.896-2.601-9.985-3.14-15.128
					c-1.05-10.025-0.144-19.972,2.694-29.564l7.28,2.153c-2.554,8.634-3.368,17.591-2.425,26.621
					c0.484,4.636,1.438,9.223,2.828,13.631c1.188,3.756,2.712,7.435,4.531,10.932L515.042,345.021z"/>
			</g>
			<g>
				<path fill="#FFCCBC" d="M520.995,279.674l-6.819-3.335c11.647-23.808,34.316-39.665,60.643-42.419
					c5.005-0.522,10.046-0.555,14.991-0.1l-0.696,7.56c-4.45-0.408-8.993-0.378-13.509,0.092
					C551.9,243.951,531.486,258.233,520.995,279.674z"/>
			</g>
			<g>
				<path fill="#FFCCBC" d="M185.192,124.075c-2.73-3.806-5.534-7.765-8.428-11.885l-14.896,1.557l-0.791-7.55l19.341-2.023
					l1.282,1.83c3.331,4.755,6.545,9.301,9.663,13.646L185.192,124.075z"/>
			</g>
			<g>
				<path fill="#FF5252" d="M104.359,146.735c-11.538,0-24.406-5.334-32.573-17.158l-1.806-2.611l13.134-13.06l5.354,5.384
					l-8.524,8.476c10.263,12.181,26.587,13.293,35.114,9.104c9.971-4.903,29.158-16.089,39.709-22.322
					c9.065-5.354,5.096-15.294,4.921-15.716l7.019-2.894c2.338,5.667,3.657,18.216-8.079,25.147
					c-10.643,6.287-30.021,17.583-40.22,22.598C114.337,145.684,109.478,146.735,104.359,146.735z"/>
			</g>
			<g>
				<path fill="#42A5F5" d="M294.087,205.658c-0.128,0-0.251,0-0.377,0c-43.223-0.243-67.389-24.249-108.518-81.582l-2.323-3.24
					l16.919-10.919c-1.483-2.226-2.9-4.395-4.249-6.501l-2.146-3.351l37.311-21.475c1.859-1.069,4.407-2.536,6.426,0.106
					l0.289,0.431c20.516,36.029,31.342,46.49,48.273,46.635c0.031,0,0.064,0.001,0.098,0.001c9.278,0,19.639-11.319,29.186-31.892
					c7.715-16.622,12.242-33.47,12.287-33.639c0.162-0.64,18.251-69.085,95.071-54.994c10.995,2.019,22.336,5.003,33.709,8.87
					l1.951,0.664l0.505,2c11.986,47.371-1.13,82.507-14.242,103.641c-12.219,19.691-26.418,31.002-30.613,34.093l-4.443,2.054l0,0
					c-7.206-1.845-17.343-4.932-26.062-11.021c-3.662,5.594-11.612,16.847-23.032,28.193
					C339.079,194.624,316.256,205.657,294.087,205.658z M193.692,122.887c38.124,52.787,60.959,74.958,100.059,75.178
					c0.113,0.001,0.227,0.001,0.339,0.001c25.347,0,46.899-16.074,60.538-29.595c15.113-14.981,24.145-30.242,24.234-30.396
					l2.274-3.873l3.44,2.887c7.396,6.207,16.977,9.528,24.259,11.52c3.159-2.313,17.306-13.293,29.142-32.478
					c17.468-28.32,22.059-60.439,13.655-95.494c-10.358-3.429-20.666-6.095-30.667-7.933c-29.4-5.39-52.84,1.281-69.689,19.833
					c-12.619,13.896-16.624,29.44-16.664,29.595c-1.957,7.35-19.816,71.217-48.818,71.222c-0.057,0-0.11-0.001-0.167-0.001
					c-21.542-0.185-34.544-15.375-52.91-47.163c-6.685,3.847-21.791,12.542-28.619,16.473c7.244,11.071,16.288,23.751,26.926,37.751
					c30.306,39.875,54.946,42.048,84.884,32.619c31.988-10.072,72.615-77.267,73.021-77.944l6.508,3.906
					c-1.719,2.868-42.543,70.352-77.251,81.281c-38.552,12.141-64.688,2.254-93.206-35.268
					c-7.858-10.342-14.863-19.982-20.931-28.804L193.692,122.887z"/>
			</g>
			<g>
				<path fill="#42A5F5" d="M434.772,131.214c-1.275-0.038-31.48-1.195-50.949-22.905l5.651-5.068
					c17.259,19.243,45.25,20.375,45.532,20.385L434.772,131.214z"/>
			</g>
			<g>
				<path fill="#42A5F5" d="M420.921,146.968c-2.496,0-25.924-0.672-46.569-25l5.789-4.913c19.064,22.463,40.674,22.33,40.82,22.32
					l0.146,7.59C421.071,146.966,421.009,146.968,420.921,146.968z"/>
			</g>
			<g>
				<path fill="#CFD8DC" d="M548.901,240.93c-12.479,0-20.509-3.667-21.481-9.806c-0.487-3.072,0.605-7.68,8.577-12.19
					c5.129-2.9,12.119-5.158,19.686-6.357c3.808-0.603,7.552-0.909,11.129-0.909c12.48,0,20.512,3.666,21.483,9.806
					c1.493,9.429-13.604,16.224-28.264,18.547C556.224,240.623,552.479,240.93,548.901,240.93z M566.812,219.26
					c-3.181,0-6.526,0.274-9.941,0.815c-6.594,1.045-12.84,3.038-17.134,5.467c-4.18,2.365-4.859,4.14-4.819,4.392
					c0.115,0.72,3.902,3.402,13.984,3.402c3.182,0,6.527-0.275,9.942-0.816c15.052-2.385,22.207-8.26,21.953-9.859
					C580.685,221.942,576.896,219.26,566.812,219.26z"/>
			</g>
			<g>
				
					<rect x="555.532" y="227.65" transform="matrix(0.2184 0.9759 -0.9759 0.2184 666.4575 -369.1664)" fill="#FFCCBC" width="16.289" height="7.592"/>
			</g>
			<g>
				
					<rect x="543.96" y="230.45" transform="matrix(0.2184 0.9759 -0.9759 0.2184 660.0941 -355.6918)" fill="#FFCCBC" width="16.287" height="7.593"/>
			</g>
			<g>
				<path fill="#FF5252" d="M574.733,124.531l-6.538-3.861c3.492-5.914,6.827-12.182,9.933-18.664l-7.391-8.371
					c-2.632,5.114-7.245,13.593-13.63,23.5l-6.383-4.114c9.972-15.471,15.617-27.608,15.671-27.729l2.443-5.281l18.28,20.709
					l-1.053,2.253C582.563,110.474,578.751,117.727,574.733,124.531z"/>
			</g>
			<g>
				<path fill="#FF5252" d="M474.075,202.304l-13.737-15.64l5.704-5.012l11.094,12.63c7.258-1.286,34.82-7.868,63.117-36.727
					l5.421,5.315c-34.896,35.587-68.265,39.117-69.667,39.25L474.075,202.304z"/>
			</g>
			<g>
				<path fill="#FF5252" d="M463.339,187.952l-0.298-7.586c0.759-0.03,1.511-0.073,2.264-0.132l0.586,7.569
					C465.044,187.869,464.192,187.918,463.339,187.952z"/>
			</g>
			<g>
				<path fill="#FF5252" d="M465.891,187.803l-0.586-7.569c18.397-1.421,37.039-11.34,55.406-29.479l5.337,5.401
					C506.366,175.592,486.127,186.24,465.891,187.803z"/>
			</g>
			<g>
				<path fill="#FF5252" d="M469.228,176.758l-2.502-7.168c8.588-2.999,17.729-9.331,27.163-18.823l5.386,5.352
					C489.021,166.434,478.91,173.377,469.228,176.758z"/>
			</g>
			<g>
				<path fill="#FF5252" d="M532.89,111.284l-6.501-3.921c9.579-15.886,16.476-30.14,19.188-35.965l-12.546-9.061
					c-6.344,17.73-14.143,34.061-23.214,48.61l-6.443-4.017c9.583-15.369,17.708-32.821,24.151-51.872l1.648-4.874l25.861,18.677
					l-1.235,2.809C553.719,71.854,545.618,90.177,532.89,111.284z"/>
			</g>
			<g>
				<path fill="#FFCCBC" d="M462.384,215.104c-6.391-17.834-2.96-37.799,3.886-46.07c38.354-46.344,97.374-1.032,97.968-0.57
					l-4.677,5.98c-0.136-0.106-13.866-10.719-31.617-15.919c-23.026-6.748-41.813-1.583-55.825,15.349
					c-4.689,5.668-8.311,22.699-2.588,38.668L462.384,215.104z"/>
			</g>
			<g>
				<path fill="#FF5252" d="M577.711,235.124l3.903-10.292c0.49-1.169,0.24-1.547,0.119-1.728c-1.58-2.374-9.632-3.843-16.189-3.843
					h-11.871l9.58-6.887l51.103-36.401l-0.4,7.837c-1.333,26.288-25.53,44.752-26.559,45.526L577.711,235.124z M575.98,212.628
					c4.712,0.916,9.577,2.691,11.964,6.107c5.424-5.3,13.665-14.878,17-26.738L575.98,212.628z"/>
			</g>
			<g>
				<path fill="#FF5252" d="M494.135,238.043c-0.013,0-0.027,0-0.039,0l0.023-7.592c1.025,0.027,2.383-0.295,3.62-2.664l6.728,3.517
					C502.193,235.652,498.525,238.043,494.135,238.043z"/>
			</g>
			<g>
				<g>
					<path fill="#4D4D4D" d="M413.241,294.016c-1.47,0-2.804-0.729-3.527-1.979c-0.859-1.48-0.661-3.331,0.5-4.716l14.096-16.763
						l5.812,4.886l-7.818,9.297l11.483-2.07l1.347,7.472l-21.08,3.8C413.78,293.992,413.509,294.016,413.241,294.016z"/>
				</g>
				<g>
					<path fill="none" stroke="#FFD54F" stroke-width="7.5922" stroke-miterlimit="10" d="M486.188,240.999"/>
				</g>
				<g>
					<path fill="#FFD54F" d="M433.257,290.203c-0.019,0-0.037,0-0.057,0c-3.619-0.017-6.936-2.009-8.652-5.201l-1.666-3.103
						c-1.248-2.323-1.517-4.992-0.757-7.517c0.76-2.524,2.458-4.601,4.779-5.85l18.011-9.672l3.59,6.688l-18.007,9.673
						c-0.535,0.288-0.927,0.767-1.104,1.35c-0.176,0.583-0.112,1.199,0.175,1.733l1.667,3.104c0.397,0.738,1.164,1.198,2.004,1.202
						c0.003,0,0.007,0,0.012,0c0.372,0,0.741-0.094,1.073-0.272l18.154-9.755l3.596,6.689l-18.159,9.756
						C436.48,289.798,434.871,290.203,433.257,290.203z"/>
				</g>
			</g>
			<g>
				<path fill="none" d="M506.43,225.694c-0.017,0.079-0.042,0.17-0.062,0.251c0.314-0.134,0.621-0.292,0.942-0.393
					C507.013,225.597,506.729,225.65,506.43,225.694z"/>
				<path fill="none" d="M497.74,227.786c1.335-2.554,1.579-5.705,1.58-5.737l0.225-3.108l3.096-0.396
					c44.851-5.557,63.88-32.758,64.065-33.032l0.828-1.213l1.428-0.34c11.938-2.85,20.935-10.518,26.739-22.793
					c3.687-7.792,4.888-15.118,5.202-17.507l-3.922-10.31l-6.774,4.792c-3.06,23.653-22.085,33.437-26.986,35.584
					c-20.786,28.053-57.146,38.484-69.137,41.259c0.609,5.164-1.271,8.96-3.684,11.481l5.987,4.747l3.898-2.093L497.74,227.786z"/>
				<path fill="#FFD54F" d="M506.368,225.945c-0.353,1.584-0.934,3.51-1.902,5.361l-4.18-2.187l-3.898,2.093l0.079,0.061
					l-7.341,3.839l-4.732,2.542l3.59,6.689l21.188-11.379c0.536-0.288,1.155-0.35,1.733-0.175c0.581,0.175,1.061,0.567,1.35,1.104
					l1.668,3.107c0.287,0.535,0.351,1.15,0.173,1.732c-0.175,0.583-0.566,1.062-1.102,1.35l-21.73,11.672l3.592,6.688l21.729-11.671
					c2.322-1.247,4.02-3.324,4.782-5.848c0.76-2.525,0.491-5.194-0.758-7.517l-1.665-3.104c-1.249-2.323-3.326-4.021-5.85-4.781
					c-1.07-0.322-2.166-0.42-3.25-0.377c-0.835,0.145-1.682,0.278-2.534,0.409C506.989,225.653,506.683,225.811,506.368,225.945z"/>
				<path fill="#FF5252" d="M509.845,225.143c-0.858,0.035-1.71,0.149-2.534,0.409C508.163,225.421,509.01,225.288,509.845,225.143z
					"/>
				<polygon fill="#FF5252" points="496.388,231.212 489.126,235.112 496.467,231.273 				"/>
				<path fill="#FFD54F" d="M506.368,225.945c-0.262,0.114-0.533,0.194-0.789,0.33l-5.293,2.844l4.18,2.187
					C505.435,229.455,506.016,227.529,506.368,225.945z"/>
			</g>
			<g>
				<path fill="#FF5252" d="M600.595,121.491l-11.05,7.817c0.789,0.582,1.549,1.16,2.269,1.729l-4.704,5.96
					c-0.923-0.729-2.31-1.779-4.108-3.034l-0.158,1.71c-2.146,23.122-22.522,31.066-23.379,31.39l-1.086,0.402l-0.675,0.939
					c-22.602,31.403-68.372,39.834-68.831,39.917l-4.349,0.771l1.412,4.182c2.237,6.628-1.93,8.944-3.219,9.48l-6.204,2.387
					l12.592,9.981l0.021-0.012l7.262-3.9l-5.987-4.747c2.413-2.521,4.293-6.317,3.684-11.481
					c11.99-2.774,48.351-13.206,69.137-41.259c4.901-2.147,23.927-11.931,26.986-35.584l6.774-4.792l3.922,10.31
					c-0.314,2.39-1.516,9.715-5.202,17.507c-5.805,12.275-14.802,19.944-26.739,22.793l-1.428,0.34l-0.828,1.213
					c-0.186,0.274-19.215,27.475-64.065,33.032l-3.096,0.396l-0.225,3.108c-0.001,0.032-0.245,3.184-1.58,5.737l2.546,1.333
					l5.293-2.844c0.256-0.136,0.527-0.216,0.789-0.33c0.02-0.082,0.045-0.173,0.062-0.251c0.299-0.044,0.583-0.097,0.881-0.142
					c0.824-0.26,1.676-0.375,2.534-0.409c39.021-6.765,58.042-28.677,62.25-34.148c32.813-8.845,36.432-47.111,36.468-47.502
					l0.071-0.862L600.595,121.491z"/>
				<path fill="#FFCCBC" d="M589.545,129.308c-23.371-17.268-76.056-39.726-123.349-10.681
					c-21.677,13.314-35.105,30.895-39.91,52.251c-8.417,37.406,12.206,73.941,16.664,81.252
					c-2.496,17.465,7.368,27.09,14.655,30.665l0.453,6.718l0.139,0.792c0.364,1.27,1.517,2.849,3.662,3.471
					c0.573,0.166,1.223,0.281,1.994,0.281c3.649,0,9.973-2.582,23.349-14.468c6.633-5.892,10.017-12.669,10.064-20.144
					c0.087-14.013-11.845-25.05-12.354-25.513l-0.17-0.147c-7.098-5.735-12.215-12.882-15.213-21.241l-7.146,2.562
					c3.459,9.648,9.341,17.891,17.481,24.5c0.869,0.821,9.874,9.586,9.809,19.792c-0.032,5.231-2.562,10.116-7.516,14.518
					c-9.507,8.449-14.452,11.207-16.724,12.104l-0.581-8.6l-2.401-0.811c-0.625-0.211-15.225-5.378-11.791-24.614l0.264-1.479
					l-0.818-1.258c-0.249-0.385-24.932-38.97-16.402-76.754c4.346-19.262,16.616-35.212,36.467-47.403
					c19.367-11.897,42.449-15.61,66.76-10.736c21.82,4.375,38.092,14.042,46.07,19.603l0.002-0.029L589.545,129.308z"/>
				<path fill="#FF5252" d="M591.813,131.037c-0.72-0.569-1.479-1.147-2.269-1.729l-6.542,4.627l-0.002,0.029
					c1.799,1.255,3.186,2.305,4.108,3.034L591.813,131.037z"/>
			</g>
			<g>
				<path fill="#4D4D4D" d="M585.277,394.844L585.277,394.844c-50.833,0-77.192-42.962-78.288-44.791l-1.508-2.513l2.049-2.095
					c18.805-19.214,68.156-25.355,82.199-26.741l-4.569-91.076l4.01,0.021c52.355,0.271,93.03,32.605,94.735,33.981l1.414,1.14
					v1.815c0,96.096-55.425,119.838-57.783,120.802C613.173,391.65,598.926,394.844,585.277,394.844z M515.202,348.676
					c6.366,8.95,30.442,38.576,70.075,38.577c12.6,0,25.823-2.981,39.306-8.859c0.599-0.249,52.422-22.796,53.137-111.935
					c-7.32-5.431-42.014-29.467-84.572-31.127l4.534,90.339l-3.693,0.277C593.396,325.99,536.78,330.433,515.202,348.676z"/>
			</g>
		</g>
		<g>
			<g>
				<path fill="#FFD54F" d="M168.571,460.854l-7.162-2.521l4.432-12.593c0.628-1.779,2.31-3.109,4.182-3.312l12.355-1.325
					l-9.874-7.542c-1.499-1.151-2.244-3.158-1.858-5l2.562-12.161l-10.224,7.056c-1.549,1.077-3.693,1.163-5.336,0.219l-10.77-6.188
					l3.553,11.908c0.539,1.805-0.038,3.87-1.438,5.137l-9.216,8.333l12.42,0.302c1.887,0.047,3.67,1.233,4.441,2.952l5.068,11.314
					l-6.931,3.103l-4.397-9.819l-19.537-0.474c-1.782-0.045-3.252-1.056-3.838-2.638c-0.588-1.582-0.133-3.306,1.188-4.499
					l14.495-13.108l-5.587-18.727c-0.51-1.703-0.004-3.416,1.322-4.464c1.326-1.048,3.108-1.148,4.652-0.259l16.941,9.731
					l16.083-11.099c1.464-1.012,3.25-1.059,4.653-0.124c1.408,0.934,2.055,2.597,1.688,4.339l-4.025,19.126l15.53,11.864
					c1.416,1.086,2.008,2.767,1.553,4.391c-0.457,1.624-1.837,2.751-3.604,2.941l-19.435,2.086L168.571,460.854z"/>
			</g>
			<g>
				<path fill="#CFD8DC" d="M583.522,542.837l-3.545-6.715c9.08-4.791,12.527-9.651,13.642-11.659
					c-2.824-7.955-7.503-13.65-13.922-16.941c-13.13-6.731-29.337-1.583-29.501-1.534l-2.346-7.219
					c0.783-0.256,19.406-6.161,35.311,1.997c8.643,4.432,14.75,12.086,18.148,22.751l0.356,1.119l-0.337,1.124
					C601.05,526.694,598.171,535.105,583.522,542.837z"/>
			</g>
			<g>
				<path fill="#FFCCBC" d="M439.389,583.239c-5.173-12.548-9.799-23.715-14.011-33.318l6.952-3.051
					c4.245,9.676,8.886,20.884,14.077,33.475L439.389,583.239z"/>
			</g>
			<g>
				<path fill="#FFCCBC" d="M489.441,552.193h-18.357l-0.903-2.508c-0.019-0.046-1.913-5.216-7.408-16.162l6.785-3.406
					c3.562,7.101,5.666,11.85,6.764,14.483h13.12V552.193z"/>
			</g>
			<g>
				<path fill="#CFD8DC" d="M450.95,614.395l-5.531-13.988l7.06-2.792l3.065,7.752c57.941-15.702,117.442-57.803,122.654-61.544
					c0.266-0.663,1.221-4.47-6.01-14.161c-9.205-12.35-33.369-2.328-33.612-2.225l-2.967-6.989
					c1.212-0.516,29.897-12.454,42.666,4.675c12.722,17.058,6.271,23.407,4.851,24.506c-0.736,0.539-66.19,48.004-128.938,63.943
					L450.95,614.395z"/>
			</g>
			<g>
				<path fill="#66BB6A" d="M446.627,603.641l-8.694-23.264l3.843-1.188c0.317-0.099,29.264-9.094,42.46-15.79
					c-2.233-5.403-2.609-14.001,5.734-22.911l0.541-0.577l50.57-21.825l3.472,6.731c-0.487,0.31-12.576,8.286-4.726,29.875
					l0.951,2.615L538.57,559c-1.532,1.175-38.094,28.946-88.558,43.655L446.627,603.641z M447.851,585.228l3.41,9.127
					c40.677-12.502,72.171-33.817,80.513-39.786c-3.259-10.438-2.521-18.307-0.45-24.002l-36.326,15.678
					c-8.237,9.281-2.887,15.878-2.648,16.16l2.814,3.352l-3.718,2.312C481.936,573.986,457.396,582.161,447.851,585.228z"/>
			</g>
			<g>
				<path fill="#42A5F5" d="M262.839,608.651c-8.725,0-18.386-1.345-29.062-4.48c-13.361-3.925-27.063-9.386-40.725-16.233
					l3.406-6.788c13.253,6.646,26.528,11.939,39.459,15.737c68.013,19.97,90.121-37.714,91.029-40.18
					c2.715-7.116,27.28-68.963,56.124-65.735c21.406,2.425,32.76,18.885,47.717,52.412c7.045-3.129,22.976-10.209,30.176-13.409
					c-6.07-11.795-13.743-25.346-22.853-40.345c-25.992-42.811-50.262-47.533-81.03-41.273
					c-32.844,6.687-80.258,69.296-80.732,69.928l-6.068-4.563c2.009-2.673,49.632-65.545,85.287-72.805
					c39.605-8.062,64.576,4.488,89.033,44.772c10.137,16.695,18.533,31.643,24.957,44.429l1.707,3.402l-5.943,2.829
					c-3.801,1.688-11.578,5.144-18.83,8.365l-11.197,4.975c-6.788,3.02-6.782,3.011-8.51,1.889l-0.95-0.618l-0.456-1.039
					c-16.654-37.971-26.338-49.501-43.16-51.406c-9.23-1.055-20.738,9.11-32.395,28.594c-9.411,15.728-15.703,32.095-15.766,32.258
					C333.864,559.898,315.358,608.651,262.839,608.651z"/>
			</g>
			<g>
				<path fill="#66BB6A" d="M309.423,453.904c-12.593-2.858-23.467-6.159-33.238-10.093l2.834-7.042
					c9.394,3.781,19.889,6.964,32.086,9.731L309.423,453.904z"/>
			</g>
			<g>
				<path fill="#FFCCBC" d="M298.69,412.562l-5.21-5.521c2.587-2.443,5.287-4.367,7.667-6.063
					c6.153-4.383,10.215-7.279,10.38-16.138c0.155-8.125-9.301-10.934-9.398-10.961c-23.006-6.865-38.55,14.02-45.765,27.079
					l-6.645-3.67c19.38-35.085,42.488-34.292,54.543-30.694c5.207,1.494,15.066,7.276,14.857,18.39
					c-0.238,12.679-7.014,17.508-13.565,22.179C303.267,408.792,300.898,410.477,298.69,412.562z"/>
			</g>
			<g>
				<g>
					
						<rect x="160.143" y="306.96" transform="matrix(0.9527 0.3038 -0.3038 0.9527 102.3469 -36.4347)" fill="#FFCCBC" width="16.285" height="7.591"/>
				</g>
				<g>
					
						<rect x="156.717" y="318.366" transform="matrix(0.9527 0.3038 -0.3038 0.9527 105.6582 -34.8572)" fill="#FFCCBC" width="16.29" height="7.591"/>
				</g>
				<g>
					<path fill="#FFCCBC" d="M173.87,328.676c-0.932,0-1.879-0.135-2.815-0.418l2.199-7.267c1.129,0.344,2.336-0.302,2.679-1.437
						c0.342-1.134-0.301-2.335-1.435-2.678l2.194-7.269c2.491,0.752,4.539,2.43,5.77,4.725c1.228,2.292,1.489,4.927,0.738,7.418
						C181.926,325.958,178.05,328.675,173.87,328.676z"/>
				</g>
			</g>
			<g>
				<ellipse fill="#4D4D4D" cx="122.135" cy="297.093" rx="4.461" ry="8.731"/>
			</g>
			<g>
				<ellipse fill="#4D4D4D" cx="164.861" cy="291.779" rx="4.461" ry="8.731"/>
			</g>
			<g>
				<path fill="#66BB6A" d="M226.194,440.806c-7.848-5.687-22.125-22.059-27.464-30.6c-4.81-7.697-21.511-25.559-21.681-25.738
					l5.541-5.189c0.709,0.755,17.379,18.586,22.577,26.905c4.785,7.653,18.518,23.429,25.481,28.474L226.194,440.806z"/>
			</g>
			<g>
				<path fill="#66BB6A" d="M161.421,505.507c-78.036,0.007-99.317-62.912-99.532-63.577l7.223-2.337
					c0.853,2.6,21.821,63.719,102.704,57.944c35.839-2.559,84.466-18.101,112.615-77.604c0.367-0.778,0.674-1.423,0.922-1.923
					c1.413-2.848,3.953-6.119,5.783-8.307c-3.827-3.985-14.367-11.775-35.578-7.255c-2.623,4.949-3.978,8.549-3.992,8.588
					c-0.215,0.561-20.854,52.581-78.974,52.581c-57.876,0-76.537-36.501-77.304-38.055l6.803-3.368
					c0.693,1.382,17.561,33.831,70.501,33.831c52.808,0,71.12-45.732,71.876-47.679c0.055-0.153,1.806-4.829,5.252-11.059
					l0.811-1.47l1.635-0.387c34.929-8.286,47.294,12.616,47.391,12.834l1.01,2.282l-1.694,1.833c-1.35,1.46-5.188,5.926-6.72,9.008
					c-0.23,0.465-0.518,1.067-0.858,1.791c-29.717,62.818-81.081,79.227-118.938,81.931
					C168.599,505.377,164.944,505.507,161.421,505.507z"/>
			</g>
			<g>
				<path fill="#FFCCBC" d="M176.452,313.691l-7.018-2.9c3.438-8.316,5.184-17.138,5.184-26.223c0-4.664-0.471-9.324-1.397-13.853
					l7.438-1.521c1.03,5.027,1.552,10.201,1.552,15.375C182.21,294.653,180.272,304.451,176.452,313.691z"/>
			</g>
			<g>
				<path fill="#FFCCBC" d="M504.118,530.934h-19.442l-1.085-1.952c-2.821-5.077-5.544-9.933-8.193-14.576l6.595-3.762
					c2.321,4.069,4.698,8.3,7.15,12.698h14.976V530.934z"/>
			</g>
			<g>
				<path fill="#66BB6A" d="M129.897,359.678c12.279-2.368,38.758-3.451,65.41,21.426c6.198,5.785,11.696,11.169,17.013,16.378
					c9.887,9.68,18.423,18.04,27.966,25.553l4.696-5.966c-9.22-7.258-17.621-15.485-27.348-25.012
					c-5.35-5.239-10.882-10.656-17.147-16.502c-27.903-26.042-55.904-26.032-70.375-23.612
					C131.02,354.414,130.935,357.264,129.897,359.678z"/>
				<path fill="#66BB6A" d="M287.438,477.347l-5.977-4.684c0.092-0.116,0.581-0.736,1.43-1.753
					c-7.672-1.685-16.661-8.973-19.695-11.872l-5.25,5.483c0.494,0.474,10.918,10.369,21.834,13.441
					c-4.151,14.727-23.336,69.726-85.053,102.313c-48.596-24.813-87.49-63.262-97.89-77.175
					c-10.302-13.781-31.741-42.457-28.269-89.567c1.366-18.521,10.637-32.821,27.556-42.504c7.485-4.283,14.902-6.688,19.865-7.964
					c-2.091-1.677-3.189-4.262-3.331-6.92c-15.785,4.434-48.819,18.266-51.663,56.831c-3.68,49.941,18.906,80.151,29.76,94.67
					c7.323,9.796,46.145,52.13,102.297,80.291l1.411,0.706l3.138-1.301c71.43-37.343,88.362-101.891,90.361-110.642
					C287.652,477.077,287.464,477.314,287.438,477.347z"/>
				<path fill="#42A5F5" d="M481.992,510.645c-34.939-61.3-56.478-87.69-99.439-92.426c-22.13-2.443-46.672,6.253-70.968,25.145
					c-14.696,11.425-25.048,23.181-28.693,27.545c0.644,0.142,1.282,0.256,1.903,0.313l4.22,0.385l-0.845,4.152
					c-0.028,0.144-0.104,0.49-0.207,0.939c5.104-6.214,47.606-56.016,93.756-50.934c38.865,4.285,59.271,28.712,91.698,85.178
					l-14.295,7.242l3.432,6.772l21.413-10.849L481.992,510.645z"/>
				<path fill="#66BB6A" d="M289.015,471.607l-4.22-0.385c-0.621-0.057-1.26-0.172-1.903-0.313c-0.849,1.017-1.338,1.637-1.43,1.753
					l5.977,4.684c0.025-0.032,0.214-0.27,0.524-0.647c0.103-0.45,0.179-0.796,0.207-0.939L289.015,471.607z"/>
			</g>
			<g>
				<path fill="#66BB6A" d="M497.453,540.554c-1.737-5.88-1.741-18.499,10.652-24.172c10.241-4.69,40.005-18.126,40.005-18.126
					c1.68-0.76,3.66-0.201,4.699,1.323c1.036,1.524,0.831,3.573-0.49,4.858c-0.127,0.124-13.009,12.851-12.496,24.739l-7.584,0.328
					c-0.281-6.512,2.24-12.897,5.279-18.13c-9.212,4.167-20.65,9.349-26.254,11.914c-9.304,4.258-6.838,14.038-6.526,15.139
					L497.453,540.554z"/>
			</g>
			<g>
				<path fill="#FF5252" d="M113.803,264.909l-3.956-20.024l2.587-1.293c8.07-4.037,20.872-4.884,30.19-4.884
					c4.214,0,7.059,0.179,7.178,0.186l1.36,0.086l0.995,0.934c4.436,4.156,8.926,13.248,9.424,14.271l3.311,6.808l-7.436-1.419
					c-2.239-0.427-4.896-0.643-7.9-0.643c-14.268,0-31.626,4.821-31.799,4.869L113.803,264.909z M118.456,249.285l1.222,6.185
					c6.233-1.504,18.72-4.131,29.878-4.131c0.613,0,1.217,0.007,1.811,0.023c-1.111-1.814-2.338-3.63-3.496-4.961
					c-1.184-0.048-3.019-0.101-5.246-0.101C132.396,246.3,123.979,247.35,118.456,249.285z"/>
			</g>
			<g>
				<polygon fill="#FFCCBC" points="113.903,373.019 112.018,355.246 119.56,355.96 121.446,372.139 				"/>
			</g>
			<g>
				<polygon fill="#FFCCBC" points="125.706,371.438 123.819,355.258 131.425,350.941 133.249,370.559 				"/>
			</g>
			<g>
				<path fill="none" d="M11.611,326.395c-0.559,2.016-0.84,5.138,3.154,8.953c0.306,0.247,10.245,8.201,33.317-0.84
					c-6.857-7.965-12.119-17.435-15.26-27.996C20.691,313.719,13.204,320.652,11.611,326.395z"/>
				<path fill="none" d="M171.738,264.855c-8.64-28.767-35.398-48.998-65.832-48.998c-37.888,0-68.71,30.824-68.71,68.711
					c0,3.479,0.261,6.947,0.776,10.361c24.773-12.765,57.012-22.819,75.449-26.973C143.073,261.279,162.383,263.035,171.738,264.855
					z"/>
				<path fill="#FF5252" d="M115.092,275.364c40.229-9.061,60.328-1.767,60.511-1.698l6.365,2.461l-1.266-6.707l-0.042-0.228
					c-7.226-35.305-38.663-60.929-74.754-60.929c-42.071,0-76.302,34.229-76.302,76.303c0,4.777,0.444,9.538,1.318,14.19
					c-13.771,7.909-24.149,16.669-26.627,25.607c-1.149,4.141-1.174,10.36,5.324,16.564c0.38,0.337,6.314,5.416,18.604,5.416
					c6.605,0,15.072-1.507,25.476-5.966c-1.975-1.85-3.846-3.814-5.616-5.872c-23.072,9.041-33.012,1.086-33.317,0.84
					c-3.994-3.815-3.713-6.937-3.154-8.953c1.593-5.743,9.08-12.676,21.212-19.883c-0.481-1.617-0.929-3.25-1.31-4.917l7.401-1.687
					c0.217,0.94,0.449,1.87,0.701,2.793c3.732-1.98,7.795-3.968,12.162-5.947C70.782,288.142,95.634,279.746,115.092,275.364z
					 M37.973,294.929c-0.516-3.414-0.776-6.882-0.776-10.361c0-37.887,30.822-68.711,68.71-68.711
					c30.434,0,57.192,20.231,65.832,48.998c-9.355-1.82-28.665-3.576-58.316,3.101C94.984,272.11,62.746,282.164,37.973,294.929z"/>
				<path fill="#FFCCBC" d="M48.083,334.508c1.592-0.624,3.242-1.325,4.962-2.118l3.184,6.892c-0.863,0.399-1.691,0.739-2.529,1.099
					c13.724,12.848,32.141,20.489,52.207,20.489c26.47,0,50.667-13.413,64.728-35.878l-6.438-4.028
					c-12.663,20.233-34.454,32.314-58.29,32.314c-31.313,0-58.171-20.654-66.29-50.574c-2.403,1.275-4.668,2.545-6.793,3.81
					C35.964,317.073,41.226,326.543,48.083,334.508z"/>
				<path fill="#FF5252" d="M31.514,301.596c0.381,1.666,0.828,3.3,1.31,4.917c2.125-1.264,4.39-2.534,6.793-3.81
					c-0.252-0.923-0.484-1.854-0.701-2.793L31.514,301.596z"/>
				<path fill="#FFCCBC" d="M53.045,332.39c-1.72,0.793-3.37,1.495-4.962,2.118c1.771,2.058,3.642,4.022,5.616,5.872
					c0.838-0.359,1.666-0.699,2.529-1.099L53.045,332.39z"/>
			</g>
		</g>
	</g>
</g>
</svg>
