<?xml version="1.0" encoding="utf-8"?>
<!-- Generator: Adobe Illustrator 16.0.0, SVG Export Plug-In . SVG Version: 6.00 Build 0)  -->
<!DOCTYPE svg PUBLIC "-//W3C//DTD SVG 1.1//EN" "http://www.w3.org/Graphics/SVG/1.1/DTD/svg11.dtd">
<svg version="1.1" xmlns="http://www.w3.org/2000/svg" xmlns:xlink="http://www.w3.org/1999/xlink" x="0px" y="0px"
	 width="182.457px" height="51.964px" viewBox="0 0 182.457 51.964" enable-background="new 0 0 182.457 51.964"
	 xml:space="preserve">
<g id="plantilla" display="none">
</g>
<g id="Capa_1">
	<g>
		<g>
			<g>
				<radialGradient id="SVGID_1_" cx="-1.1846" cy="-1.0674" r="60.7004" gradientUnits="userSpaceOnUse">
					<stop  offset="0" style="stop-color:#FFCD4D"/>
					<stop  offset="1" style="stop-color:#F6C338"/>
				</radialGradient>
				<path fill="url(#SVGID_1_)" d="M18.632,32.62L6.988,51.964h5.88c1.394,0,3.12-0.976,3.839-2.175l4.955-8.244
					c0.585-1.208,0.564-2.967-0.104-4.082L18.632,32.62z"/>
				<radialGradient id="SVGID_2_" cx="-1.1855" cy="-1.0669" r="60.7001" gradientUnits="userSpaceOnUse">
					<stop  offset="0" style="stop-color:#0DA960"/>
					<stop  offset="1" style="stop-color:#03914B"/>
				</radialGradient>
				<path fill="url(#SVGID_2_)" d="M13.31,23.809c0.718,1.195,0.718,3.152,0,4.351L0.229,50.026
					c-0.505,1.081,0.02,1.938,1.317,1.938h5.441L18.632,32.62L13.31,23.809z"/>
				<radialGradient id="SVGID_3_" cx="-1.1865" cy="-1.0649" r="60.6977" gradientUnits="userSpaceOnUse">
					<stop  offset="0" style="stop-color:#4387FD"/>
					<stop  offset="1" style="stop-color:#4683EA"/>
				</radialGradient>
				<path fill="url(#SVGID_3_)" d="M1.547,0C0.15,0-0.404,0.98,0.314,2.175l21.244,35.288c0.668,1.115,0.688,2.873,0.104,4.082
					l5.164-8.596L6.99,0H1.547z"/>
				<radialGradient id="SVGID_4_" cx="-1.1855" cy="-1.0649" r="60.6957" gradientUnits="userSpaceOnUse">
					<stop  offset="0" style="stop-color:#E04A3F"/>
					<stop  offset="1" style="stop-color:#CD372D"/>
				</radialGradient>
				<path fill="url(#SVGID_4_)" d="M29.702,23.809L16.707,2.175C15.988,0.98,14.262,0,12.868,0H6.99l19.836,32.949l2.876-4.79
					C30.421,26.96,30.421,25.003,29.702,23.809z"/>
				<linearGradient id="SVGID_5_" gradientUnits="userSpaceOnUse" x1="24.7119" y1="32.6768" x2="10.089" y2="32.6768">
					<stop  offset="0" style="stop-color:#231F20;stop-opacity:0.2"/>
					<stop  offset="1" style="stop-color:#F1F2F2;stop-opacity:0.25"/>
				</linearGradient>
				<path fill="url(#SVGID_5_)" d="M21.559,37.463L13.31,23.809c0.718,1.195,0.718,3.152,0,4.351l-2.904,4.835l11.257,8.55
					C22.247,40.336,22.227,38.578,21.559,37.463z"/>
			</g>
			<radialGradient id="SVGID_6_" cx="15.1211" cy="25.9819" r="21.2565" gradientUnits="userSpaceOnUse">
				<stop  offset="0" style="stop-color:#FFFFFF;stop-opacity:0.1"/>
				<stop  offset="0.0896" style="stop-color:#FFFFFF;stop-opacity:0.091"/>
				<stop  offset="1" style="stop-color:#FFFFFF;stop-opacity:0"/>
			</radialGradient>
			<path fill="url(#SVGID_6_)" d="M29.702,23.809L16.707,2.175C15.988,0.98,14.262,0,12.868,0H6.99H1.547
				C0.15,0-0.404,0.98,0.314,2.175L13.31,23.809c0.718,1.195,0.718,3.152,0,4.351L0.229,50.026c-0.505,1.081,0.02,1.938,1.317,1.938
				h5.441h5.88c1.394,0,3.12-0.976,3.839-2.175l10.119-16.839l2.876-4.79C30.421,26.96,30.421,25.003,29.702,23.809z"/>
		</g>
		<g>
			<g>
				<path fill="#4D4D4D" d="M61.034,14.321c0,2.429-0.668,4.3-2.005,5.614c-1.336,1.314-3.217,1.971-5.64,1.971h-4.708V7.354h5.038
					c2.336,0,4.138,0.597,5.408,1.792C60.398,10.34,61.034,12.065,61.034,14.321z M56.953,14.461c0-1.334-0.262-2.322-0.79-2.967
					c-0.528-0.644-1.329-0.965-2.404-0.965h-1.145v8.152h0.876c1.194,0,2.07-0.347,2.628-1.04
					C56.676,16.948,56.953,15.888,56.953,14.461z"/>
				<path fill="#4D4D4D" d="M68.859,22.106c-1.88,0-3.337-0.5-4.375-1.498c-1.039-0.999-1.559-2.42-1.559-4.266
					c0-1.904,0.48-3.366,1.443-4.385c0.963-1.019,2.336-1.528,4.121-1.528c1.699,0,3.012,0.443,3.938,1.329
					c0.924,0.886,1.388,2.162,1.388,3.828v1.731h-6.958c0.027,0.631,0.257,1.125,0.692,1.483c0.436,0.358,1.026,0.538,1.778,0.538
					c0.683,0,1.311-0.065,1.885-0.194c0.572-0.13,1.196-0.351,1.867-0.662v2.797c-0.611,0.312-1.24,0.527-1.891,0.646
					S69.762,22.106,68.859,22.106z M68.63,13.078c-0.457,0-0.842,0.144-1.149,0.433c-0.31,0.288-0.49,0.741-0.543,1.359h3.345
					c-0.014-0.544-0.167-0.979-0.462-1.305C69.524,13.24,69.128,13.078,68.63,13.078z"/>
				<path fill="#4D4D4D" d="M84.727,18.443c0,1.207-0.411,2.12-1.234,2.737c-0.824,0.618-2.005,0.926-3.545,0.926
					c-0.835,0-1.562-0.045-2.18-0.134c-0.617-0.09-1.248-0.254-1.891-0.493v-3.116c0.603,0.266,1.266,0.485,1.985,0.657
					c0.719,0.172,1.362,0.259,1.927,0.259c0.842,0,1.264-0.192,1.264-0.577c0-0.199-0.117-0.377-0.354-0.533
					c-0.235-0.157-0.92-0.459-2.055-0.911c-1.035-0.425-1.761-0.908-2.171-1.449c-0.411-0.54-0.617-1.225-0.617-2.055
					c0-1.048,0.404-1.865,1.216-2.45c0.809-0.583,1.953-0.875,3.434-0.875c0.742,0,1.44,0.082,2.094,0.244
					c0.653,0.164,1.334,0.401,2.037,0.711l-1.056,2.509c-0.519-0.232-1.065-0.43-1.642-0.592c-0.578-0.163-1.049-0.245-1.414-0.245
					c-0.638,0-0.957,0.157-0.957,0.468c0,0.192,0.112,0.357,0.335,0.493c0.222,0.136,0.864,0.413,1.925,0.831
					c0.789,0.326,1.38,0.645,1.768,0.956c0.389,0.312,0.675,0.679,0.856,1.1C84.635,17.326,84.727,17.838,84.727,18.443z"/>
				<path fill="#4D4D4D" d="M86.806,7.822c0-0.584,0.163-1.019,0.488-1.304s0.849-0.429,1.573-0.429c0.723,0,1.25,0.147,1.583,0.439
					c0.331,0.292,0.497,0.724,0.497,1.294c0,1.141-0.692,1.712-2.08,1.712C87.492,9.534,86.806,8.963,86.806,7.822z M90.798,21.907
					h-3.892V10.628h3.892V21.907z"/>
				<path fill="#4D4D4D" d="M104.156,10.628v1.881l-1.543,0.568c0.213,0.385,0.32,0.832,0.32,1.344c0,1.214-0.427,2.156-1.28,2.827
					s-2.127,1.006-3.818,1.006c-0.418,0-0.749-0.027-0.993-0.08c-0.096,0.172-0.141,0.335-0.141,0.487
					c0,0.192,0.155,0.34,0.469,0.444c0.31,0.102,0.719,0.154,1.223,0.154h1.872c2.528,0,3.793,1.065,3.793,3.195
					c0,1.375-0.586,2.442-1.757,3.206c-1.173,0.762-2.816,1.144-4.933,1.144c-1.601,0-2.833-0.267-3.698-0.801
					c-0.866-0.534-1.301-1.302-1.301-2.305c0-1.347,0.838-2.216,2.51-2.608c-0.345-0.146-0.645-0.381-0.901-0.707
					c-0.253-0.325-0.382-0.646-0.382-0.965c0-0.352,0.096-0.662,0.288-0.931c0.192-0.269,0.594-0.589,1.205-0.96
					c-0.585-0.259-1.044-0.664-1.38-1.215c-0.334-0.55-0.502-1.221-0.502-2.011c0-1.228,0.418-2.179,1.254-2.856
					c0.835-0.676,2.031-1.016,3.583-1.016c0.206,0,0.561,0.023,1.066,0.07c0.503,0.046,0.875,0.089,1.114,0.129H104.156z
					 M95.655,23.311c0,0.318,0.172,0.575,0.518,0.771c0.347,0.195,0.806,0.294,1.385,0.294c0.94,0,1.697-0.119,2.264-0.354
					c0.567-0.236,0.851-0.54,0.851-0.911c0-0.299-0.173-0.509-0.516-0.632c-0.347-0.123-0.842-0.184-1.483-0.184h-1.524
					c-0.418,0-0.771,0.098-1.061,0.293C95.801,22.784,95.655,23.024,95.655,23.311z M96.88,14.321c0,1.155,0.401,1.732,1.206,1.732
					c0.369,0,0.656-0.142,0.858-0.427c0.203-0.286,0.305-0.714,0.305-1.284c0-1.168-0.388-1.752-1.163-1.752
					C97.281,12.59,96.88,13.167,96.88,14.321z"/>
				<path fill="#4D4D4D" d="M112.986,21.907v-6.152c0-0.75-0.107-1.315-0.324-1.697c-0.216-0.381-0.562-0.572-1.039-0.572
					c-0.658,0-1.132,0.263-1.423,0.787c-0.292,0.524-0.438,1.423-0.438,2.697v4.938h-3.894V10.628h2.938l0.487,1.393h0.23
					c0.33-0.53,0.79-0.928,1.378-1.194c0.587-0.265,1.262-0.398,2.025-0.398c1.247,0,2.218,0.362,2.911,1.085
					c0.692,0.724,1.041,1.742,1.041,3.056v7.337H112.986z"/>
				<path fill="#4D4D4D" d="M129.54,21.907l-0.984-1.016c-0.599,0.378-1.089,0.638-1.47,0.782c-0.381,0.142-0.81,0.25-1.284,0.324
					c-0.474,0.072-1.017,0.109-1.627,0.109c-1.049,0-1.977-0.18-2.782-0.538c-0.807-0.359-1.424-0.859-1.853-1.503
					c-0.427-0.643-0.642-1.377-0.642-2.2c0-1.739,0.903-3.069,2.708-3.991c-0.41-0.465-0.731-0.958-0.961-1.478
					c-0.228-0.521-0.343-1.11-0.343-1.768c0-1.062,0.41-1.904,1.229-2.528c0.819-0.624,1.947-0.937,3.381-0.937
					c1.4,0,2.489,0.31,3.27,0.932c0.779,0.62,1.169,1.464,1.169,2.533c0,0.737-0.21,1.418-0.631,2.045
					c-0.422,0.627-1.087,1.216-1.996,1.767l1.981,1.881c0.496-0.762,0.841-1.625,1.035-2.588h4.039
					c-0.198,0.916-0.512,1.834-0.939,2.752c-0.429,0.92-0.91,1.707-1.449,2.365l3.186,3.055H129.54z M122.91,17.586
					c0,0.418,0.15,0.76,0.449,1.025c0.298,0.266,0.691,0.398,1.184,0.398c0.379,0,0.71-0.05,0.995-0.15
					c0.285-0.099,0.504-0.212,0.657-0.338l-2.468-2.509C123.183,16.418,122.91,16.943,122.91,17.586z M125.847,10.628
					c0-0.325-0.094-0.56-0.283-0.701c-0.189-0.143-0.427-0.215-0.712-0.215c-0.278,0-0.523,0.083-0.732,0.249
					s-0.312,0.431-0.312,0.796c0,0.498,0.292,1.012,0.877,1.542c0.376-0.212,0.665-0.466,0.865-0.761
					C125.748,11.244,125.847,10.941,125.847,10.628z"/>
				<path fill="#4D4D4D" d="M142.46,21.907h-3.932V10.569h-3.553V7.354h11.028v3.216h-3.544V21.907z"/>
				<path fill="#4D4D4D" d="M153.301,22.106c-1.879,0-3.336-0.5-4.375-1.498c-1.039-0.999-1.559-2.42-1.559-4.266
					c0-1.904,0.48-3.366,1.444-4.385c0.962-1.019,2.336-1.528,4.121-1.528c1.699,0,3.012,0.443,3.937,1.329
					c0.926,0.886,1.389,2.162,1.389,3.828v1.731h-6.959c0.027,0.631,0.257,1.125,0.692,1.483c0.436,0.358,1.026,0.538,1.778,0.538
					c0.683,0,1.311-0.065,1.885-0.194c0.574-0.13,1.197-0.351,1.868-0.662v2.797c-0.612,0.312-1.241,0.527-1.892,0.646
					S154.203,22.106,153.301,22.106z M153.071,13.078c-0.456,0-0.841,0.144-1.148,0.433c-0.309,0.288-0.491,0.741-0.543,1.359h3.344
					c-0.013-0.544-0.167-0.979-0.462-1.305C153.967,13.24,153.569,13.078,153.071,13.078z"/>
				<path fill="#4D4D4D" d="M165.595,22.106c-1.847,0-3.243-0.498-4.197-1.494c-0.952-0.995-1.428-2.425-1.428-4.291
					c0-1.871,0.515-3.321,1.544-4.35c1.027-1.028,2.491-1.543,4.389-1.543c1.308,0,2.538,0.286,3.692,0.857l-1.144,2.876
					c-0.472-0.206-0.905-0.371-1.305-0.493c-0.397-0.123-0.812-0.184-1.244-0.184c-0.63,0-1.119,0.246-1.462,0.737
					c-0.347,0.491-0.52,1.184-0.52,2.081c0,1.805,0.669,2.707,2.002,2.707c1.142,0,2.235-0.332,3.284-0.996v3.096
					C168.205,21.774,167,22.106,165.595,22.106z"/>
				<path fill="#4D4D4D" d="M178.545,21.907v-6.152c0-1.513-0.447-2.27-1.343-2.27c-0.639,0-1.106,0.267-1.411,0.802
					c-0.301,0.533-0.452,1.421-0.452,2.663v4.957h-3.892V6.417h3.892v2.201c0,0.995-0.052,2.129-0.159,3.403h0.179
					c0.373-0.583,0.813-0.995,1.325-1.234c0.51-0.239,1.104-0.358,1.78-0.358c1.262,0,2.243,0.363,2.941,1.09
					c0.701,0.727,1.052,1.744,1.052,3.05v7.337H178.545z"/>
			</g>
			<g>
				<path fill="#4D4D4D" d="M55.222,30.83c-1.368,0-2.441,0.484-3.227,1.453c-0.781,0.969-1.172,2.307-1.172,4.012
					c0,1.785,0.376,3.135,1.129,4.051c0.753,0.916,1.842,1.374,3.27,1.374c0.617,0,1.216-0.061,1.792-0.184
					c0.578-0.123,1.178-0.281,1.801-0.473v2.041c-1.141,0.432-2.434,0.647-3.881,0.647c-2.13,0-3.768-0.645-4.907-1.936
					c-1.143-1.291-1.712-3.137-1.712-5.539c0-1.513,0.277-2.837,0.83-3.972c0.554-1.135,1.356-2.004,2.403-2.608
					c1.05-0.604,2.279-0.905,3.694-0.905c1.486,0,2.859,0.312,4.12,0.935l-0.854,1.981c-0.492-0.232-1.012-0.437-1.559-0.612
					C56.401,30.917,55.826,30.83,55.222,30.83z"/>
				<path fill="#4D4D4D" d="M71.467,38.027c0,1.798-0.461,3.202-1.383,4.21c-0.924,1.009-2.208,1.513-3.854,1.513
					c-1.028,0-1.938-0.232-2.727-0.697c-0.79-0.464-1.396-1.131-1.822-2c-0.424-0.87-0.637-1.879-0.637-3.026
					c0-1.786,0.458-3.179,1.373-4.181c0.916-1.001,2.207-1.503,3.873-1.503c1.593,0,2.854,0.512,3.782,1.539
					C71.001,34.906,71.467,36.289,71.467,38.027z M63.454,38.027c0,2.542,0.939,3.812,2.815,3.812c1.859,0,2.788-1.27,2.788-3.812
					c0-2.515-0.936-3.773-2.806-3.773c-0.982,0-1.694,0.325-2.136,0.976C63.675,35.88,63.454,36.812,63.454,38.027z M64.739,31.198
					V30.95c0.376-0.465,0.767-0.982,1.17-1.553c0.399-0.571,0.718-1.059,0.948-1.464h2.718v0.209
					c-0.345,0.405-0.859,0.928-1.548,1.567c-0.687,0.641-1.266,1.137-1.736,1.488H64.739z"/>
				<path fill="#4D4D4D" d="M79.738,32.343c0.472,0,0.859,0.034,1.166,0.1l-0.229,2.179c-0.333-0.079-0.678-0.12-1.035-0.12
					c-0.938,0-1.694,0.306-2.275,0.916c-0.58,0.611-0.872,1.404-0.872,2.38v5.753h-2.339V32.542h1.832l0.309,1.941h0.119
					c0.365-0.657,0.842-1.178,1.429-1.563C78.43,32.535,79.063,32.343,79.738,32.343z"/>
				<path fill="#4D4D4D" d="M86.657,43.75c-1.374,0-2.445-0.498-3.216-1.493c-0.77-0.996-1.154-2.392-1.154-4.19
					c0-1.805,0.391-3.21,1.169-4.216c0.781-1.004,1.861-1.508,3.241-1.508c1.445,0,2.549,0.535,3.305,1.603h0.12
					c-0.113-0.789-0.17-1.413-0.17-1.872v-4.011h2.349v15.489H90.47l-0.409-1.444h-0.108C89.201,43.204,88.104,43.75,86.657,43.75z
					 M87.283,41.859c0.964,0,1.663-0.271,2.101-0.811c0.438-0.542,0.665-1.419,0.677-2.633v-0.329c0-1.386-0.225-2.372-0.677-2.956
					c-0.45-0.584-1.157-0.876-2.118-0.876c-0.823,0-1.459,0.333-1.903,1c-0.444,0.666-0.665,1.618-0.665,2.852
					c0,1.221,0.215,2.152,0.646,2.792C85.773,41.539,86.421,41.859,87.283,41.859z"/>
				<path fill="#4D4D4D" d="M105.412,38.027c0,1.798-0.463,3.202-1.385,4.21c-0.923,1.009-2.207,1.513-3.854,1.513
					c-1.027,0-1.937-0.232-2.727-0.697c-0.791-0.464-1.396-1.131-1.821-2c-0.425-0.87-0.638-1.879-0.638-3.026
					c0-1.786,0.459-3.179,1.374-4.181c0.916-1.001,2.206-1.503,3.874-1.503c1.592,0,2.852,0.512,3.781,1.539
					C104.947,34.906,105.412,36.289,105.412,38.027z M97.397,38.027c0,2.542,0.938,3.812,2.817,3.812
					c1.857,0,2.787-1.27,2.787-3.812c0-2.515-0.936-3.773-2.808-3.773c-0.981,0-1.694,0.325-2.134,0.976
					C97.619,35.88,97.397,36.812,97.397,38.027z"/>
				<path fill="#4D4D4D" d="M113.723,32.343c1.373,0,2.443,0.498,3.211,1.493c0.766,0.996,1.148,2.393,1.148,4.191
					c0,1.805-0.389,3.21-1.164,4.215c-0.777,1.005-1.855,1.508-3.235,1.508c-1.395,0-2.476-0.5-3.245-1.503h-0.16l-0.426,1.304
					h-1.753V28.062h2.339v3.683c0,0.272-0.014,0.677-0.041,1.215c-0.026,0.538-0.046,0.879-0.059,1.024h0.1
					C111.18,32.891,112.276,32.343,113.723,32.343z M113.115,34.254c-0.943,0-1.62,0.277-2.035,0.831
					c-0.414,0.555-0.629,1.482-0.643,2.783v0.16c0,1.34,0.213,2.311,0.637,2.911c0.425,0.601,1.119,0.901,2.081,0.901
					c0.829,0,1.458-0.328,1.887-0.984c0.428-0.658,0.642-1.606,0.642-2.848C115.684,35.506,114.827,34.254,113.115,34.254z"/>
				<path fill="#4D4D4D" d="M127.688,43.551l-0.467-1.533h-0.079c-0.531,0.67-1.065,1.126-1.604,1.369s-1.228,0.363-2.07,0.363
					c-1.081,0-1.926-0.292-2.534-0.875c-0.605-0.584-0.91-1.411-0.91-2.479c0-1.134,0.421-1.991,1.266-2.568
					c0.841-0.578,2.127-0.893,3.851-0.946l1.9-0.06v-0.587c0-0.704-0.164-1.23-0.492-1.578c-0.328-0.349-0.838-0.523-1.527-0.523
					c-0.563,0-1.104,0.083-1.623,0.249c-0.516,0.167-1.016,0.362-1.493,0.588l-0.756-1.672c0.597-0.312,1.25-0.55,1.96-0.711
					c0.71-0.163,1.381-0.245,2.011-0.245c1.402,0,2.458,0.306,3.171,0.916c0.713,0.611,1.071,1.57,1.071,2.876v7.416H127.688z
					 M124.203,41.959c0.85,0,1.533-0.238,2.047-0.711c0.514-0.475,0.772-1.14,0.772-1.997v-0.955l-1.414,0.06
					c-1.103,0.04-1.903,0.225-2.404,0.553s-0.752,0.832-0.752,1.508c0,0.492,0.146,0.871,0.438,1.14
					C123.183,41.825,123.62,41.959,124.203,41.959z"/>
				<path fill="#4D4D4D" d="M147.01,43.551h-9.865v-1.772l3.752-3.773c1.108-1.134,1.844-1.939,2.205-2.414
					c0.362-0.474,0.627-0.92,0.792-1.338s0.249-0.867,0.249-1.344c0-0.656-0.197-1.174-0.594-1.553
					c-0.394-0.377-0.939-0.567-1.637-0.567c-0.556,0-1.096,0.104-1.617,0.309c-0.521,0.206-1.122,0.578-1.806,1.115l-1.265-1.543
					c0.809-0.684,1.596-1.168,2.358-1.454c0.764-0.285,1.576-0.427,2.438-0.427c1.354,0,2.44,0.353,3.255,1.06
					c0.817,0.707,1.226,1.657,1.226,2.852c0,0.657-0.119,1.28-0.354,1.871s-0.597,1.2-1.085,1.826
					c-0.487,0.627-1.299,1.476-2.433,2.544l-2.529,2.448v0.101h6.909V43.551z"/>
				<path fill="#4D4D4D" d="M158.646,36.275c0,2.527-0.406,4.406-1.22,5.633c-0.813,1.229-2.056,1.842-3.728,1.842
					c-1.62,0-2.848-0.633-3.683-1.901c-0.837-1.267-1.256-3.126-1.256-5.574c0-2.569,0.407-4.462,1.22-5.679
					c0.813-1.218,2.053-1.827,3.719-1.827c1.626,0,2.856,0.637,3.691,1.911C158.228,31.954,158.646,33.82,158.646,36.275z
					 M151.131,36.275c0,1.984,0.204,3.401,0.613,4.25c0.406,0.85,1.059,1.274,1.955,1.274s1.551-0.431,1.965-1.294
					c0.416-0.863,0.623-2.272,0.623-4.23c0-1.951-0.207-3.363-0.623-4.236c-0.414-0.873-1.068-1.309-1.965-1.309
					s-1.549,0.428-1.955,1.284C151.335,32.87,151.131,34.291,151.131,36.275z"/>
				<path fill="#4D4D4D" d="M167.286,43.551h-2.339v-9.397c0-1.121,0.027-2.011,0.08-2.667c-0.153,0.159-0.34,0.335-0.563,0.528
					c-0.221,0.192-0.966,0.803-2.234,1.832l-1.174-1.483l4.279-3.364h1.951V43.551z"/>
				<path fill="#4D4D4D" d="M176.993,34.463c1.465,0,2.627,0.389,3.483,1.165c0.855,0.776,1.284,1.835,1.284,3.175
					c0,1.553-0.486,2.766-1.459,3.639s-2.354,1.309-4.146,1.309c-1.625,0-2.904-0.262-3.832-0.786v-2.12
					c0.537,0.305,1.155,0.541,1.85,0.706c0.698,0.167,1.346,0.249,1.942,0.249c1.056,0,1.858-0.235,2.409-0.706
					s0.826-1.161,0.826-2.07c0-1.739-1.108-2.609-3.324-2.609c-0.313,0-0.698,0.031-1.155,0.095
					c-0.459,0.062-0.858,0.134-1.205,0.214l-1.044-0.617l0.557-7.107h7.564v2.08h-5.504l-0.328,3.604
					c0.231-0.04,0.516-0.085,0.853-0.139C176.099,34.49,176.507,34.463,176.993,34.463z"/>
			</g>
		</g>
	</g>
</g>
</svg>
