<?xml version="1.0" encoding="utf-8"?>
<!-- Generator: Adobe Illustrator 16.0.0, SVG Export Plug-In . SVG Version: 6.00 Build 0)  -->
<!DOCTYPE svg PUBLIC "-//W3C//DTD SVG 1.1//EN" "http://www.w3.org/Graphics/SVG/1.1/DTD/svg11.dtd">
<svg version="1.1" xmlns="http://www.w3.org/2000/svg" xmlns:xlink="http://www.w3.org/1999/xlink" x="0px" y="0px"
	 width="114.315px" height="66.095px" viewBox="0 0 114.315 66.095" enable-background="new 0 0 114.315 66.095"
	 xml:space="preserve">
<g id="plantilla" display="none">
</g>
<g id="Capa_1">
	<g>
		<g>
			<path fill-rule="evenodd" clip-rule="evenodd" fill="#FFFFFF" d="M107.927,66.085l0.034-0.606
				c0.223-0.008,0.359-0.018,0.413-0.041c0.058-0.023,0.107-0.066,0.151-0.133c0.045-0.062,0.111-0.232,0.201-0.504
				c0.051-0.153,0.231-0.742,0.546-1.758l1.056-3.534c0.113-0.388,0.357-1.25,0.74-2.591h0.266l1.797,6.278
				c0.294,1.021,0.488,1.657,0.584,1.917c0.052,0.145,0.111,0.241,0.17,0.288c0.064,0.047,0.209,0.069,0.431,0.077l-0.034,0.606
				c-0.439-0.041-2.268,0-2.268,0l0.028-0.606c0.314-0.012,0.505-0.023,0.573-0.046c0.067-0.019,0.11-0.049,0.134-0.088
				c0.025-0.042,0.04-0.09,0.04-0.15c0-0.093-0.02-0.208-0.061-0.356l-0.518-1.915h-2.436l-0.459,1.606
				c-0.082,0.29-0.126,0.502-0.126,0.634c0,0.062,0.015,0.106,0.039,0.142c0.029,0.058,0.072,0.097,0.14,0.115
				c0.104,0.035,0.291,0.051,0.549,0.059l-0.032,0.606C109.413,66.046,108.246,66.046,107.927,66.085z M109.918,62.391h2.124
				l-1.049-3.775L109.918,62.391z M103.896,66.066l0.017-0.459c0.173-0.129,0.269-0.206,0.291-0.236
				c0.019-0.033,0.034-0.091,0.044-0.172c0.018-0.123,0.033-0.391,0.043-0.796c0.018-0.405,0.019-0.72,0.019-0.93v-3.774
				c0-0.41-0.007-0.888-0.024-1.44c-0.009-0.347-0.029-0.56-0.055-0.645c-0.021-0.056-0.051-0.095-0.091-0.119
				c-0.095-0.062-0.283-0.089-0.576-0.093v-0.396c0.094,0.008,0.207,0.011,0.35,0.011l2.423-0.025c0.412,0,0.725,0.062,0.945,0.188
				c0.222,0.127,0.396,0.33,0.521,0.616c0.126,0.277,0.188,0.592,0.188,0.935c0,0.278-0.036,0.537-0.114,0.777
				c-0.071,0.243-0.173,0.454-0.299,0.633c-0.123,0.177-0.263,0.319-0.416,0.433c-0.153,0.107-0.35,0.212-0.599,0.304
				c0.33,0.044,0.591,0.115,0.797,0.204c0.204,0.086,0.371,0.221,0.504,0.4c0.141,0.174,0.242,0.391,0.312,0.642
				c0.066,0.26,0.105,0.541,0.105,0.853c0,0.619-0.146,1.331-0.395,1.8c-0.247,0.466-0.572,0.814-0.972,1.037
				c-0.292,0.169-0.645,0.253-1.043,0.253l-1.219-0.054C104.517,66.013,104.266,66.033,103.896,66.066z M105.108,60.698
				c0.163,0.013,0.302,0.022,0.423,0.022c0.35,0,0.617-0.039,0.805-0.12c0.191-0.083,0.338-0.181,0.445-0.315
				c0.104-0.128,0.188-0.303,0.252-0.522c0.076-0.222,0.108-0.481,0.108-0.78c0-0.523-0.11-0.895-0.341-1.123
				c-0.215-0.239-0.543-0.354-0.973-0.354c-0.242,0-0.463,0.032-0.677,0.096c-0.025,0.344-0.043,0.883-0.043,1.605V60.698z
				 M105.126,65.258c0.214,0.076,0.429,0.113,0.662,0.113c0.374,0,0.669-0.086,0.899-0.251c0.225-0.171,0.4-0.427,0.52-0.77
				c0.125-0.341,0.185-0.736,0.185-1.179c0-0.438-0.058-0.804-0.171-1.1c-0.111-0.304-0.291-0.522-0.518-0.666
				c-0.229-0.146-0.605-0.219-1.129-0.219c-0.122,0-0.273,0.009-0.466,0.024v2.372C105.108,63.818,105.116,64.373,105.126,65.258z
				 M97.375,61.516c0-0.662,0.072-1.271,0.199-1.832c0.137-0.557,0.358-1.061,0.664-1.506c0.31-0.445,0.662-0.782,1.047-1.009
				c0.393-0.231,0.835-0.344,1.34-0.344c0.465,0,0.883,0.098,1.262,0.296c0.379,0.19,0.688,0.446,0.931,0.768
				c0.247,0.314,0.442,0.666,0.576,1.046c0.108,0.283,0.194,0.617,0.253,1.001c0.061,0.385,0.1,0.794,0.1,1.232
				c0,1.41-0.322,2.576-0.957,3.515c-0.635,0.936-1.436,1.401-2.402,1.402c-0.443,0-0.852-0.108-1.232-0.319
				c-0.386-0.213-0.704-0.532-0.969-0.946c-0.267-0.423-0.467-0.931-0.604-1.525C97.447,62.691,97.375,62.099,97.375,61.516z
				 M98.254,60.993c0,0.397,0.025,0.8,0.076,1.208c0.054,0.412,0.127,0.765,0.205,1.061c0.131,0.498,0.309,0.924,0.526,1.262
				c0.216,0.339,0.462,0.59,0.724,0.754c0.271,0.158,0.571,0.236,0.894,0.236c0.453,0,0.845-0.162,1.179-0.488
				c0.333-0.33,0.582-0.79,0.746-1.385c0.166-0.597,0.248-1.283,0.248-2.054c0-0.669-0.061-1.28-0.176-1.839
				c-0.075-0.343-0.176-0.652-0.293-0.926c-0.121-0.278-0.264-0.52-0.434-0.728c-0.164-0.206-0.38-0.382-0.646-0.524
				c-0.264-0.143-0.557-0.213-0.866-0.213c-0.44,0-0.835,0.148-1.171,0.443c-0.341,0.295-0.59,0.727-0.764,1.287
				C98.336,59.65,98.254,60.285,98.254,60.993z M90.891,66.071L90.92,65.6c0.164-0.137,0.299-0.262,0.408-0.374
				c0.018-0.284,0.035-0.676,0.043-1.185c0.02-0.855,0.03-1.457,0.03-1.788v-2.554c0-0.41-0.006-0.888-0.029-1.44
				c-0.009-0.347-0.026-0.56-0.054-0.645c-0.023-0.056-0.051-0.095-0.092-0.119c-0.092-0.062-0.281-0.089-0.576-0.093v-0.396
				c0.41,0.024,0.772,0.036,1.084,0.036c0.242,0,0.574-0.008,0.987-0.025c0.415-0.018,0.743-0.025,0.972-0.025
				c0.688,0,1.243,0.132,1.66,0.395c0.42,0.258,0.771,0.696,1.063,1.309c0.29,0.611,0.437,1.367,0.437,2.249
				c0,0.632-0.067,1.227-0.205,1.785c-0.139,0.553-0.352,1.211-0.594,1.628c-0.233,0.416-0.488,0.742-0.755,0.987
				c-0.27,0.238-0.551,0.421-0.851,0.546c-0.293,0.122-0.699,0.181-1.215,0.181c-0.176,0-0.408-0.005-0.694-0.022
				c-0.386-0.016-0.633-0.023-0.752-0.025C91.619,66.023,91.318,66.044,90.891,66.071z M92.226,65.225
				c0.308,0.074,0.634,0.113,0.979,0.113c0.35,0,0.667-0.044,0.929-0.139c0.279-0.089,0.506-0.221,0.702-0.385
				c0.188-0.167,0.377-0.414,0.556-0.742c0.181-0.323,0.318-0.738,0.412-1.242c0.098-0.51,0.148-1.037,0.148-1.582
				c0-0.773-0.096-1.438-0.281-1.994c-0.189-0.559-0.469-0.987-0.843-1.285c-0.378-0.295-0.895-0.441-1.55-0.444
				c-0.348,0-0.7,0.039-1.052,0.119c-0.004,0.207-0.021,0.568-0.021,1.088l-0.017,0.908v2.502l0.016,1.938
				C92.204,64.375,92.212,64.758,92.226,65.225z M78.784,61.516c0-0.662,0.067-1.271,0.2-1.832c0.134-0.557,0.356-1.061,0.664-1.506
				c0.311-0.445,0.654-0.782,1.051-1.009c0.384-0.231,0.832-0.344,1.333-0.344c0.462,0,0.886,0.098,1.262,0.296
				c0.378,0.19,0.692,0.446,0.929,0.768c0.247,0.314,0.438,0.666,0.581,1.046c0.105,0.283,0.188,0.617,0.251,1.001
				c0.066,0.385,0.097,0.794,0.097,1.232c0,1.41-0.314,2.576-0.955,3.515c-0.635,0.936-1.435,1.401-2.399,1.402
				c-0.444,0-0.856-0.108-1.234-0.319c-0.382-0.213-0.706-0.532-0.971-0.946c-0.263-0.423-0.463-0.931-0.6-1.525
				C78.852,62.691,78.784,62.099,78.784,61.516z M79.664,60.993c0,0.397,0.023,0.8,0.078,1.208c0.054,0.412,0.114,0.765,0.199,1.061
				c0.136,0.498,0.31,0.924,0.525,1.262c0.221,0.339,0.463,0.59,0.73,0.754c0.266,0.158,0.566,0.236,0.893,0.236
				c0.448,0,0.842-0.162,1.181-0.488c0.331-0.33,0.581-0.79,0.743-1.385c0.164-0.597,0.247-1.283,0.247-2.054
				c0-0.669-0.058-1.28-0.178-1.839c-0.076-0.343-0.17-0.652-0.292-0.926c-0.119-0.278-0.264-0.52-0.432-0.728
				c-0.168-0.206-0.385-0.382-0.65-0.524c-0.265-0.143-0.549-0.213-0.86-0.213c-0.448,0-0.837,0.148-1.175,0.443
				c-0.337,0.295-0.59,0.727-0.762,1.287C79.745,59.65,79.664,60.285,79.664,60.993z M82.742,56.733l0.819-0.767l0.347,0.372
				l-0.823,0.766L82.742,56.733z M62.533,66.055l0.049-0.455c0.162-0.137,0.301-0.262,0.405-0.374
				c0.016-0.284,0.034-0.681,0.044-1.186c0.018-0.858,0.029-1.456,0.029-1.787v-2.558c0-0.406-0.006-0.888-0.024-1.44
				c-0.009-0.345-0.033-0.556-0.06-0.641c-0.019-0.056-0.049-0.095-0.092-0.123c-0.091-0.058-0.284-0.085-0.57-0.095v-0.393
				c0.407,0.027,0.768,0.037,1.084,0.037c0.24,0,0.569-0.01,0.986-0.023c0.416-0.018,0.74-0.025,0.971-0.025
				c0.688,0,1.238,0.131,1.658,0.395c0.414,0.258,0.771,0.696,1.064,1.309c0.293,0.611,0.439,1.362,0.439,2.249
				c0,0.632-0.07,1.227-0.208,1.785c-0.136,0.553-0.373,1.194-0.607,1.608c-0.239,0.416-0.487,0.742-0.757,0.982
				c-0.271,0.245-0.551,0.43-0.85,0.554c-0.293,0.12-0.702,0.181-1.219,0.181c-0.17,0-0.401-0.009-0.691-0.021
				c-0.382-0.021-0.631-0.025-0.746-0.029C63.267,66.004,62.963,66.023,62.533,66.055z M63.887,65.22
				c-0.016-0.462-0.022-0.845-0.025-1.141l-0.016-1.941v-0.415c0.32-0.019,0.568-0.029,0.746-0.029c0.457,0,0.771,0.026,0.931,0.075
				c0.089,0.03,0.149,0.081,0.18,0.158c0.03,0.073,0.056,0.268,0.058,0.577l0.016,0.421h0.293l-0.023-1.454l0.023-1.303v-0.119
				h-0.25l-0.025,0.436c-0.023,0.295-0.047,0.465-0.068,0.516c-0.025,0.051-0.084,0.082-0.173,0.099
				c-0.236,0.046-0.521,0.067-0.854,0.067c-0.26,0-0.543-0.009-0.852-0.031V59.64l0.019-0.908c0.004-0.521,0.012-0.881,0.022-1.088
				c0.354-0.08,0.705-0.119,1.05-0.119c0.658,0,1.175,0.146,1.546,0.444c0.379,0.298,0.662,0.725,0.843,1.281
				c0.188,0.557,0.285,1.225,0.285,1.998c0,0.545-0.048,1.066-0.148,1.577c-0.097,0.509-0.233,0.924-0.411,1.247
				c-0.182,0.328-0.369,0.571-0.561,0.74c-0.189,0.166-0.422,0.293-0.694,0.387c-0.269,0.095-0.578,0.139-0.931,0.139
				C64.518,65.338,64.195,65.299,63.887,65.22z M51.982,66.071L52,65.576c0.163-0.141,0.303-0.262,0.412-0.377
				c0.015-0.283,0.028-0.679,0.041-1.182c0.02-0.861,0.029-1.455,0.029-1.793v-2.553c0-0.408-0.01-0.889-0.027-1.441
				c-0.01-0.342-0.033-0.561-0.058-0.646c-0.021-0.052-0.048-0.093-0.089-0.116c-0.094-0.058-0.283-0.091-0.575-0.093V56.98
				c0.405,0.023,0.767,0.037,1.084,0.037c0.244,0,0.571-0.009,0.983-0.025c0.42-0.014,0.742-0.022,0.975-0.022
				c0.688,0,1.236,0.13,1.656,0.392c0.421,0.259,0.773,0.696,1.064,1.305c0.293,0.619,0.438,1.366,0.438,2.252
				c0,0.633-0.067,1.227-0.207,1.781c-0.14,0.559-0.342,1.241-0.581,1.658c-0.234,0.416-0.484,0.742-0.752,0.987
				c-0.271,0.238-0.555,0.421-0.85,0.546c-0.297,0.122-0.702,0.181-1.218,0.181c-0.171,0-0.403-0.005-0.694-0.022
				c-0.386-0.016-0.636-0.023-0.75-0.025C52.712,66.023,52.412,66.044,51.982,66.071z M53.309,65.194
				c0.307,0.079,0.631,0.12,0.975,0.12c0.354,0,0.662-0.051,0.929-0.14c0.276-0.092,0.509-0.222,0.702-0.387
				c0.191-0.168,0.379-0.415,0.554-0.74c0.181-0.324,0.322-0.742,0.412-1.249c0.102-0.503,0.152-1.03,0.152-1.576
				c0-0.773-0.097-1.439-0.284-1.994c-0.187-0.562-0.464-0.988-0.842-1.283c-0.377-0.296-0.893-0.445-1.545-0.445
				c-0.351,0-0.701,0.038-1.053,0.119c-0.011,0.204-0.021,0.566-0.021,1.09l-0.016,0.903v2.503l0.009,1.938
				C53.287,64.352,53.29,64.729,53.309,65.194z M45.124,66.085l-0.013-0.636c0.224-0.001,0.359-0.014,0.413-0.035
				c0.058-0.026,0.107-0.069,0.153-0.134c0.049-0.067,0.118-0.232,0.205-0.506c0.049-0.154,0.229-0.742,0.541-1.761l1.059-3.53
				c0.111-0.392,0.358-1.253,0.731-2.59h0.274l1.795,6.278c0.293,1.019,0.489,1.658,0.581,1.914
				c0.055,0.146,0.114,0.242,0.175,0.289c0.064,0.045,0.204,0.073,0.428,0.074l0.01,0.636c-0.438-0.041-2.271,0-2.271,0
				l-0.008-0.636c0.311-0.008,0.501-0.023,0.568-0.044c0.068-0.018,0.113-0.047,0.138-0.09c0.026-0.038,0.036-0.089,0.036-0.146
				c0-0.094-0.019-0.21-0.061-0.357l-0.515-1.916h-2.436l-0.462,1.607c-0.077,0.289-0.119,0.5-0.119,0.634
				c0,0.057,0.01,0.104,0.031,0.143c0.031,0.058,0.082,0.092,0.146,0.113c0.104,0.032,0.285,0.055,0.549,0.056l0.006,0.636
				C46.606,66.046,45.445,66.046,45.124,66.085z M47.074,62.365h2.123l-1.055-3.777L47.074,62.365z M40.061,66.055l0.04-0.479
				c0.159-0.141,0.299-0.262,0.407-0.377c0.016-0.283,0.025-0.679,0.041-1.182c0.02-0.861,0.027-1.455,0.027-1.793v-2.553
				c0-0.408-0.008-0.889-0.024-1.441c-0.012-0.342-0.028-0.561-0.056-0.646c-0.019-0.052-0.051-0.093-0.091-0.116
				c-0.091-0.058-0.284-0.091-0.577-0.093V56.98c0.41,0.023,0.773,0.037,1.088,0.037c0.241,0,0.568-0.009,0.98-0.025
				c0.421-0.014,0.744-0.022,0.974-0.022c0.687,0,1.243,0.13,1.657,0.392c0.422,0.259,0.773,0.696,1.064,1.305
				c0.297,0.619,0.438,1.366,0.438,2.252c0,0.633-0.069,1.227-0.206,1.781c-0.14,0.559-0.355,1.225-0.595,1.639
				c-0.233,0.416-0.487,0.742-0.757,0.982c-0.266,0.245-0.555,0.43-0.85,0.554c-0.297,0.12-0.697,0.181-1.219,0.181
				c-0.17,0-0.401-0.009-0.693-0.021c-0.381-0.021-0.632-0.025-0.747-0.029C40.794,66.004,40.491,66.023,40.061,66.055z
				 M41.398,65.194c0.312,0.079,0.637,0.12,0.981,0.12c0.357,0,0.667-0.051,0.933-0.14c0.275-0.092,0.502-0.222,0.695-0.387
				c0.191-0.168,0.379-0.415,0.561-0.74c0.179-0.324,0.318-0.742,0.413-1.249c0.095-0.503,0.143-1.03,0.143-1.576
				c0-0.773-0.091-1.439-0.282-1.994c-0.18-0.562-0.463-0.988-0.84-1.283c-0.377-0.296-0.893-0.445-1.547-0.445
				c-0.344,0-0.697,0.038-1.057,0.119c-0.002,0.204-0.01,0.566-0.018,1.09l-0.018,0.903v2.503l0.012,1.938
				C41.381,64.352,41.389,64.729,41.398,65.194z M85.003,57.409v-0.402l0.499,0.021c0,0,1.22,0.022,1.551,0.004
				c0.438-0.024,0.692-0.039,0.763-0.039c0.54,0,0.929,0.069,1.176,0.218c0.241,0.139,0.432,0.371,0.567,0.692
				c0.132,0.314,0.198,0.663,0.198,1.039c0,0.349-0.06,0.698-0.185,1.043c-0.127,0.345-0.31,0.635-0.552,0.864
				c-0.241,0.229-0.55,0.408-0.937,0.532c0.074,0.147,0.24,0.474,0.498,0.977l1.058,2.084c0.307,0.574,0.484,0.903,0.53,0.969
				c0.028,0.025,0.053,0.05,0.079,0.057c0.044,0.025,0.135,0.034,0.276,0.034l-0.018,0.584c-0.212-0.025-0.932-0.025-1.173,0
				c-0.181-0.315-0.468-1.109-0.894-2.019c-0.242-0.503-0.452-0.926-0.633-1.264c-0.293-0.562-0.573-1.064-0.844-1.521l0.045-0.188
				c0.144,0.013,0.258,0.021,0.328,0.021c0.513,0,0.899-0.177,1.16-0.54c0.266-0.358,0.4-0.832,0.4-1.422
				c0-0.51-0.111-0.917-0.342-1.221c-0.226-0.305-0.57-0.455-1.03-0.455c-0.291,0-0.57,0.062-0.851,0.193
				c-0.008,0.224-0.016,0.432-0.025,0.633c0,0.06-0.016,0.662-0.027,1.82v2.783c0,0.563,0.005,1.121,0.012,1.654
				c0.012,0.399,0.028,0.634,0.059,0.709c0.035,0.075,0.085,0.132,0.16,0.168c0.071,0.033,0.275,0.055,0.604,0.063l-0.019,0.584
				c-0.397-0.032-1.819-0.032-2.455,0l0.02-0.584c0.333-0.009,0.53-0.03,0.608-0.063c0.07-0.036,0.121-0.086,0.149-0.148
				c0.032-0.085,0.055-0.285,0.06-0.606c0.008-0.089,0.014-0.682,0.023-1.776v-2.903c0-0.567-0.01-1.122-0.016-1.665
				c-0.008-0.396-0.027-0.63-0.062-0.699c-0.033-0.075-0.084-0.132-0.154-0.162C85.543,57.435,85.338,57.414,85.003,57.409z
				 M78.709,64.801l-0.163,0.579c-0.327,0.249-0.646,0.427-0.964,0.532c-0.312,0.113-0.654,0.173-1.025,0.173
				c-0.436,0-0.839-0.081-1.211-0.249c-0.37-0.159-0.703-0.392-0.984-0.692c-0.277-0.306-0.504-0.642-0.679-1.019
				c-0.174-0.376-0.312-0.784-0.405-1.219c-0.093-0.445-0.138-0.928-0.138-1.456c0-1.332,0.312-2.432,0.937-3.306
				c0.626-0.876,1.475-1.312,2.557-1.312c0.255,0,0.491,0.022,0.707,0.065c0.217,0.044,0.48,0.13,0.793,0.249
				c0.313,0.123,0.506,0.193,0.576,0.218c-0.062,0.228-0.109,0.452-0.138,0.676c-0.046,0.354-0.075,0.764-0.091,1.232h-0.27v-0.738
				c-0.031-0.408-0.182-0.716-0.459-0.914c-0.275-0.199-0.678-0.3-1.211-0.3c-0.401,0.008-0.738,0.086-1.016,0.231
				c-0.275,0.144-0.524,0.369-0.736,0.684c-0.208,0.309-0.385,0.699-0.519,1.179c-0.135,0.476-0.203,1.077-0.206,1.798
				c0,1.267,0.26,2.286,0.777,3.056c0.521,0.768,1.207,1.152,2.062,1.152c0.384,0,0.737-0.075,1.069-0.238
				c0.221-0.109,0.447-0.28,0.666-0.514L78.709,64.801z M0,57.382V56.98c0.459,0.033,2.065,0.033,2.458,0v0.401
				c-0.331,0.005-0.53,0.03-0.605,0.069c-0.073,0.033-0.122,0.078-0.147,0.142c-0.037,0.083-0.059,0.285-0.061,0.606
				c-0.01,0.084-0.018,0.679-0.024,1.781v2.315c0,0.896,0.041,1.49,0.116,1.776c0.078,0.285,0.199,0.521,0.371,0.706
				c0.13,0.143,0.303,0.259,0.521,0.345c0.217,0.084,0.461,0.126,0.733,0.126c0.312,0,0.593-0.055,0.835-0.169
				c0.246-0.116,0.428-0.257,0.547-0.42c0.121-0.166,0.215-0.35,0.275-0.556c0.06-0.206,0.105-0.484,0.131-0.838
				c0.025-0.36,0.041-0.811,0.041-1.358V59.98c0-0.567-0.006-1.127-0.016-1.67c-0.008-0.392-0.025-0.627-0.062-0.696
				c-0.032-0.076-0.079-0.13-0.155-0.163c-0.07-0.039-0.273-0.064-0.607-0.069V56.98c0.463,0.033,1.561,0.033,2.062,0v0.401
				c-0.33,0.005-0.536,0.03-0.61,0.069c-0.068,0.033-0.114,0.078-0.144,0.142c-0.031,0.083-0.057,0.285-0.064,0.606
				c-0.007,0.084-0.007,0.679-0.014,1.781v2.096c0,1.029-0.054,1.748-0.149,2.159c-0.097,0.408-0.274,0.772-0.531,1.08
				c-0.195,0.237-0.444,0.421-0.746,0.548c-0.305,0.129-0.645,0.192-1.01,0.192c-0.435,0-0.811-0.073-1.123-0.225
				c-0.319-0.154-0.56-0.353-0.729-0.602c-0.162-0.251-0.275-0.504-0.345-0.763c-0.069-0.342-0.112-0.915-0.112-1.721V59.98
				c0-0.567-0.006-1.127-0.014-1.67c-0.009-0.392-0.029-0.627-0.062-0.696c-0.032-0.076-0.086-0.13-0.156-0.163
				C0.534,57.412,0.33,57.387,0,57.382z M6.617,66.085V65.48c0.294-0.002,0.486-0.036,0.579-0.101
				c0.04-0.021,0.067-0.064,0.085-0.12c0.024-0.082,0.049-0.3,0.061-0.655c0.014-0.552,0.021-1.027,0.021-1.429v-5.102
				c0-0.137-0.005-0.224-0.017-0.267c-0.024-0.075-0.072-0.169-0.15-0.27c-0.048-0.07-0.106-0.11-0.177-0.126
				c-0.066-0.021-0.211-0.035-0.438-0.037V56.98c0.467,0.017,1.29,0.017,1.494,0c0.236,0.463,0.412,0.805,0.525,1.025l0.871,1.597
				l1.27,2.281c0.41,0.727,0.736,1.298,0.984,1.712c0.15,0.277,0.285,0.492,0.389,0.651v-4.575c0-0.408-0.007-0.889-0.027-1.441
				c-0.01-0.342-0.027-0.561-0.052-0.646c-0.019-0.052-0.051-0.093-0.092-0.116c-0.088-0.058-0.282-0.091-0.575-0.093V56.98
				c0.334,0.017,1.615,0.017,1.879,0v0.395c-0.291,0.002-0.484,0.035-0.576,0.093c-0.043,0.023-0.068,0.065-0.084,0.125
				c-0.026,0.077-0.049,0.298-0.06,0.657c-0.018,0.553-0.025,1.024-0.025,1.422v3.012c0,0.61,0.007,1.743,0.024,3.411l-0.439-0.188
				l-0.1-0.029c-0.018-0.008-0.03-0.021-0.045-0.041c-0.018-0.019-0.076-0.1-0.162-0.25c-0.234-0.392-0.402-0.685-0.511-0.889
				l-0.545-1.021L7.742,58.38v4.796c0,0.414,0.009,0.896,0.034,1.447c0.007,0.35,0.025,0.559,0.05,0.637
				c0.021,0.061,0.05,0.103,0.092,0.128c0.091,0.061,0.281,0.091,0.572,0.093v0.604C8.246,66.055,6.996,66.055,6.617,66.085z
				 M15.938,65.474v0.611c-0.599-0.032-2.482,0-2.482,0v-0.611c0.333-0.009,0.535-0.025,0.61-0.06
				c0.07-0.039,0.126-0.086,0.153-0.154c0.027-0.082,0.054-0.284,0.062-0.604c0-0.089,0.007-0.683,0.017-1.775V59.98
				c0-0.567-0.008-1.127-0.016-1.67c-0.004-0.392-0.027-0.627-0.062-0.696c-0.027-0.076-0.083-0.13-0.153-0.163
				c-0.071-0.039-0.272-0.064-0.61-0.069V56.98c0.539,0.028,1.938,0.028,2.482,0v0.401c-0.335,0.005-0.538,0.03-0.612,0.069
				c-0.067,0.033-0.118,0.078-0.146,0.142c-0.035,0.083-0.053,0.285-0.064,0.606c-0.002,0.084-0.008,0.679-0.018,1.781v2.899
				c0,0.563,0.008,1.118,0.016,1.657c0.007,0.394,0.025,0.633,0.061,0.705c0.032,0.073,0.084,0.133,0.151,0.172
				C15.399,65.448,15.603,65.465,15.938,65.474z M18.96,66.085c-0.092-0.362-0.265-1.207-0.536-2.247l-1.422-5.27
				c-0.154-0.559-0.25-0.882-0.284-0.967c-0.026-0.057-0.062-0.096-0.108-0.119c-0.061-0.048-0.217-0.073-0.465-0.101V56.98
				c0.512,0.033,1.738,0.033,2.279,0v0.442c-0.338,0.007-0.537,0.021-0.595,0.032c-0.05,0.013-0.088,0.036-0.112,0.074
				c-0.019,0.034-0.029,0.074-0.029,0.12c0,0.05,0.021,0.153,0.056,0.327c0.122,0.553,0.229,0.998,0.323,1.338l1.315,4.945
				l1.094-4.103c0.158-0.584,0.314-1.227,0.462-1.92c0.062-0.296,0.092-0.479,0.092-0.551c0-0.103-0.037-0.167-0.11-0.2
				c-0.06-0.029-0.271-0.063-0.649-0.104V56.98c0.426,0.023,1.478,0.023,1.86,0v0.401c-0.213,0.01-0.337,0.032-0.379,0.062
				c-0.044,0.029-0.082,0.086-0.118,0.176c-0.027,0.062-0.131,0.399-0.312,1.013l-1.317,4.812l-0.323,1.229
				c-0.064,0.245-0.117,0.462-0.162,0.643c-0.039,0.178-0.086,0.533-0.136,0.771H18.96z M22.43,66.087V65.48
				c0.295-0.002,0.485-0.036,0.579-0.101c0.042-0.021,0.068-0.064,0.091-0.12c0.022-0.082,0.045-0.3,0.055-0.655
				c0.015-0.552,0.027-1.027,0.027-1.429V59.98c0-0.567-0.004-1.127-0.013-1.67c-0.015-0.392-0.031-0.627-0.065-0.696
				c-0.029-0.076-0.086-0.13-0.158-0.163c-0.067-0.039-0.271-0.064-0.601-0.069V56.98c0,0,4.337,0.012,4.577,0.055
				c-0.041,0.24-0.069,0.447-0.091,0.622c-0.003,0.038-0.028,0.473-0.076,1.302h-0.262c0.001-0.425-0.018-0.814-0.058-1.164
				c-0.152-0.096-0.324-0.162-0.509-0.193c-0.316-0.062-0.628-0.091-0.942-0.091c-0.068,0-0.216,0.009-0.449,0.027
				c-0.234,0.017-0.401,0.029-0.5,0.043c-0.012,0.464-0.021,0.896-0.03,1.304L23.992,61c0.327,0.021,0.629,0.038,0.903,0.038
				c0.335,0,0.619-0.022,0.853-0.071c0.088-0.018,0.151-0.049,0.174-0.1c0.025-0.052,0.049-0.222,0.066-0.514l0.027-0.438h0.254
				v0.117l-0.023,1.305l0.023,1.457h-0.297l-0.01-0.425c-0.008-0.31-0.029-0.5-0.061-0.577c-0.027-0.073-0.094-0.127-0.183-0.156
				c-0.16-0.049-0.472-0.077-0.927-0.077c-0.188,0-0.455,0.012-0.801,0.032c-0.015,0.419-0.022,1.039-0.022,1.861
				c0,0.771,0.008,1.359,0.022,1.76c0.405,0.045,0.861,0.067,1.358,0.067c0.354,0,0.612-0.017,0.761-0.051
				c0.154-0.035,0.291-0.089,0.42-0.168c0.031-0.131,0.068-0.304,0.104-0.524c0.061-0.373,0.102-0.652,0.12-0.84h0.279
				c-0.073,0.842-0.112,1.756-0.112,2.311c-0.236,0.055-0.532,0.079-0.877,0.079C26.045,66.087,23.131,66.056,22.43,66.087z
				 M27.246,57.382V56.98l0.497,0.018c0,0,2.247-0.028,2.313-0.028c0.537,0,0.929,0.07,1.171,0.211
				c0.249,0.141,0.438,0.374,0.577,0.695c0.129,0.314,0.197,0.663,0.197,1.036c0,0.352-0.062,0.7-0.188,1.048
				c-0.128,0.347-0.31,0.632-0.55,0.864c-0.239,0.229-0.552,0.406-0.936,0.532c0.069,0.146,0.233,0.469,0.497,0.976l1.062,2.078
				c0.3,0.582,0.478,0.905,0.528,0.97c0.023,0.034,0.053,0.053,0.077,0.062c0.04,0.021,0.134,0.032,0.273,0.032v0.611
				c-0.208-0.025-0.927-0.025-1.167,0c-0.182-0.315-0.489-1.132-0.921-2.045c-0.233-0.507-0.444-0.923-0.626-1.263
				c-0.293-0.559-0.576-1.065-0.842-1.522l0.043-0.187c0.145,0.009,0.251,0.019,0.326,0.019c0.515,0,0.903-0.182,1.168-0.54
				c0.264-0.36,0.395-0.831,0.395-1.42c0-0.515-0.118-0.919-0.342-1.222c-0.228-0.304-0.568-0.454-1.032-0.454
				c-0.286,0-0.573,0.064-0.85,0.192c-0.012,0.224-0.019,0.436-0.025,0.63c0,0.059-0.013,0.672-0.027,1.823v2.783
				c0,0.563,0.003,1.118,0.015,1.657c0.005,0.394,0.021,0.633,0.055,0.705c0.034,0.073,0.087,0.133,0.162,0.172
				c0.074,0.034,0.273,0.051,0.604,0.06v0.611c-0.397-0.032-1.821-0.032-2.455,0v-0.611c0.332-0.009,0.531-0.025,0.602-0.06
				c0.074-0.039,0.124-0.086,0.152-0.154c0.036-0.082,0.058-0.284,0.067-0.604c0-0.089,0.005-0.683,0.017-1.775V59.98
				c0-0.567-0.005-1.127-0.017-1.67c-0.007-0.392-0.026-0.627-0.063-0.696c-0.028-0.076-0.082-0.13-0.156-0.163
				C27.777,57.412,27.578,57.387,27.246,57.382z M33.017,65.57c0.048-0.4,0.073-1.052,0.083-1.948h0.287
				c0.012,0.61,0.033,0.972,0.065,1.084c0.035,0.108,0.11,0.224,0.238,0.35c0.12,0.126,0.284,0.238,0.496,0.338
				c0.209,0.098,0.407,0.146,0.599,0.146c0.281,0,0.544-0.098,0.782-0.29c0.239-0.195,0.413-0.448,0.521-0.761
				c0.113-0.322,0.162-0.658,0.162-1.015c0-0.277-0.023-0.516-0.081-0.715c-0.054-0.203-0.137-0.363-0.245-0.483
				c-0.115-0.125-0.253-0.213-0.416-0.262c-0.105-0.026-0.312-0.067-0.627-0.126c-0.31-0.06-0.57-0.121-0.792-0.194
				c-0.293-0.134-0.509-0.291-0.646-0.471c-0.137-0.178-0.25-0.412-0.336-0.706c-0.084-0.291-0.13-0.607-0.13-0.943
				c0-0.495,0.087-0.958,0.259-1.392c0.176-0.439,0.433-0.775,0.767-1.021c0.337-0.242,0.706-0.361,1.101-0.361
				c0.24,0,0.499,0.048,0.783,0.143c0.279,0.09,0.547,0.229,0.789,0.407c-0.036,0.266-0.068,0.513-0.087,0.739
				c-0.011,0.223-0.028,0.56-0.035,1H36.27c-0.012-0.64-0.022-0.992-0.041-1.052c-0.07-0.147-0.164-0.286-0.287-0.403
				c-0.288-0.246-0.588-0.366-0.905-0.366c-0.405,0-0.726,0.187-0.976,0.562c-0.238,0.362-0.36,0.838-0.36,1.431
				c0,0.354,0.042,0.631,0.132,0.826c0.084,0.189,0.24,0.347,0.465,0.462c0.154,0.085,0.408,0.156,0.76,0.225
				c0.347,0.069,0.664,0.14,0.945,0.222c0.268,0.116,0.459,0.255,0.584,0.417c0.128,0.161,0.234,0.372,0.312,0.633
				c0.083,0.259,0.125,0.567,0.125,0.915c0,0.832-0.236,1.557-0.698,2.172c-0.462,0.62-1.063,0.926-1.792,0.926
				C33.975,66.056,33.469,65.893,33.017,65.57z M39.467,65.474v0.611c-0.6-0.032-2.48,0-2.48,0v-0.611
				c0.33-0.009,0.537-0.025,0.606-0.06c0.075-0.039,0.123-0.086,0.153-0.154c0.029-0.082,0.053-0.284,0.062-0.604
				c0.003-0.089,0.008-0.683,0.014-1.775V59.98c0-0.567-0.004-1.127-0.011-1.67c-0.005-0.392-0.027-0.627-0.063-0.696
				c-0.032-0.076-0.08-0.13-0.155-0.163c-0.067-0.039-0.272-0.064-0.606-0.069V56.98c0.539,0.028,1.936,0.028,2.48,0v0.401
				c-0.335,0.005-0.536,0.03-0.611,0.069c-0.068,0.033-0.119,0.078-0.146,0.142c-0.034,0.083-0.057,0.285-0.064,0.606
				c-0.003,0.084-0.006,0.679-0.018,1.781v2.899c0,0.563,0.008,1.118,0.015,1.657c0.007,0.394,0.027,0.633,0.058,0.705
				c0.031,0.073,0.088,0.133,0.156,0.172C38.931,65.448,39.132,65.465,39.467,65.474z M56.382,0L37.041,10.279v31.058l16.695,8.681
				c0.092,1.359,1.268,2.479,2.646,2.479c1.372,0,2.538-1.1,2.645-2.446l16.699-8.492V10.279L56.382,0z M39.999,24.697l2.792,1.057
				l0.137,0.078c0.05,0.814,0.175,1.604,0.367,2.375l-0.064-0.023l-2.295-0.62C40.54,26.648,40.223,25.689,39.999,24.697z
				 M43.781,29.842l0.04,0.012c0.396,1.004,0.903,1.948,1.514,2.817L43.721,32c-0.63-0.723-1.203-1.502-1.702-2.323L43.781,29.842z
				 M48.699,30.049v-0.004V30.049z M48.745,29.723c0.004-0.022,0.007-0.04,0.009-0.057C48.752,29.683,48.749,29.7,48.745,29.723z
				 M48.811,29.386c0.02-0.111,0.045-0.224,0.07-0.333l0,0C48.855,29.162,48.83,29.274,48.811,29.386z M48.695,31.796
				c0.004,0.009,0.004,0.019,0.008,0.031c-0.004-0.013-0.008-0.022-0.008-0.036V31.796z M48.762,32.24
				c-0.01-0.06-0.02-0.125-0.026-0.185C48.742,32.115,48.752,32.181,48.762,32.24z M48.855,32.68
				c-0.015-0.076-0.033-0.145-0.045-0.217C48.822,32.535,48.841,32.604,48.855,32.68z M49.147,33.594
				c-0.024-0.061-0.046-0.115-0.067-0.177C49.102,33.479,49.123,33.533,49.147,33.594z M49.004,33.201
				c-0.018-0.06-0.035-0.116-0.053-0.181C48.969,33.085,48.986,33.142,49.004,33.201z M49.371,34.121
				c-0.051-0.108-0.101-0.215-0.145-0.323C49.271,33.906,49.32,34.013,49.371,34.121z M50.267,26.264L50.267,26.264h0.005
				C50.271,26.264,50.271,26.264,50.267,26.264z M51.218,22.064l-0.028-0.069L49.558,17.1c0.739-0.523,1.542-0.971,2.399-1.313
				l0.005,0.02l0.991,5.193l0.016,0.05C52.35,21.316,51.762,21.662,51.218,22.064z M51.293,25.2L51.293,25.2L51.293,25.2
				L51.293,25.2z M50.506,25.979L50.506,25.979L50.506,25.979z M49.859,23.102l0.088,0.123c-0.377,0.411-0.707,0.855-1.007,1.332
				l-0.187-0.238l-2.543-3.604c0.428-0.702,0.917-1.364,1.469-1.97L49.859,23.102z M49.758,26.996L49.758,26.996L49.758,26.996
				L49.758,26.996z M49.516,27.421c-0.02,0.034-0.032,0.069-0.049,0.1C49.483,27.49,49.496,27.455,49.516,27.421z M48.092,25.643
				l0.202,0.161c-0.169,0.39-0.307,0.795-0.42,1.209l-0.224-0.156l-2.91-2.181c0.131-0.732,0.326-1.44,0.585-2.119L48.092,25.643z
				 M47.314,28.073l0.311,0.189c-0.056,0.412-0.085,0.825-0.085,1.25c0,0.077,0.008,0.158,0.008,0.236l-0.233-0.126l-2.592-0.936
				c-0.109-0.632-0.17-1.279-0.17-1.941v-0.003L47.314,28.073z M47.43,30.946l0.248,0.167c0.182,1.064,0.536,2.065,1.041,2.97
				l-2.218-0.925c-0.595-0.896-1.067-1.881-1.401-2.92L47.43,30.946z M49.527,34.418c-0.02-0.035-0.031-0.066-0.053-0.105
				C49.496,34.352,49.516,34.383,49.527,34.418L49.527,34.418z M55.832,23.344c0.018-0.004,0.033-0.004,0.058-0.004
				C55.865,23.34,55.85,23.34,55.832,23.344z M56.793,23.332L56.793,23.332L56.793,23.332z M65.222,29.623L65.222,29.623
				c0-0.037,0-0.072,0-0.11c0-0.456-0.035-0.901-0.091-1.338l2.854-1.539l0.11-0.053c0,0.053,0,0.108,0,0.163
				c0,0.588-0.043,1.168-0.128,1.735l-0.093,0.034L65.222,29.623z M67.537,30.285c-0.158,0.494-0.35,0.977-0.572,1.444l-2.175,0.618
				c0.153-0.486,0.27-0.992,0.341-1.517L67.537,30.285z M67.769,24.424l-2.935,2.395c-0.123-0.422-0.277-0.828-0.456-1.221
				l2.834-3.271l0.021-0.014c0.27,0.66,0.479,1.348,0.623,2.055L67.769,24.424z M63.711,24.375
				c-0.305-0.462-0.648-0.897-1.025-1.293l1.984-4.514l0.059-0.087c0.557,0.566,1.052,1.193,1.484,1.867L63.711,24.375z
				 M64.104,31.342c0,0.017,0,0.035-0.003,0.055C64.104,31.377,64.104,31.358,64.104,31.342L64.104,31.342z M61.804,25.503
				c0.005,0.002,0.008,0.007,0.012,0.009C61.812,25.51,61.809,25.505,61.804,25.503z M64.083,30.236L64.083,30.236L64.083,30.236
				L64.083,30.236z M63.979,29.502c0,0.004,0.003,0.007,0.003,0.011C63.981,29.509,63.979,29.506,63.979,29.502z M64.039,29.864
				c0,0.005,0,0.012,0.004,0.019C64.039,29.876,64.039,29.869,64.039,29.864z M63.398,27.723L63.398,27.723L63.398,27.723
				L63.398,27.723z M64.094,31.516c-0.008,0.104-0.016,0.198-0.03,0.299C64.078,31.714,64.086,31.619,64.094,31.516z M64.045,31.969
				c-0.018,0.113-0.038,0.227-0.056,0.338C64.007,32.195,64.027,32.082,64.045,31.969z M63.937,32.541
				c-0.005,0.023-0.013,0.046-0.013,0.066l0,0C63.924,32.587,63.932,32.564,63.937,32.541z M62.935,26.886L62.935,26.886
				L62.935,26.886L62.935,26.886z M62.789,17.021l-1.507,4.855c-0.558-0.387-1.157-0.706-1.79-0.951l0.978-5.23l0.008-0.018
				c0.836,0.316,1.63,0.73,2.365,1.229L62.789,17.021z M61.31,25.058L61.31,25.058L61.31,25.058L61.31,25.058z M68.199,18.436
				c-0.497-0.896-1.09-1.736-1.76-2.495l3.049-5.494c0.834,1.047,1.54,2.19,2.114,3.415L68.199,18.436z M64.139,13.875
				c-0.85-0.608-1.777-1.117-2.753-1.516l1.572-6.916c1.28,0.553,2.486,1.263,3.581,2.104L64.139,13.875z M58.684,23.664
				L58.684,23.664L58.684,23.664L58.684,23.664z M59.463,23.946l-0.008-0.003L59.463,23.946z M59.086,23.797
				c0-0.002-0.002-0.005-0.01-0.005C59.084,23.792,59.086,23.795,59.086,23.797z M57.194,23.362h0.003l0,0H57.194z M57.705,15.03
				l-0.21,5.38c-0.365-0.045-0.739-0.072-1.113-0.072c-0.448,0-0.894,0.031-1.325,0.103l-0.333-5.4
				c0.542-0.075,1.093-0.118,1.658-0.118c0.449,0,0.894,0.028,1.332,0.082L57.705,15.03z M55.36,23.391L55.36,23.391L55.36,23.391
				L55.36,23.391z M53.77,23.763h0.006l0,0C53.775,23.763,53.775,23.763,53.77,23.763z M51.072,12.484
				c-1.021,0.445-1.982,1.017-2.858,1.69l-0.011-0.027l-2.236-6.394c1.107-0.885,2.327-1.633,3.635-2.218L51.072,12.484z
				 M45.991,16.249l0.029,0.044c-0.608,0.734-1.14,1.538-1.58,2.393l-0.105-0.117l-3.268-4.492c0.538-1.201,1.21-2.331,1.999-3.364
				L45.991,16.249z M69.705,31.186l-1.416,0.092c0.248-0.473,0.475-0.96,0.666-1.461l1.864-0.266
				C70.479,30.115,70.11,30.661,69.705,31.186z M71.869,27.473l-2.336,0.447c0.165-0.728,0.272-1.473,0.31-2.241l2.944-1.077
				C72.566,25.591,72.257,26.551,71.869,27.473z M73.177,21.223l-3.438,1.934c-0.104-0.785-0.276-1.556-0.507-2.291l3.562-3.46
				c0.252,1.159,0.382,2.362,0.382,3.594C73.177,21.074,73.177,21.15,73.177,21.223z M73.172,21.327
				c-0.008,0.529-0.043,1.055-0.102,1.57L73.172,21.327z M58.578,4.238l-0.423,7.271c-0.581-0.078-1.173-0.124-1.773-0.124
				c-0.714,0-1.419,0.059-2.101,0.165l-0.324-7.279c0.792-0.117,1.605-0.181,2.425-0.181C57.13,4.09,57.859,4.142,58.578,4.238z
				 M39.925,17.588l3.416,3.411l0.12,0.097c-0.233,0.79-0.401,1.609-0.487,2.454l-0.183-0.116l-3.199-2.064
				c-0.006-0.122-0.008-0.243-0.008-0.37C39.584,19.834,39.7,18.693,39.925,17.588z M56.162,49.626l-18.9-9.947V31.17l2.322,1.104
				l2.099,1.106l3.647,1.989l3.096,1.656l1.326,0.772l1.32,0.667l1.77,0.883l0.777,0.443l1.104,0.883l0.333,0.333l0.33,0.441
				l0.22,0.441l0.335,0.771l0.106,0.334l0.114,0.443V49.626z M56.604,49.626v-6.188l0.109-0.443l0.111-0.334l0.334-0.771
				l0.216-0.441l0.33-0.441l0.335-0.333l0.554-0.445l0.55-0.438l0.776-0.443l1.657-0.883l1.433-0.667l1.332-0.772l3.092-1.656
				l3.65-1.989l2.093-1.106l2.215-1.104l0.11,8.509L56.604,49.626z"/>
		</g>
	</g>
</g>
</svg>
