<?xml version="1.0" encoding="utf-8"?>
<!-- Generator: Adobe Illustrator 16.0.0, SVG Export Plug-In . SVG Version: 6.00 Build 0)  -->
<!DOCTYPE svg PUBLIC "-//W3C//DTD SVG 1.1//EN" "http://www.w3.org/Graphics/SVG/1.1/DTD/svg11.dtd">
<svg version="1.1" id="Capa_1" xmlns="http://www.w3.org/2000/svg" xmlns:xlink="http://www.w3.org/1999/xlink" x="0px" y="0px"
	 width="114.314px" height="66.094px" viewBox="0 0 114.314 66.094" enable-background="new 0 0 114.314 66.094"
	 xml:space="preserve">
<g id="plantilla" display="none">
</g>
<g id="Capa_1_1_">
	<g>
		<g>
			<g id="surface2_1_">
				<g>
					<path fill="#FFFFFF" d="M44.152,47.714c-0.018,0.189-0.544,0.375-1.574,0.554c-1.029,0.169-2.456,0.311-4.275,0.438
						c-1.822,0.131-3.935,0.233-6.341,0.297c-2.396,0.082-4.977,0.119-7.748,0.119c-2.775,0-5.361-0.036-7.767-0.119
						c-2.404-0.063-4.515-0.166-6.338-0.297c-1.822-0.127-3.248-0.269-4.275-0.438c-1.018-0.168-1.543-0.356-1.563-0.554
						c0.02-0.191,0.545-0.37,1.563-0.537c1.028-0.165,2.453-0.323,4.275-0.454c1.824-0.122,3.935-0.217,6.338-0.284
						c2.406-0.081,4.996-0.118,7.767-0.118c2.771,0,5.361,0.037,7.766,0.118c2.389,0.067,4.502,0.162,6.324,0.284
						c1.821,0.135,3.251,0.283,4.275,0.454C43.608,47.343,44.132,47.522,44.152,47.714"/>
				</g>
				<g>
					<path fill="#FFFFFF" d="M18.911,32.852c0.785-0.256,1.565-0.536,2.351-0.838l0,0c0.009,0,0.009,0,0,0
						c0.711-0.28,1.39-0.565,2.027-0.854c-0.021-0.058-0.045-0.103-0.067-0.153c-0.311-0.669-0.44-1.317-0.385-1.945
						c0.057-0.625,0.272-1.178,0.636-1.658c0.371-0.47,0.876-0.806,1.512-1.009c0.035,0,0.062-0.003,0.082-0.015
						c-0.265-0.55-0.557-1.089-0.87-1.628l0,0l0,0c-0.359-0.614-0.737-1.191-1.143-1.726c-0.033,0.01-0.078,0.021-0.132,0.033
						c-0.606,0.148-1.219,0.179-1.846,0.1c-0.625-0.08-1.202-0.254-1.726-0.537c-0.525-0.266-0.939-0.615-1.242-1.04
						c-0.605,0.134-1.209,0.305-1.812,0.505l0,0l0,0c-0.75,0.246-1.465,0.52-2.148,0.822c0.202,0.457,0.239,0.94,0.116,1.442
						c-0.122,0.502-0.379,0.977-0.771,1.427c-0.393,0.456-0.895,0.837-1.506,1.136c0.188,0.632,0.425,1.271,0.702,1.929l0,0l0,0
						c0.257,0.627,0.542,1.249,0.854,1.863c0.704-0.266,1.409-0.357,2.114-0.266c0.703,0.087,1.343,0.332,1.912,0.733
						c0.571,0.417,1.011,0.958,1.326,1.627C18.896,32.814,18.9,32.833,18.911,32.852 M23.925,32.083
						c-0.692,0.324-1.423,0.635-2.194,0.938c0,0.015,0,0.017,0,0.017c0-0.008,0-0.008,0,0c-0.84,0.324-1.682,0.623-2.533,0.893
						c0.078,0.6,0.02,1.186-0.169,1.759c-0.181,0.569-0.469,1.083-0.876,1.543c0.189,0.189,0.385,0.366,0.572,0.535
						c0.827,0.761,1.631,1.354,2.413,1.778c0.019-0.367,0.106-0.737,0.252-1.104c0.245-0.596,0.598-1.071,1.055-1.429
						c0.461-0.345,0.974-0.562,1.543-0.653c0.574-0.078,1.142,0.004,1.713,0.251c0.393,0.169,0.729,0.398,1.007,0.689
						c0.246-0.862,0.358-1.849,0.337-2.968c0-0.248-0.008-0.492-0.02-0.739c-0.58-0.034-1.14-0.181-1.674-0.436
						C24.826,32.898,24.353,32.54,23.925,32.083 M13.73,22.286c0.702-0.301,1.435-0.577,2.197-0.822l0,0
						c0.636-0.202,1.265-0.374,1.877-0.523c-0.099-0.377-0.068-0.731,0.101-1.054c0.159-0.321,0.43-0.597,0.82-0.822
						c-0.075-0.043-0.153-0.088-0.231-0.135c-0.752-0.382-1.471-0.642-2.166-0.787c-0.012,0.167-0.083,0.335-0.218,0.504
						c-0.222,0.268-0.531,0.498-0.923,0.687c-0.389,0.179-0.821,0.309-1.289,0.388c-0.461,0.077-0.912,0.088-1.36,0.032
						c-0.189-0.02-0.362-0.062-0.52-0.12c-0.27,0.428-0.467,0.936-0.602,1.527c-0.025,0.111-0.05,0.234-0.07,0.37
						c0.482-0.033,0.93,0.014,1.344,0.15C13.101,21.817,13.451,22.02,13.73,22.286 M24.749,21.077
						c0.033,0.316-0.027,0.611-0.186,0.888c-0.154,0.281-0.4,0.521-0.72,0.725c0.424,0.569,0.835,1.177,1.222,1.826
						c0.013,0,0.013,0,0,0c0.348,0.571,0.665,1.153,0.957,1.742c0.538,0.018,1.069,0.133,1.596,0.358
						c0.513,0.222,0.977,0.535,1.389,0.938c0.115-0.099,0.22-0.206,0.32-0.318c0.538-0.571,0.896-1.131,1.073-1.677
						c-0.326-0.056-0.671-0.175-1.042-0.356c-0.48-0.243-0.89-0.548-1.223-0.903c-0.335-0.359-0.579-0.722-0.719-1.092
						c-0.151-0.38-0.169-0.732-0.065-1.055c0.053-0.17,0.143-0.311,0.267-0.421c-0.628-0.233-1.346-0.418-2.146-0.551
						C25.235,21.136,24.994,21.104,24.749,21.077 M10.827,34.432c0.033-0.628,0.202-1.216,0.501-1.762
						c0.292-0.562,0.701-1.037,1.225-1.427c-0.325-0.634-0.613-1.292-0.871-1.962l0,0l0,0c-0.28-0.683-0.519-1.348-0.705-1.996
						c-0.571,0.132-1.111,0.169-1.625,0.101c-0.505-0.08-0.94-0.252-1.311-0.523c-0.112,0.101-0.216,0.203-0.319,0.303
						c-0.727,0.762-1.298,1.5-1.712,2.216c0.237,0,0.472,0.03,0.705,0.101c0.471,0.155,0.835,0.426,1.089,0.802
						c0.271,0.395,0.42,0.845,0.455,1.361c0.033,0.513-0.064,1.046-0.286,1.593c-0.144,0.324-0.316,0.614-0.518,0.873
						c0.793,0.236,1.755,0.35,2.886,0.335C10.499,34.448,10.659,34.441,10.827,34.432 M19.365,24.514
						c-0.434-0.133-0.874-0.175-1.31-0.133c-0.424,0.058-0.813,0.199-1.173,0.422c-0.349,0.224-0.616,0.507-0.804,0.854
						c-0.189,0.381-0.257,0.762-0.204,1.142c0.068,0.389,0.233,0.746,0.504,1.057c0.266,0.3,0.628,0.54,1.072,0.706
						c0.46,0.155,0.917,0.212,1.377,0.167c0.448-0.056,0.852-0.207,1.205-0.454c0.36-0.234,0.632-0.549,0.808-0.938
						c0.236-0.583,0.214-1.138-0.066-1.661C20.492,25.15,20.024,24.764,19.365,24.514 M17.085,15.68
						c-0.391,0.021-0.711,0.086-0.958,0.201c-0.247,0.106-0.362,0.234-0.353,0.365c0.046,0.148,0.225,0.259,0.537,0.337
						c0.313,0.079,0.69,0.101,1.123,0.068c0.427-0.035,0.757-0.107,0.992-0.221c0.248-0.11,0.345-0.239,0.288-0.384
						c-0.078-0.135-0.271-0.234-0.571-0.301C17.837,15.666,17.485,15.645,17.085,15.68 M8.094,18.344
						c-0.358,0.202-0.609,0.406-0.754,0.622c-0.136,0.213-0.136,0.377,0,0.502c0.167,0.121,0.429,0.15,0.787,0.085
						c0.358-0.066,0.732-0.21,1.125-0.42c0.373-0.225,0.623-0.444,0.754-0.654c0.123-0.213,0.099-0.376-0.066-0.484
						c-0.18-0.101-0.44-0.119-0.79-0.053C8.804,18.006,8.451,18.144,8.094,18.344 M0.126,29.884
						c-0.022,0.425,0.075,0.745,0.285,0.956c0.224,0.202,0.527,0.242,0.904,0.12c0.393-0.156,0.727-0.438,1.01-0.838
						c0.275-0.392,0.431-0.818,0.465-1.276c0.023-0.436-0.087-0.745-0.334-0.922c-0.234-0.192-0.538-0.205-0.905-0.05
						c-0.37,0.156-0.683,0.424-0.94,0.805C0.344,29.058,0.181,29.461,0.126,29.884 M2.778,40.5c0.288,0.449,0.654,0.706,1.085,0.771
						c0.453,0.08,0.864-0.048,1.242-0.384c0.259-0.235,0.442-0.522,0.558-0.855c0.11-0.324,0.149-0.667,0.117-1.023
						c-0.033-0.358-0.153-0.692-0.354-0.989c-0.3-0.437-0.678-0.685-1.122-0.738c-0.44-0.045-0.848,0.106-1.226,0.455
						c-0.347,0.355-0.546,0.796-0.604,1.32C2.419,39.572,2.521,40.055,2.778,40.5 M20.304,48.186
						c0.593-0.115,1.065-0.385,1.409-0.825c0.347-0.432,0.495-0.942,0.437-1.523c-0.081-0.592-0.35-1.059-0.805-1.391
						c-0.448-0.336-0.979-0.466-1.592-0.386c-0.608,0.1-1.088,0.373-1.447,0.82c-0.345,0.458-0.483,0.985-0.417,1.577
						c0.101,0.569,0.38,1.015,0.836,1.343C19.173,48.125,19.7,48.251,20.304,48.186 M32.246,42.53
						c0.367-0.369,0.587-0.812,0.655-1.339c0.054-0.527-0.051-1.012-0.319-1.462c-0.29-0.447-0.665-0.703-1.125-0.77
						c-0.448-0.07-0.872,0.07-1.275,0.417c-0.267,0.234-0.462,0.523-0.588,0.855c-0.111,0.334-0.15,0.683-0.118,1.041
						c0.031,0.355,0.148,0.688,0.353,0.99c0.316,0.437,0.694,0.675,1.14,0.722C31.429,43.041,31.856,42.89,32.246,42.53
						 M35.787,27.439c-0.161-0.405-0.393-0.757-0.708-1.06c-0.309-0.302-0.629-0.489-0.954-0.554
						c-0.337-0.047-0.566,0.054-0.687,0.3c-0.135,0.249-0.135,0.581,0,1.008c0.157,0.436,0.397,0.809,0.736,1.125
						c0.324,0.312,0.658,0.489,1.004,0.535c0.316,0.022,0.526-0.091,0.636-0.354C35.93,28.185,35.92,27.853,35.787,27.439
						 M30.15,19.652c-0.314-0.246-0.643-0.434-0.99-0.567c-0.357-0.136-0.656-0.182-0.888-0.136
						c-0.234,0.057-0.325,0.197-0.27,0.418c0.055,0.214,0.245,0.453,0.555,0.722c0.335,0.266,0.688,0.468,1.055,0.603
						c0.372,0.135,0.674,0.167,0.905,0.102c0.201-0.08,0.271-0.223,0.201-0.438C30.653,20.145,30.462,19.911,30.15,19.652
						 M11.095,36.126c-0.08-0.191-0.14-0.388-0.186-0.592c-0.21,0.015-0.423,0.018-0.637,0.018c-1.509,0-2.747-0.207-3.725-0.621
						c-0.378,0.225-0.769,0.364-1.172,0.42c-0.403,0.056-0.788,0.007-1.159-0.151c-0.424-0.191-0.752-0.481-0.987-0.872
						c-0.234-0.393-0.358-0.833-0.372-1.324c-0.019-0.502,0.082-1.013,0.307-1.524c0.197-0.438,0.457-0.818,0.769-1.144
						c0.324-0.313,0.678-0.556,1.057-0.721c0.456-0.972,1.173-1.952,2.147-2.934c0.121-0.133,0.249-0.258,0.385-0.37
						c-0.101-0.157-0.179-0.325-0.234-0.504c-0.169-0.594-0.107-1.197,0.186-1.811c-0.705-0.134-1.39-0.24-2.047-0.316
						c-0.267,0.296-0.584,0.562-0.954,0.786c-0.518,0.29-0.953,0.416-1.308,0.367c-0.361-0.033-0.563-0.229-0.606-0.588
						c-0.022-0.334,0.111-0.704,0.402-1.106c0.291-0.416,0.665-0.767,1.124-1.056c0.481-0.278,0.905-0.415,1.271-0.403
						c0.372,0.025,0.597,0.186,0.674,0.488c0.053,0.235,0.013,0.503-0.134,0.804c0.656,0.08,1.341,0.174,2.045,0.286
						c0.449-0.547,1.043-0.99,1.778-1.324c0.246-0.101,0.488-0.186,0.722-0.254c0.021-0.146,0.049-0.286,0.083-0.417
						c0.193-0.773,0.501-1.426,0.925-1.964c-0.158-0.167-0.226-0.352-0.204-0.551c0.023-0.212,0.14-0.426,0.353-0.64
						c0.226-0.222,0.522-0.42,0.888-0.587c0.374-0.169,0.769-0.286,1.192-0.351c0.415-0.078,0.822-0.101,1.229-0.07
						c0.646,0.08,1.081,0.263,1.308,0.555c0.925,0.11,1.887,0.419,2.882,0.92c0.113,0.058,0.225,0.12,0.336,0.187
						c0.124-0.034,0.248-0.065,0.367-0.103c0.74-0.132,1.48-0.103,2.216,0.088c0.233-0.393,0.464-0.755,0.69-1.092
						c-0.384-0.135-0.679-0.295-0.888-0.485c-0.234-0.238-0.286-0.43-0.153-0.588c0.132-0.156,0.421-0.24,0.859-0.255
						c0.434-0.008,0.884,0.062,1.357,0.206c0.455,0.131,0.828,0.308,1.106,0.518c0.28,0.235,0.375,0.438,0.288,0.605
						c-0.103,0.179-0.37,0.279-0.805,0.302c-0.3,0.022-0.622,0-0.957-0.066c-0.203,0.348-0.421,0.722-0.651,1.123
						c0.604,0.267,1.081,0.622,1.441,1.056c0.109,0.133,0.204,0.264,0.265,0.384c0.271,0.035,0.539,0.075,0.806,0.12
						c1.098,0.188,2.064,0.475,2.902,0.854c0.254-0.045,0.551-0.037,0.886,0.017c0.326,0.065,0.66,0.197,1.008,0.387
						c0.635,0.348,1.14,0.786,1.51,1.325c0.371,0.527,0.527,1.022,0.468,1.492c-0.09,0.46-0.365,0.746-0.823,0.873
						c-0.11,0.793-0.525,1.593-1.241,2.397c-0.132,0.147-0.272,0.291-0.419,0.437c0.067,0.114,0.136,0.23,0.205,0.354
						c0.202,0.402,0.333,0.804,0.398,1.207c0.065,0.403,0.065,0.796,0,1.174c0.838,0.436,1.657,0.884,2.45,1.34
						c0.159-0.39,0.419-0.657,0.79-0.803c0.435-0.155,0.886-0.09,1.345,0.202c0.444,0.29,0.798,0.732,1.052,1.325
						c0.224,0.605,0.284,1.176,0.167,1.709c-0.122,0.551-0.386,0.937-0.788,1.159c-0.459,0.214-0.922,0.185-1.389-0.085
						c-0.484-0.278-0.86-0.735-1.127-1.372c-0.166-0.417-0.246-0.826-0.234-1.226c-0.83-0.459-1.684-0.918-2.565-1.375
						c-0.317,0.625-0.823,1.089-1.529,1.392c-0.131,0.045-0.267,0.083-0.398,0.118c0.018,0.312,0.037,0.619,0.05,0.921
						c0.019,1.567-0.187,2.918-0.622,4.059c0.156,0.392,0.233,0.807,0.233,1.243c0.014,0.438-0.069,0.867-0.233,1.29
						c-0.234,0.581-0.58,1.052-1.024,1.412c-0.446,0.356-0.948,0.586-1.513,0.685c-0.554,0.091-1.122,0.028-1.689-0.186
						c-0.462-0.189-0.847-0.455-1.159-0.789c-0.324-0.346-0.564-0.734-0.725-1.173c-1.124-0.468-2.269-1.234-3.42-2.3
						c-0.222-0.211-0.448-0.428-0.669-0.651c-0.202,0.149-0.427,0.263-0.671,0.354c-0.448,0.188-0.906,0.298-1.375,0.333
						c-0.459,0.035-0.913-0.004-1.359-0.119c-0.416,1.055-0.827,2.104-1.243,3.158c0.429,0.287,0.749,0.688,0.971,1.188
						c0.188,0.471,0.268,0.938,0.222,1.394c-0.057,0.468-0.222,0.883-0.488,1.239c-0.269,0.37-0.626,0.644-1.074,0.824
						c-0.434,0.167-0.878,0.212-1.324,0.132c-0.436-0.076-0.838-0.258-1.209-0.538c-0.358-0.28-0.637-0.64-0.838-1.088
						c-0.189-0.459-0.263-0.918-0.219-1.376C8.71,43.041,8.854,42.63,9.1,42.263c0.257-0.368,0.6-0.649,1.023-0.842
						c0.481-0.196,0.969-0.255,1.459-0.166c0.403-1.036,0.817-2.077,1.242-3.119c-0.392-0.222-0.734-0.503-1.023-0.837
						C11.498,36.951,11.264,36.56,11.095,36.126"/>
				</g>
			</g>
			<g id="surface4_1_">
				<g enable-background="new    ">
					<path fill="#FFFFFF" d="M57.533,33.81c-1.59,0.428-3.347,0.518-4.715,0.088c-1.776-0.582-2.515-1.729-2.515-3.994v-2.876
						c0-4.379,3.704-5.437,7.186-3.817l-0.562,1.707c-2.672-1.056-4.58-0.204-4.58,1.979v3.254c0,2.473,3.166,2.18,4.649,1.731
						L57.533,33.81z"/>
					<path fill="#FFFFFF" d="M67.575,29.812c0,2.294-1.19,4.358-4.156,4.358c-2.942,0-4.222-2.064-4.222-4.358v-2.964
						c0-2.829,1.503-4.405,4.222-4.405c2.607,0,4.156,1.689,4.156,4.405V29.812z M65.553,26.849c0-1.998-1.121-2.38-2.135-2.38
						c-1.101,0-2.176,0.493-2.176,2.38v3.191c0,1.458,0.943,2.154,2.176,2.154c1.259,0,2.135-0.739,2.135-2.154V26.849z"/>
					<path fill="#FFFFFF" d="M71.661,29.703c0.137,1.343,1.261,2.491,3.1,2.491c2.022,0,3.146-1.056,3.146-2.403
						c0-4.404-8.041-2.829-8.041-7.905c0-1.888,1.597-3.887,5.075-3.887c1.553,0,2.382,0.248,3.278,0.675
						c0,0.022-0.382,1.125-0.651,1.931c-0.832-0.337-1.638-0.539-2.604-0.539c-1.954,0-2.964,0.806-2.896,1.977
						c0.153,2.739,8.089,2.202,8.089,7.566c0,2.497-1.531,4.584-5.372,4.584c-3.482,0-5.233-2.244-5.3-4.245L71.661,29.703z"/>
					<path fill="#FFFFFF" d="M82.198,33.948V21.616c0-3.413,2.605-3.884,4.472-3.549l-0.343,1.843c-0.874-0.203-2.064,0-2.064,1.706
						v1.078h2.181l-0.539,1.932h-1.642v9.323H82.198z"/>
					<path fill="#FFFFFF" d="M95.224,33.16c-1.057,0.65-2.427,1.033-3.703,1.058c-2.225,0.065-3.822-0.946-3.822-3.281v-4.606
						c0-2.471,1.688-3.837,4.136-3.837c2.493,0,3.952,1.412,3.952,3.768V29.5l-6.019,0.335v0.876c0,1.84,1.975,2.158,4.693,0.721
						L95.224,33.16z M93.722,26.243c0-1.352-1.079-1.796-1.91-1.796c-1.35,0-2.044,0.831-2.044,1.907v1.572l3.954-0.223V26.243z"/>
					<path fill="#FFFFFF" d="M98.076,33.948V22.693h1.932l0.089,0.338c1.508-0.784,2.832-0.52,4.021-0.271l-0.493,1.952
						c-1.459-0.649-3.504-0.11-3.504,1.461v7.773H98.076z"/>
					<path fill="#FFFFFF" d="M113.216,33.948c-3.572,0.336-8.648,1.008-8.648-3.798v-1.863c0-1.617,0.63-2.538,1.552-2.988
						c1.595-0.788,4.02-0.134,5.054,0.539c0-1.28-1.012-1.885-2.784-1.885l0.155-1.441c4.672,0,4.672,2.583,4.672,4.741V33.948
						L113.216,33.948z M111.173,27.883c-1.237-0.695-4.557-1.843-4.557,0.626v1.484c0,1.889,1.523,2.653,4.557,2.176V27.883z"/>
				</g>
				<g enable-background="new    ">
					<path fill="#FFFFFF" d="M51.244,42.759h0.111c0.05,0,0.085,0.075,0.11,0.221c0.073,0.008,0.11,0.036,0.11,0.081
						c-0.084,0.202-0.137,0.303-0.165,0.303c-0.027,0.161-0.111,0.29-0.249,0.387c0,0.074-0.101,0.237-0.304,0.495
						c0,0.068-0.107,0.354-0.328,0.85l-0.055,0.25c0,0.366,0.146,0.55,0.439,0.55c0.559,0,1.137-0.578,1.734-1.732
						c0.146-0.237,0.218-0.393,0.218-0.468h0.056l0.11,0.413l-0.358,0.634c0,0.126-0.148,0.364-0.438,0.714
						c-0.387,0.467-0.78,0.753-1.184,0.85h-0.028c-0.491,0-0.801-0.226-0.936-0.686c0-0.281,0.138-0.737,0.415-1.374l0.219-0.523
						l0.111-0.14V43.53l-0.055-0.083C51.051,42.988,51.209,42.759,51.244,42.759z"/>
					<path fill="#FFFFFF" d="M53.327,43.247l0.199,0.099c0.342,0.317,0.542,0.604,0.607,0.853l0.106,0.144l0.532-0.027l0.097-0.016
						l0.027,0.016c0.042,0.018,0.027,0.133-0.042,0.343l-0.598,0.117c-0.042,0.562-0.09,0.902-0.145,1.025l-0.165,0.289l0.014,0.033
						c-0.082,0.023-0.187,0.095-0.317,0.215l-0.145,0.055l-0.015-0.034l-0.157,0.014l-0.151-0.068l-0.269-0.4
						c0.031-0.067-0.013-0.251-0.137-0.549l0.034-0.008c0.038-0.097,0.026-0.203-0.034-0.322l0.173-0.619l0.068-0.09
						c-0.141-0.304-0.176-0.552-0.104-0.75l-0.026-0.069l0.02-0.046c0.027-0.061,0.124-0.139,0.29-0.233l0.014,0.04l0.026,0.008
						L53.327,43.247z M53.512,44.732l-0.07-0.035l-0.013-0.04l-0.026-0.008l-0.021,0.048l-0.027-0.013
						c-0.194,0.72-0.129,1.157,0.208,1.313l0.107-0.041l0.015,0.034l0.028,0.014l0.006-0.022l0.035-0.137l0.075-0.025l0.021-0.049
						c0.064-0.138,0.097-0.428,0.104-0.868l0.02-0.048c-0.052-0.021-0.067-0.051-0.049-0.09L53.512,44.732z M53.293,43.712
						l0.005,0.188l0.071,0.036l0.104-0.016l0.046,0.022c0.033,0.018,0.052,0.125,0.056,0.327l0.131,0.063l0.069-0.027
						c0.078-0.16-0.016-0.347-0.283-0.559l0.021-0.048l-0.075-0.041L53.293,43.712z"/>
					<path fill="#FFFFFF" d="M60.56,41.66h0.083l0.056,0.055v0.027l-0.411,0.303c-0.222,0.227-0.424,0.624-0.605,1.181
						c-0.058,0-0.121,0.222-0.193,0.662c-0.041,0-0.077,0.146-0.108,0.438c-0.056,0-0.11,0.192-0.166,0.578l-0.027,0.084h-0.028
						l0.028,0.026v0.027c-0.038,0.156-0.083,0.266-0.139,0.33l0.027,0.137l-0.027,0.086l0.026,0.136v0.084
						c0,0.109-0.055,0.218-0.165,0.33c0,0.109-0.025,0.162-0.083,0.162h-0.164c-0.046,0-0.101-0.162-0.165-0.492h0.029
						c-0.177-1.056-0.379-1.845-0.606-2.366l-0.026-0.027h-0.056c-0.188,0.186-0.419,0.957-0.688,2.309
						c-0.086,0.179-0.205,0.325-0.356,0.439h-0.028c-0.167,0-0.294-0.175-0.387-0.523c-0.366-0.806-0.569-1.309-0.604-1.511
						c-0.075-0.286-0.265-0.624-0.577-1.02c-0.109-0.058-0.164-0.158-0.164-0.3v-0.057c0-0.055,0.082-0.1,0.246-0.138
						c0.192,0,0.44,0.331,0.743,0.99c0.062,0.261,0.137,0.443,0.218,0.551c0.238,0.742,0.404,1.175,0.495,1.293v0.027h0.082
						c0.202-0.573,0.369-1.178,0.496-1.813c0.196-0.517,0.346-0.771,0.44-0.771h0.027l0.025,0.026l0.193-0.052
						c0.195,0.12,0.334,0.386,0.414,0.797c0.089,0.2,0.2,0.621,0.327,1.265l0.055,0.055c0.056-0.016,0.085-0.088,0.085-0.222h0.025
						l-0.025-0.026v-0.025l0.247-0.718l-0.027-0.027c0.036,0,0.117-0.247,0.246-0.742c0.042-0.003,0.098-0.125,0.168-0.355
						c0.087-0.255,0.197-0.437,0.328-0.552c0.006-0.128,0.196-0.329,0.578-0.604C60.424,41.682,60.47,41.663,60.56,41.66z"/>
					<path fill="#FFFFFF" d="M60.677,43.247l0.2,0.099c0.338,0.317,0.54,0.604,0.604,0.853l0.11,0.144l0.529-0.027l0.099-0.016
						l0.024,0.016c0.041,0.018,0.027,0.133-0.041,0.343l-0.599,0.117c-0.041,0.562-0.089,0.902-0.145,1.025l-0.164,0.289
						l0.015,0.033c-0.084,0.023-0.188,0.095-0.316,0.215l-0.146,0.055l-0.014-0.034l-0.158,0.014l-0.149-0.068l-0.271-0.4
						c0.033-0.067-0.015-0.251-0.136-0.549l0.035-0.008c0.034-0.097,0.021-0.203-0.035-0.322l0.171-0.619l0.068-0.09
						c-0.143-0.304-0.178-0.552-0.104-0.75l-0.026-0.069l0.021-0.046c0.027-0.061,0.121-0.139,0.287-0.233l0.013,0.04l0.028,0.008
						L60.677,43.247z M60.864,44.732l-0.07-0.035l-0.013-0.04l-0.027-0.008l-0.021,0.048l-0.028-0.013
						c-0.195,0.72-0.127,1.157,0.207,1.313l0.111-0.041l0.013,0.034l0.028,0.014l0.007-0.022l0.036-0.137l0.073-0.025l0.021-0.049
						c0.063-0.138,0.098-0.428,0.102-0.868l0.022-0.048c-0.051-0.021-0.067-0.051-0.046-0.09L60.864,44.732z M60.642,43.712
						l0.007,0.188l0.068,0.036l0.104-0.016l0.049,0.022c0.031,0.018,0.051,0.125,0.056,0.327l0.131,0.063l0.068-0.027
						c0.076-0.16-0.017-0.347-0.283-0.559l0.021-0.048l-0.076-0.041L60.642,43.712z"/>
					<path fill="#FFFFFF" d="M62.491,42.292c0.257,0.022,0.386,0.135,0.386,0.328l0.029,0.03l-0.029,0.026v0.026
						c0.124,0.428,0.217,0.922,0.274,1.485l0.027,0.027v0.028l-0.053,0.053l0.025,0.167h0.055c0.093-0.111,0.231-0.403,0.414-0.882
						c0.073-0.183,0.238-0.392,0.496-0.632c0.111-0.168,0.397-0.325,0.851-0.468c0.284,0,0.486,0.055,0.604,0.167v0.025
						c0,0.138-0.136,0.221-0.413,0.248l-0.304-0.027c0,0.04-0.088,0.079-0.273,0.11c0,0.074-0.063,0.108-0.191,0.108
						c0,0.062-0.093,0.162-0.273,0.305c0,0.053-0.03,0.081-0.086,0.081c0,0.065-0.083,0.211-0.246,0.441
						c0,0.092-0.047,0.175-0.139,0.247v0.027l0.028,0.221l-0.192,0.357l0.025,0.028v0.026c-0.127,0.285-0.19,0.633-0.19,1.045
						c-0.031,0-0.078,0.1-0.138,0.304c-0.046,0-0.111,0.034-0.189,0.106h-0.03c-0.031,0-0.086-0.062-0.163-0.188V46.03l0.081-0.108
						v-0.717l-0.22-1.815c-0.033,0-0.068-0.164-0.11-0.494c-0.11-0.032-0.165-0.179-0.165-0.439
						C62.455,42.457,62.491,42.402,62.491,42.292z"/>
					<path fill="#FFFFFF" d="M66.289,36.736c0.182,0,0.274,0.11,0.274,0.331v0.189c-0.057,0.113-0.185,0.69-0.386,1.734v0.358
						l-0.138,0.219c0.032,0.184,0.059,0.273,0.083,0.273l-0.026,0.195l0.026,0.247c-0.017,0.27-0.055,0.463-0.111,0.579l0.028,0.025
						v0.028l-0.054,0.274l0.025,0.084L65.987,41.3h-0.028l0.028,0.112v0.054h-0.028c0.036,0.24,0.054,0.55,0.054,0.936l-0.025,0.11
						l0.054,0.222l-0.028,0.246l0.056,0.055v0.138h0.028l0.383-0.33c0.362-0.312,0.722-0.577,1.073-0.797
						c0-0.056,0.094-0.139,0.277-0.248c0-0.033,0.061-0.051,0.189-0.055h0.057l0.11,0.08c0,0.162-0.103,0.308-0.302,0.442
						c-0.652,0.464-1.063,0.782-1.239,0.961l-0.247,0.304v0.053c0.211,0.207,0.552,0.363,1.016,0.468
						c0.184,0,0.313,0.036,0.388,0.112l0.026-0.027c0.199,0.018,0.322,0.046,0.358,0.081l0.083-0.026v0.026l0.027-0.026
						c0.33,0.021,0.495,0.051,0.495,0.081l0.138-0.025h0.081l0.137,0.025l0.304-0.053l0.138,0.053l0.274-0.053
						c0.091,0.013,0.139,0.041,0.139,0.081v0.029c0,0.074-0.12,0.127-0.357,0.163v0.029l-0.111-0.029
						c-0.331,0.112-0.631,0.167-0.906,0.167c-0.868,0-1.711-0.222-2.53-0.661l-0.028-0.083c-0.047,0-0.073,0.035-0.082,0.11
						l-0.027,0.632l0.027,0.028v0.028l-0.027,0.081l0.027,0.192l-0.027,0.028c0.051,0,0.097,0.264,0.138,0.798
						c-0.016,0.2-0.081,0.304-0.193,0.304c0,0.128-0.028,0.188-0.084,0.188c-0.146-0.053-0.219-0.162-0.219-0.33v-0.219l0.026-0.137
						L65.6,45.51l0.026-0.908v-0.056l0.029-0.027l-0.029-0.027v-0.221L65.6,44.19l0.026-0.14v-0.468l0.029-0.026l-0.029-0.026
						l0.029-0.139v-0.521l0.025-0.111l-0.055-0.192l0.029-0.029v-0.025l-0.029-0.164h0.029l-0.029-0.029v-0.715l0.029-0.11
						l-0.084-0.219v-0.056l0.109-0.385l-0.025-0.22c0.035,0,0.08-0.275,0.137-0.827l-0.026-0.108
						c0.22-1.963,0.374-2.944,0.467-2.944L66.289,36.736L66.289,36.736z"/>
					<path fill="#FFFFFF" d="M70.07,43.172c0.073,0.123,0.108,0.224,0.108,0.3l-0.026,0.937l0.026,0.083l-0.026,0.027l0.056,0.522
						l-0.029,0.028v0.025c0.078,0.149,0.121,0.433,0.14,0.854l0.026,0.109c-0.026,0.164-0.11,0.246-0.248,0.246
						c-0.034-0.002-0.11-0.092-0.219-0.274v-0.163c0-0.129-0.019-0.191-0.058-0.191l0.029-0.137v-0.028l-0.029-0.138h0.029
						c0-0.074-0.047-0.212-0.137-0.413l-0.028-0.387l0.028-0.659l-0.028-0.466C69.684,43.374,69.814,43.281,70.07,43.172z
						 M70.125,41.302h0.025c0.24,0,0.358,0.129,0.358,0.385c0,0.073-0.082,0.174-0.248,0.303h-0.084
						c-0.091-0.175-0.154-0.367-0.192-0.576L70.125,41.302z"/>
					<path fill="#FFFFFF" d="M70.716,43.172h0.11c0.188,0.023,0.307,0.535,0.357,1.541v0.135l0.055,0.055
						c0.09,0,0.222-0.264,0.386-0.797c0.027,0,0.154-0.21,0.384-0.634c0.06,0,0.125-0.071,0.193-0.219l0.249-0.055
						c0.218,0.202,0.328,0.368,0.328,0.495c0.068,0,0.135,0.293,0.192,0.878l0.027,0.029l-0.027,0.112l0.165,0.658
						c0.072,0,0.156,0.119,0.246,0.357c0.106,0.042,0.189,0.097,0.249,0.164l0.111,0.028l0.521-0.165v0.026l0.084,0.248
						c0,0.024-0.129,0.079-0.386,0.167l-0.082,0.055l-0.029-0.029h-0.026l-0.138,0.029c-0.316-0.098-0.527-0.255-0.632-0.47
						c-0.181-0.196-0.316-0.635-0.413-1.318c0-0.336-0.083-0.609-0.248-0.825c-0.165,0.036-0.248,0.1-0.248,0.191
						c-0.059,0.04-0.107,0.125-0.139,0.25c-0.068,0-0.169,0.256-0.301,0.768c-0.041,0-0.078,0.103-0.11,0.305
						c-0.074,0.045-0.111,0.164-0.111,0.357c-0.045,0-0.092,0.029-0.136,0.084l0.027,0.025v0.025c0,0.244-0.104,0.418-0.304,0.523
						c-0.015,0.092-0.042,0.137-0.083,0.137h-0.027c-0.111-0.045-0.164-0.117-0.164-0.218l0.053-0.165v-0.055l-0.025-0.164
						c0.036-0.074,0.053-0.175,0.053-0.303l-0.053-0.056v-0.055l0.053-0.083v-0.632c-0.089-0.142-0.137-0.316-0.137-0.523
						l-0.163-0.604v-0.027C70.613,43.253,70.662,43.172,70.716,43.172z"/>
					<path fill="#FFFFFF" d="M76.284,42.538c0.166,0.071,0.25,0.18,0.25,0.333c-0.024,0.194-0.144,0.416-0.36,0.659l-0.026,0.026
						v0.054h0.026l0.03-0.027l0.136,0.027c0.092,0,0.139-0.016,0.139-0.054c0.353,0,0.609,0.054,0.77,0.165
						c0.29-0.019,0.444-0.047,0.466-0.084h0.111l0.025,0.03c0.061-0.058,0.208-0.094,0.442-0.113c0,0.038,0.028,0.056,0.084,0.056
						l0.026,0.027v0.029c0,0.048-0.192,0.104-0.578,0.163c0,0.029-0.036,0.055-0.111,0.081l-0.026,0.03v0.08h0.057v0.14
						c0.218,0.426,0.33,0.728,0.33,0.907h-0.03l0.084,0.384l-0.028,0.14v0.356l0.028,0.108c-0.031,0.186-0.062,0.277-0.084,0.277
						l0.03,0.027v0.026c0,0.272-0.085,0.646-0.25,1.126c-0.155,0.466-0.494,1.06-1.016,1.791c-0.193,0.233-0.46,0.473-0.8,0.716
						c0,0.062-0.127,0.139-0.385,0.222l-0.357,0.109c0,0.037-0.047,0.053-0.14,0.053v0.027c-0.311,0-0.53-0.09-0.658-0.272
						c-0.166-0.08-0.321-0.408-0.467-0.993l0.026-0.164V48.92l-0.054-0.084l0.054-0.22v-0.056l-0.026-0.109
						c0-0.326,0.211-1.012,0.632-2.064c0.032-0.228,0.216-0.575,0.551-1.044c0.021-0.11,0.224-0.339,0.606-0.688l0.218-0.164
						l0.579-0.385c0.014-0.061,0.097-0.098,0.247-0.112v-0.026l-0.138-0.055h-0.275c-0.298,0.092-0.591,0.248-0.88,0.469
						c-0.28,0.188-0.508,0.308-0.687,0.357h-0.084c-0.183,0-0.275-0.102-0.275-0.303l0.055-0.111l-0.025-0.026
						c0-0.389,0.22-0.847,0.66-1.374C75.538,42.668,75.906,42.538,76.284,42.538z M76.837,44.298l-0.027-0.027
						c-0.342,0.331-0.598,0.494-0.771,0.494c0,0.097-0.166,0.263-0.495,0.497l-0.441,0.688c-0.143,0.197-0.369,0.812-0.688,1.84
						c-0.089,0.479-0.136,0.853-0.136,1.131l0.055,0.245l-0.028,0.028v0.03c0.16,0.549,0.417,0.822,0.771,0.822l0.302-0.081
						l0.082,0.027c0.139-0.092,0.249-0.137,0.332-0.137c0-0.035,0.116-0.134,0.355-0.304c0.497-0.431,0.836-0.855,1.018-1.265
						c0.44-0.722,0.66-1.519,0.66-2.395v-0.027c0-0.838-0.19-1.417-0.576-1.732h-0.055C77.013,44.244,76.896,44.298,76.837,44.298z
						 M74.994,44.106c0.107-0.033,0.329-0.17,0.659-0.412c0.365-0.308,0.551-0.544,0.551-0.714l-0.086-0.056
						c-0.27,0.036-0.543,0.191-0.824,0.467l-0.274,0.521L74.994,44.106z"/>
					<path fill="#FFFFFF" d="M82.084,42.098h0.3c0.184,0.068,0.275,0.188,0.275,0.358v0.33c-0.128,0.47-0.293,0.876-0.497,1.209
						c-0.126,0.253-0.438,0.675-0.932,1.268v0.025c0,0.269,0.218,0.473,0.659,0.604h0.137c0.202,0,0.429-0.125,0.688-0.383
						c0.178-0.197,0.342-0.455,0.494-0.771h0.055v0.386c0,0.105-0.089,0.278-0.274,0.52c0,0.062-0.12,0.189-0.357,0.386
						c-0.231,0.186-0.45,0.274-0.66,0.274c-0.376,0-0.669-0.145-0.882-0.438c-0.081-0.026-0.146-0.111-0.19-0.248h-0.055
						c-0.252,0.183-0.407,0.275-0.466,0.275c-0.051,0-0.117-0.064-0.194-0.191v-0.11c0-0.036,0.155-0.143,0.468-0.33
						c0.091-0.083,0.137-0.203,0.137-0.36l-0.027-0.163l0.027-0.026v-0.028l-0.027-0.166l0.165-0.659
						c0.147-0.481,0.339-0.877,0.577-1.184C81.538,42.503,81.729,42.31,82.084,42.098z M81.15,44.354l0.024,0.029v0.025
						l-0.024,0.248v0.027l0.05,0.055l0.552-0.66c0.338-0.594,0.55-1.033,0.633-1.321v-0.023c0-0.12-0.046-0.213-0.138-0.277
						c-0.246,0.105-0.477,0.345-0.688,0.716l-0.221,0.41L81.15,44.354z"/>
					<path fill="#FFFFFF" d="M83.415,43.172h0.111c0.187,0.023,0.307,0.535,0.357,1.541v0.135l0.055,0.055
						c0.091,0,0.22-0.264,0.386-0.797c0.027,0,0.154-0.21,0.384-0.634c0.062,0,0.125-0.071,0.192-0.219l0.248-0.055
						c0.221,0.202,0.331,0.368,0.331,0.495c0.069,0,0.13,0.293,0.19,0.878l0.028,0.029l-0.028,0.112l0.164,0.658
						c0.075,0,0.155,0.119,0.249,0.357c0.104,0.042,0.187,0.097,0.25,0.164l0.109,0.028l0.521-0.165v0.026l0.084,0.248
						c0,0.024-0.129,0.079-0.387,0.167l-0.084,0.055l-0.025-0.029h-0.027l-0.137,0.029c-0.318-0.098-0.528-0.255-0.633-0.47
						c-0.18-0.196-0.319-0.635-0.412-1.318c0-0.336-0.084-0.609-0.25-0.825c-0.165,0.036-0.249,0.1-0.249,0.191
						c-0.058,0.04-0.102,0.125-0.136,0.25c-0.068,0-0.17,0.256-0.301,0.768c-0.042,0-0.08,0.103-0.111,0.305
						c-0.072,0.045-0.109,0.164-0.109,0.357c-0.046,0-0.093,0.029-0.14,0.084l0.027,0.025v0.025c0,0.244-0.1,0.418-0.302,0.523
						c-0.014,0.092-0.042,0.137-0.083,0.137h-0.025c-0.111-0.045-0.166-0.117-0.166-0.218l0.055-0.165v-0.055l-0.026-0.164
						c0.035-0.074,0.054-0.175,0.054-0.303l-0.054-0.056v-0.055l0.054-0.083v-0.632c-0.092-0.142-0.138-0.316-0.138-0.523
						l-0.165-0.604v-0.027C83.315,43.253,83.361,43.172,83.415,43.172z"/>
					<path fill="#FFFFFF" d="M92.308,39.349l0.163,0.027l0.33-0.027l0.054,0.19c-0.021,0.13-0.058,0.193-0.111,0.193h-0.189
						c-0.266,0-0.641,0.128-1.128,0.385c-0.12,0.062-0.249,0.159-0.387,0.304c-0.081,0.056-0.219,0.221-0.411,0.495
						c-0.106,0.096-0.207,0.253-0.303,0.466c-0.069,0-0.161,0.139-0.275,0.415l-0.329,0.768c-0.027,0-0.093,0.202-0.193,0.605
						c-0.054,0.065-0.11,0.274-0.165,0.635h-0.026l0.026,0.024v0.029l-0.026,0.108l0.026,0.026v0.026l-0.026,0.112l0.026,0.083
						l-0.055,0.166c0.074,0.507,0.184,0.855,0.331,1.044c0,0.1,0.184,0.212,0.552,0.328l0.024-0.028l0.276,0.028h0.109
						c0.394-0.13,0.716-0.288,0.965-0.466c0.186-0.131,0.342-0.209,0.465-0.221c0-0.092,0.094-0.175,0.277-0.247
						c0.057-0.093,0.177-0.193,0.357-0.304c0-0.052,0.118-0.141,0.357-0.273c0-0.085,0.09-0.158,0.275-0.223
						c0.463-0.49,0.802-0.767,1.018-0.824c0-0.036,0.025-0.053,0.083-0.053c0.063-0.148,0.107-0.223,0.137-0.223l0.109,0.084v0.081
						c0,0.201-0.062,0.339-0.193,0.413c-0.154,0.155-0.348,0.292-0.575,0.412c-0.114,0.134-0.235,0.235-0.359,0.303
						c0,0.055-0.19,0.248-0.576,0.577c-1.143,0.963-1.928,1.466-2.363,1.512l-0.139-0.024h-0.495
						c-0.41-0.198-0.628-0.345-0.662-0.44c-0.25-0.243-0.379-0.501-0.384-0.77c-0.033,0-0.068-0.137-0.111-0.413l0.056-0.11
						l-0.027-0.027v-0.028l0.027-0.082l-0.027-0.11l0.11-0.577l-0.027-0.027v-0.025c0.253-0.935,0.435-1.487,0.549-1.651
						c0.052-0.186,0.17-0.431,0.358-0.742c0.192-0.362,0.431-0.686,0.716-0.964c0.238-0.256,0.504-0.495,0.798-0.716L92.308,39.349z
						"/>
					<path fill="#FFFFFF" d="M94.795,43.247l0.2,0.099c0.339,0.317,0.54,0.604,0.604,0.853l0.11,0.144l0.528-0.027l0.097-0.016
						l0.027,0.016c0.042,0.018,0.027,0.133-0.042,0.343l-0.598,0.117c-0.042,0.562-0.089,0.902-0.146,1.025l-0.164,0.289
						l0.013,0.033c-0.082,0.023-0.188,0.095-0.315,0.215l-0.142,0.055l-0.016-0.034l-0.158,0.014l-0.152-0.068l-0.268-0.4
						c0.033-0.067-0.015-0.251-0.138-0.549l0.032-0.008c0.039-0.097,0.027-0.203-0.032-0.322l0.172-0.619l0.068-0.09
						c-0.143-0.304-0.177-0.552-0.103-0.75l-0.028-0.069l0.021-0.046c0.029-0.061,0.124-0.139,0.289-0.233l0.015,0.04l0.027,0.008
						L94.795,43.247z M94.982,44.732l-0.069-0.035l-0.013-0.04l-0.029-0.008l-0.021,0.048l-0.026-0.013
						c-0.197,0.72-0.127,1.157,0.206,1.313l0.11-0.041l0.013,0.034l0.028,0.014l0.007-0.022l0.034-0.137l0.074-0.025l0.022-0.049
						c0.064-0.138,0.099-0.428,0.103-0.868l0.02-0.048c-0.05-0.021-0.065-0.051-0.049-0.09L94.982,44.732z M94.761,43.712
						l0.008,0.188l0.068,0.036l0.104-0.016l0.047,0.022c0.033,0.018,0.051,0.125,0.057,0.327l0.131,0.063l0.068-0.027
						c0.077-0.16-0.017-0.347-0.282-0.559l0.021-0.048l-0.075-0.041L94.761,43.712z"/>
					<path fill="#FFFFFF" d="M96.613,42.292c0.255,0.022,0.384,0.135,0.384,0.328l0.025,0.03l-0.025,0.026v0.026
						c0.122,0.428,0.216,0.922,0.273,1.485l0.029,0.027v0.028l-0.056,0.053l0.026,0.167h0.057c0.09-0.111,0.226-0.403,0.412-0.882
						c0.073-0.183,0.238-0.392,0.494-0.632c0.115-0.168,0.398-0.325,0.853-0.468c0.285,0,0.487,0.055,0.606,0.167v0.025
						c0,0.138-0.138,0.221-0.413,0.248l-0.303-0.027c0,0.04-0.092,0.079-0.274,0.11c0,0.074-0.064,0.108-0.191,0.108
						c0,0.062-0.094,0.162-0.277,0.305c0,0.053-0.027,0.081-0.083,0.081c0,0.065-0.083,0.211-0.249,0.441
						c0,0.092-0.045,0.175-0.136,0.247v0.027l0.027,0.221l-0.191,0.357l0.028,0.028v0.026c-0.129,0.285-0.193,0.633-0.193,1.045
						c-0.031,0-0.08,0.1-0.138,0.304c-0.046,0-0.111,0.034-0.193,0.106h-0.028c-0.031,0-0.084-0.062-0.164-0.188V46.03l0.084-0.108
						v-0.717l-0.221-1.815c-0.033,0-0.068-0.164-0.109-0.494c-0.111-0.032-0.165-0.179-0.165-0.439
						C96.573,42.457,96.613,42.402,96.613,42.292z"/>
					<path fill="#FFFFFF" d="M104.339,38.247c0.201,0.136,0.329,0.309,0.385,0.524v0.357l0.026,0.248l-0.026,0.028v0.026
						l0.026,0.027l-0.026,0.192v0.274c-0.074,0.217-0.111,0.381-0.111,0.496h-0.025l0.025,0.137v0.137
						c-0.05,0.062-0.094,0.242-0.135,0.551c-0.104,0.323-0.177,0.496-0.222,0.524l0.026,0.027v0.082h-0.083v0.082
						c0,0.064-0.044,0.156-0.138,0.272c-0.113,0.304-0.259,0.57-0.439,0.801c0,0.051-0.045,0.116-0.138,0.191
						c0,0.079-0.062,0.189-0.193,0.33c-0.053,0.198-0.082,0.437-0.082,0.715c0.079,0.432,0.179,0.744,0.305,0.935l0.301,0.551
						c0.282,0.389,0.436,0.579,0.468,0.579c0.071,0,0.11,0.055,0.11,0.163c0.091,0,0.227,0.074,0.412,0.223
						c0.143,0.055,0.353,0.099,0.634,0.136v0.028c0,0.04-0.074,0.079-0.222,0.111c-0.494-0.071-0.742-0.145-0.742-0.221
						c-0.079,0-0.29-0.149-0.633-0.44l-0.22-0.248c-0.237-0.312-0.423-0.7-0.551-1.155c-0.073-0.158-0.108-0.29-0.108-0.386
						c-0.034,0-0.053-0.138-0.057-0.411l-0.027-0.027h-0.081c0,0.082-0.109,0.219-0.331,0.411c-0.462,0.584-0.793,0.921-0.991,1.021
						c-0.425,0.383-0.817,0.577-1.182,0.577c-0.401-0.122-0.604-0.287-0.604-0.497c0-0.251,0.303-0.737,0.907-1.457
						c0.696-0.682,1.109-1.032,1.239-1.045c0.252-0.165,0.572-0.283,0.963-0.356l0.027-0.551v-0.192l0.053-0.082v-0.193l0.084-0.497
						l-0.056-0.053V41.11c0.074-0.076,0.11-0.152,0.11-0.221v-0.358c0.042-0.041,0.067-0.178,0.082-0.413l0.331-0.963
						c0-0.11,0.045-0.229,0.138-0.356c0-0.062,0.036-0.137,0.111-0.22c0-0.097,0.108-0.209,0.328-0.333L104.339,38.247
						L104.339,38.247z M102.579,43.199c0,0.047-0.073,0.084-0.22,0.109h-0.112c0,0.051-0.028,0.097-0.082,0.139l-0.083-0.027
						l-0.495,0.33v-0.027c-0.183,0.115-0.274,0.224-0.274,0.328c-0.042,0-0.151,0.093-0.329,0.276l-0.414,0.413
						c-0.115,0.219-0.188,0.33-0.218,0.33c-0.035,0.128-0.089,0.192-0.166,0.192l-0.026,0.248c0,0.083,0.089,0.135,0.274,0.164
						v0.027l0.164-0.11l0.026,0.027h0.027c0.105-0.073,0.208-0.119,0.305-0.138c0.3-0.16,0.666-0.465,1.099-0.909l0.523-0.551
						c0-0.065,0.055-0.141,0.164-0.216c0.057-0.126,0.09-0.281,0.111-0.469c-0.02-0.091-0.055-0.139-0.111-0.139l-0.026,0.027
						h-0.026L102.579,43.199z M104.091,38.688v0.056c-0.104,0.059-0.198,0.179-0.275,0.358c-0.039,0-0.086,0.1-0.136,0.302
						c-0.107,0-0.207,0.348-0.304,1.044c-0.057,0-0.128,0.44-0.22,1.32c-0.037,0-0.057,0.047-0.057,0.137l0.057,0.744l-0.028,0.222
						c0.069,0.052,0.134,0.08,0.191,0.08c0.349-0.435,0.614-0.923,0.799-1.457c0.082-0.03,0.153-0.224,0.221-0.576l0.055-0.138
						l-0.027-0.028l0.055-0.468v-0.109c0.036-0.028,0.064-0.175,0.083-0.439l-0.026-0.66c-0.069-0.244-0.135-0.371-0.193-0.387
						H104.091z"/>
					<path fill="#FFFFFF" d="M105.762,43.247l0.2,0.099c0.34,0.317,0.541,0.604,0.604,0.853l0.109,0.144l0.531-0.027l0.096-0.016
						l0.027,0.016c0.044,0.018,0.027,0.133-0.042,0.343l-0.599,0.117c-0.04,0.562-0.088,0.902-0.143,1.025l-0.164,0.289l0.015,0.033
						c-0.084,0.023-0.189,0.095-0.318,0.215l-0.146,0.055l-0.013-0.034l-0.159,0.014l-0.151-0.068l-0.267-0.4
						c0.031-0.067-0.015-0.251-0.139-0.549l0.034-0.008c0.035-0.097,0.024-0.203-0.034-0.322l0.173-0.619l0.068-0.09
						c-0.143-0.304-0.177-0.552-0.103-0.75l-0.027-0.069l0.02-0.046c0.027-0.061,0.124-0.139,0.288-0.233l0.016,0.04l0.026,0.008
						L105.762,43.247z M105.948,44.732l-0.067-0.035l-0.016-0.04l-0.027-0.008l-0.021,0.048l-0.028-0.013
						c-0.195,0.72-0.126,1.157,0.208,1.313l0.11-0.041l0.013,0.034l0.029,0.014l0.007-0.022l0.034-0.137l0.075-0.025l0.021-0.049
						c0.062-0.138,0.099-0.428,0.103-0.868l0.02-0.048c-0.05-0.021-0.067-0.051-0.048-0.09L105.948,44.732z M105.728,43.712
						l0.008,0.188l0.067,0.036l0.104-0.016l0.048,0.022c0.033,0.018,0.052,0.125,0.057,0.327l0.13,0.063l0.07-0.027
						c0.077-0.16-0.019-0.347-0.284-0.559l0.021-0.048l-0.077-0.041L105.728,43.712z"/>
					<path fill="#FFFFFF" d="M108.185,39.018c0.149,0.093,0.242,0.211,0.272,0.358v0.027c-0.043,0.22-0.078,0.329-0.109,0.329
						l-0.026-0.027h-0.029c-0.157,0.24-0.246,0.523-0.273,0.853c-0.047,0-0.083,0.193-0.11,0.58l-0.027,0.024l0.055,0.165
						l-0.084,0.495l0.028,0.027v0.029l-0.028,0.082l0.028,0.249l-0.056,0.439l0.027,0.084l-0.054,0.053l0.026,0.084l-0.026,0.302
						l0.054,0.219h-0.027l0.027,0.028v0.027l-0.027,0.329l0.027,0.031v0.023l-0.054,0.33l0.054,0.358l-0.054,0.494l0.054,0.8
						l-0.027,0.027l0.027,0.274v0.221c0,0.786,0.12,1.474,0.358,2.062c0.116,0.165,0.188,0.248,0.22,0.248h0.054
						c0.089-0.052,0.181-0.215,0.277-0.495c0.082-0.13,0.138-0.301,0.163-0.523c0.063,0,0.119-0.273,0.166-0.824l-0.03-0.029v-0.026
						l0.058-0.081l-0.027-0.192v-0.055l0.027-0.25c-0.036-0.637-0.102-1.066-0.193-1.29c0-0.163-0.137-0.299-0.412-0.414
						l-0.302-0.302l-0.025-0.112c0.047-0.163,0.142-0.243,0.272-0.243l0.522,0.355l0.33,0.054l0.879-0.136v0.025l0.166-0.085
						l0.109,0.029c0-0.046,0.038-0.074,0.112-0.083c0.108,0.018,0.164,0.046,0.164,0.083v0.056
						c-0.043,0.115-0.288,0.223-0.744,0.328c-0.228,0.11-0.438,0.175-0.632,0.194l-0.083-0.027L109.2,44.71v0.221
						c0.091,0,0.135,0.222,0.135,0.66l0.056,0.222l-0.027,0.08l0.055,0.275l-0.055,0.111l0.027,0.025v0.03
						c-0.017,0.368-0.046,0.581-0.082,0.632l0.025,0.029c-0.033,0.273-0.071,0.412-0.109,0.412l0.027,0.024v0.026
						c-0.2,1.065-0.466,1.598-0.798,1.598h-0.136c-0.124,0-0.271-0.148-0.439-0.44c-0.15-0.429-0.239-0.835-0.277-1.209
						l-0.056-0.635l0.028-0.081l-0.055-0.138l0.026-0.112l-0.026-0.108l0.026-0.03V46.28l-0.054-0.165l0.054-0.332l-0.026-0.026
						l0.026-0.082l-0.054-0.494l0.027-0.165l-0.027-0.167l0.027-0.219v-0.056h-0.054v-0.027l0.054-0.082l-0.027-0.521
						c0.017-1.395,0.042-2.093,0.083-2.093l-0.056-0.163c0.038-0.064,0.074-0.268,0.111-0.606l-0.055-0.054l0.167-0.743
						l-0.029-0.027v-0.027c0.086-0.806,0.216-1.21,0.387-1.21L108.185,39.018L108.185,39.018z"/>
					<path fill="#FFFFFF" d="M112.541,42.98c0.081,0.03,0.148,0.085,0.193,0.165v0.053c0,0.091-0.019,0.139-0.057,0.139l0.026,0.026
						v0.026c-0.071,0.345-0.126,0.832-0.163,1.458c0.054,0.698,0.156,1.045,0.303,1.045h0.109l0.056-0.055l0.027,0.028h0.055
						c0-0.069,0.164-0.225,0.495-0.468c0-0.077,0.147-0.262,0.441-0.551c0.028-0.183,0.062-0.275,0.109-0.275h0.055v0.057
						c0,0.15-0.071,0.334-0.221,0.55c-0.386,0.587-0.697,0.943-0.935,1.072l-0.249,0.053c-0.338,0-0.559-0.364-0.66-1.099
						l-0.028-0.414c-0.138,0.126-0.255,0.327-0.356,0.607c-0.078,0-0.17,0.147-0.275,0.439c-0.242,0.294-0.454,0.44-0.633,0.44
						h-0.082c-0.165-0.084-0.248-0.23-0.248-0.44l0.028-0.025l-0.028-0.193v-0.111c0-0.717,0.275-1.356,0.826-1.926
						c0.242-0.11,0.406-0.221,0.493-0.329l0.028,0.026h0.027C112.16,43.08,112.381,42.98,112.541,42.98z M110.918,45.153
						l0.055,0.246l-0.028,0.027v0.027L111,45.645h0.057c0.084-0.04,0.142-0.113,0.163-0.219c0.107-0.079,0.234-0.244,0.387-0.495
						l-0.027-0.028v-0.025c0.072,0,0.257-0.379,0.549-1.13l-0.027-0.11l0.027-0.027v-0.027l-0.027-0.026h-0.055
						c-0.128,0.054-0.358,0.238-0.688,0.55c-0.11,0.16-0.237,0.445-0.386,0.853C110.942,44.958,110.922,45.023,110.918,45.153z"/>
				</g>
			</g>
		</g>
	</g>
</g>
</svg>
