<?xml version="1.0" encoding="utf-8"?>
<!-- Generator: Adobe Illustrator 16.0.0, SVG Export Plug-In . SVG Version: 6.00 Build 0)  -->
<!DOCTYPE svg PUBLIC "-//W3C//DTD SVG 1.1//EN" "http://www.w3.org/Graphics/SVG/1.1/DTD/svg11.dtd">
<svg version="1.1" xmlns="http://www.w3.org/2000/svg" xmlns:xlink="http://www.w3.org/1999/xlink" x="0px" y="0px"
	 width="206.246px" height="39.58px" viewBox="0 0 206.246 39.58" enable-background="new 0 0 206.246 39.58" xml:space="preserve">
<g id="plantilla" display="none">
</g>
<g id="Capa_1">
	<g>
		<g>
			<g>
				<path fill="#FFFFFF" d="M75.16,26.427"/>
				<path fill="#FFFFFF" d="M41.059,18.182h8.101v10.125c-2.202,0.754-4.617,1.128-7.257,1.128c-2.891,0-5.127-0.838-6.707-2.515
					c-1.584-1.678-2.368-4.074-2.368-7.185c0-3.026,0.861-5.382,2.594-7.071c1.729-1.689,4.15-2.521,7.268-2.521
					c1.182,0,2.293,0.106,3.341,0.333c1.055,0.22,1.97,0.499,2.749,0.839l-1.612,3.979c-1.352-0.667-2.837-1-4.454-1
					c-1.477,0-2.622,0.487-3.433,1.445c-0.814,0.965-1.213,2.337-1.213,4.129c0,1.754,0.362,3.092,1.101,4.014
					c0.726,0.922,1.777,1.374,3.159,1.374c0.754,0,1.449-0.065,2.08-0.215v-2.938h-3.348V18.182z"/>
				<path fill="#FFFFFF" d="M62.6,19.574c0-1.725-0.34-2.997-1.018-3.83c-0.68-0.826-1.72-1.243-3.104-1.243h-1.475v10.517h1.13
					c1.546,0,2.676-0.448,3.391-1.346C62.242,22.787,62.6,21.412,62.6,19.574 M67.861,19.396c0,3.13-0.855,5.544-2.586,7.239
					c-1.72,1.695-4.146,2.539-7.269,2.539h-6.07V10.403h6.494c3.009,0,5.334,0.773,6.975,2.314
					C67.047,14.253,67.861,16.482,67.861,19.396"/>
				<path fill="#FFFFFF" d="M77.711,18.182h8.105v10.125c-2.2,0.754-4.62,1.128-7.255,1.128c-2.891,0-5.127-0.838-6.709-2.515
					c-1.576-1.678-2.366-4.074-2.366-7.185c0-3.026,0.861-5.382,2.592-7.071c1.725-1.689,4.15-2.521,7.268-2.521
					c1.179,0,2.297,0.106,3.349,0.333c1.042,0.22,1.957,0.499,2.736,0.839l-1.605,3.979c-1.35-0.667-2.838-1-4.454-1
					c-1.481,0-2.624,0.487-3.438,1.445c-0.805,0.965-1.208,2.337-1.208,4.129c0,1.754,0.362,3.092,1.094,4.014
					s1.784,1.374,3.164,1.374c0.754,0,1.451-0.065,2.082-0.215v-2.938h-3.354V18.182z"/>
			</g>
		</g>
		<g>
			<path fill="#FFFFFF" d="M112.129,12.959c-1.736,0-3.102,0.615-4.096,1.845s-1.49,2.928-1.49,5.093
				c0,2.267,0.477,3.98,1.434,5.144c0.956,1.163,2.34,1.743,4.152,1.743c0.782,0,1.54-0.078,2.273-0.234
				c0.732-0.155,1.496-0.355,2.288-0.6v2.592c-1.45,0.547-3.093,0.82-4.929,0.82c-2.704,0-4.781-0.818-6.23-2.458
				c-1.448-1.638-2.174-3.982-2.174-7.032c0-1.922,0.352-3.602,1.057-5.042c0.702-1.44,1.719-2.544,3.051-3.311
				s2.894-1.15,4.688-1.15c1.886,0,3.631,0.396,5.232,1.188l-1.089,2.516c-0.622-0.295-1.281-0.555-1.977-0.778
				C113.625,13.07,112.894,12.959,112.129,12.959z"/>
			<path fill="#FFFFFF" d="M132.75,22.095c0,2.284-0.584,4.065-1.757,5.346c-1.171,1.28-2.801,1.921-4.889,1.921
				c-1.307,0-2.461-0.295-3.464-0.885s-1.773-1.436-2.312-2.54c-0.54-1.104-0.81-2.384-0.81-3.842c0-2.266,0.581-4.034,1.744-5.307
				c1.162-1.272,2.802-1.908,4.916-1.908c2.021,0,3.621,0.65,4.801,1.952S132.75,19.889,132.75,22.095z M122.578,22.095
				c0,3.228,1.192,4.841,3.576,4.841c2.358,0,3.538-1.613,3.538-4.841c0-3.192-1.188-4.788-3.562-4.788
				c-1.248,0-2.15,0.412-2.712,1.237C122.858,19.37,122.578,20.555,122.578,22.095z M124.208,13.427v-0.315
				c0.481-0.59,0.976-1.248,1.485-1.972c0.51-0.725,0.912-1.345,1.207-1.857h3.449v0.265c-0.438,0.514-1.094,1.177-1.964,1.99
				c-0.872,0.812-1.609,1.443-2.206,1.89H124.208z"/>
			<path fill="#FFFFFF" d="M143.252,14.88c0.597,0,1.09,0.042,1.479,0.126l-0.291,2.768c-0.422-0.101-0.858-0.151-1.314-0.151
				c-1.188,0-2.15,0.388-2.887,1.162c-0.738,0.775-1.106,1.782-1.106,3.021v7.305h-2.969V15.133h2.325l0.392,2.463h0.151
				c0.463-0.833,1.067-1.494,1.812-1.983C141.59,15.124,142.393,14.88,143.252,14.88z"/>
			<path fill="#FFFFFF" d="M152.033,29.361c-1.742,0-3.104-0.632-4.08-1.896c-0.979-1.262-1.466-3.035-1.466-5.32
				c0-2.29,0.493-4.074,1.483-5.351s2.361-1.914,4.113-1.914c1.838,0,3.235,0.679,4.195,2.035h0.151
				c-0.143-1.003-0.214-1.796-0.214-2.376V9.445h2.982v19.664h-2.325l-0.519-1.832h-0.139
				C155.266,28.666,153.869,29.361,152.033,29.361z M152.831,26.961c1.221,0,2.109-0.344,2.665-1.031
				c0.556-0.686,0.842-1.8,0.859-3.342v-0.416c0-1.762-0.285-3.013-0.859-3.754c-0.572-0.742-1.469-1.111-2.691-1.111
				c-1.045,0-1.849,0.424-2.414,1.269c-0.564,0.848-0.845,2.054-0.845,3.621c0,1.55,0.273,2.731,0.82,3.545
				C150.913,26.554,151.735,26.961,152.831,26.961z"/>
			<path fill="#FFFFFF" d="M175.842,22.095c0,2.284-0.585,4.065-1.756,5.346c-1.173,1.28-2.803,1.921-4.891,1.921
				c-1.307,0-2.461-0.295-3.464-0.885c-1.001-0.59-1.773-1.436-2.312-2.54c-0.54-1.104-0.81-2.384-0.81-3.842
				c0-2.266,0.583-4.034,1.745-5.307c1.161-1.272,2.801-1.908,4.915-1.908c2.021,0,3.621,0.65,4.801,1.952
				C175.252,18.134,175.842,19.889,175.842,22.095z M165.668,22.095c0,3.228,1.193,4.841,3.577,4.841c2.358,0,3.54-1.613,3.54-4.841
				c0-3.192-1.189-4.788-3.564-4.788c-1.248,0-2.15,0.412-2.712,1.237C165.949,19.37,165.668,20.555,165.668,22.095z"/>
			<path fill="#FFFFFF" d="M186.393,14.88c1.744,0,3.104,0.632,4.075,1.896c0.975,1.264,1.461,3.037,1.461,5.319
				c0,2.292-0.493,4.075-1.479,5.352c-0.987,1.276-2.356,1.915-4.107,1.915c-1.77,0-3.143-0.636-4.118-1.908h-0.204l-0.544,1.656
				h-2.223V9.445h2.971v4.676c0,0.346-0.018,0.859-0.053,1.543c-0.033,0.682-0.059,1.115-0.074,1.301h0.127
				C183.166,15.574,184.557,14.88,186.393,14.88z M185.622,17.307c-1.196,0-2.058,0.351-2.583,1.055
				c-0.527,0.703-0.799,1.881-0.814,3.531v0.202c0,1.703,0.268,2.935,0.808,3.696c0.538,0.763,1.419,1.145,2.64,1.145
				c1.055,0,1.852-0.418,2.396-1.252c0.544-0.833,0.815-2.038,0.815-3.613C188.883,18.895,187.796,17.307,185.622,17.307z"/>
			<path fill="#FFFFFF" d="M204.123,29.109l-0.594-1.947h-0.102c-0.674,0.852-1.352,1.431-2.035,1.738
				c-0.682,0.307-1.559,0.461-2.629,0.461c-1.373,0-2.445-0.37-3.216-1.112c-0.771-0.741-1.156-1.79-1.156-3.146
				c0-1.441,0.536-2.527,1.604-3.262c1.071-0.731,2.701-1.132,4.891-1.2l2.416-0.075V19.82c0-0.893-0.21-1.561-0.626-2.003
				c-0.419-0.441-1.065-0.663-1.941-0.663c-0.715,0-1.403,0.105-2.06,0.316c-0.657,0.21-1.288,0.459-1.895,0.745l-0.961-2.123
				c0.76-0.396,1.588-0.697,2.489-0.903c0.901-0.207,1.752-0.31,2.553-0.31c1.776,0,3.119,0.387,4.025,1.163
				c0.904,0.774,1.358,1.992,1.358,3.651v9.415H204.123z M199.7,27.086c1.078,0,1.943-0.301,2.596-0.903
				c0.654-0.603,0.979-1.446,0.979-2.533v-1.213l-1.793,0.075c-1.399,0.052-2.416,0.285-3.053,0.702s-0.955,1.055-0.955,1.913
				c0,0.625,0.187,1.107,0.557,1.448C198.402,26.916,198.959,27.086,199.7,27.086z"/>
		</g>
		<g>
			<g>
				<path fill="#FFFFFF" d="M14.192,24.846L5.323,39.58h4.479c1.06,0,2.377-0.744,2.924-1.657l3.773-6.278
					c0.445-0.921,0.431-2.26-0.08-3.109L14.192,24.846z"/>
				<radialGradient id="SVGID_1_" cx="7.1113" cy="28.8579" r="9.0859" gradientUnits="userSpaceOnUse">
					<stop  offset="0" style="stop-color:#DEDEDE"/>
					<stop  offset="1" style="stop-color:#D1D1D1"/>
				</radialGradient>
				<path fill="url(#SVGID_1_)" d="M10.139,18.136c0.547,0.909,0.547,2.399,0,3.313L0.175,38.104
					c-0.384,0.823,0.017,1.476,1.005,1.476h4.144l8.869-14.734L10.139,18.136z"/>
				<path fill="#FFFFFF" d="M1.18,0c-1.063,0-1.487,0.747-0.94,1.657L16.42,28.535c0.511,0.85,0.525,2.188,0.08,3.109l3.935-6.547
					L5.325,0H1.18z"/>
				<radialGradient id="SVGID_2_" cx="14.1797" cy="12.5488" r="10.8599" gradientUnits="userSpaceOnUse">
					<stop  offset="0" style="stop-color:#DEDEDE"/>
					<stop  offset="1" style="stop-color:#D1D1D1"/>
				</radialGradient>
				<path fill="url(#SVGID_2_)" d="M22.624,18.136L12.727,1.657C12.18,0.747,10.862,0,9.803,0H5.325l15.109,25.098l2.189-3.648
					C23.171,20.535,23.171,19.045,22.624,18.136z"/>
				<linearGradient id="SVGID_3_" gradientUnits="userSpaceOnUse" x1="18.8232" y1="24.8901" x2="7.6849" y2="24.8901">
					<stop  offset="0" style="stop-color:#231F20;stop-opacity:0.2"/>
					<stop  offset="1" style="stop-color:#F1F2F2;stop-opacity:0.25"/>
				</linearGradient>
				<path fill="url(#SVGID_3_)" d="M16.42,28.535l-6.281-10.399c0.547,0.909,0.547,2.399,0,3.313l-2.213,3.683l8.574,6.513
					C16.945,30.724,16.931,29.385,16.42,28.535z"/>
			</g>
			<radialGradient id="SVGID_4_" cx="11.5176" cy="19.79" r="16.1907" gradientUnits="userSpaceOnUse">
				<stop  offset="0" style="stop-color:#FFFFFF;stop-opacity:0.1"/>
				<stop  offset="0.0896" style="stop-color:#FFFFFF;stop-opacity:0.091"/>
				<stop  offset="1" style="stop-color:#FFFFFF;stop-opacity:0"/>
			</radialGradient>
			<path fill="url(#SVGID_4_)" d="M22.624,18.136L12.727,1.657C12.18,0.747,10.862,0,9.803,0H5.325H1.18
				c-1.063,0-1.487,0.747-0.94,1.657l9.899,16.479c0.547,0.909,0.547,2.399,0,3.313L0.175,38.104
				c-0.384,0.823,0.017,1.476,1.005,1.476h4.144h4.479c1.06,0,2.377-0.744,2.924-1.657l7.708-12.825l2.189-3.648
				C23.171,20.535,23.171,19.045,22.624,18.136z"/>
		</g>
	</g>
</g>
</svg>
